<svg version="1" xmlns="http://www.w3.org/2000/svg" width="933.333" height="933.333" viewBox="0 0 700.000000 700.000000"><path d="M327 22.6c-50.4 4.3-96.7 18.1-136.4 40.6C105.4 111.4 47 191.8 28.1 286.6c-4.6 23-5.5 33.7-5.5 63.4 0 34 2.1 52.2 9.5 81.5 19.6 77.5 69.7 147.8 136.9 192 43.7 28.7 86.4 44.6 140.1 52.1 17.6 2.5 64.2 2.5 81.8 0 44.1-6.2 84-19.2 118.5-38.8 85.2-48.2 143.6-128.6 162.5-223.4 4.6-23 5.5-33.7 5.5-63.4 0-34-2.1-52.2-9.5-81.5-19.6-77.5-69.7-147.8-136.9-192-43.5-28.5-87-44.8-139.5-52-10.5-1.5-54.6-2.8-64.5-1.9zM350 372v175H241V197h109v175zm113.8-173.4c31.7 6.5 55.1 31.2 60.3 63.7 1.3 8.3.8 21-1.1 29.3-1.9 7.7-10.3 24.3-15.5 30.4-10.3 12-23.1 20.4-38.5 25.1-10.7 3.3-29 3.4-40.5.1-14.6-4.2-28.4-13.1-38.8-25.1-6.4-7.4-14.2-23.5-16.1-33.3-10.9-53.6 36.8-101.2 90.2-90.2z"/></svg>