<svg xmlns="http://www.w3.org/2000/svg" viewBox="0 0 62 62" fill="none" stroke="#ffffff" stroke-width="2" stroke-linejoin="round">
	<circle cx="31" cy="31" r="29"/>
	<g stroke-miterlimit="10">
		<path d="M48.96 26.52a3.34 3.34 0 0 1 1.13 2.5c0 1.84-1.5 3.34-3.34 3.34H44.8" stroke-linecap="round"/>
		<path d="M44.8 31.1c0-6-4.86-10.85-10.85-10.85h-6.68a11.03 11.03 0 0 0-.82.03c-.35-2.3-2.34-4.07-4.74-4.07v5.57c-2.48 1.48-4.3 3.93-5 6.82h-.8a1.84 1.84 0 0 0-1.84 1.84v3a1.84 1.84 0 0 0 1.84 1.84h.76c.2 0 .38-.03.56-.1.9 2.24 2.55 4.1 4.63 5.3v2.53a1.84 1.84 0 0 0 1.84 1.84h.76a1.84 1.84 0 0 0 1.84-1.84V41.9a10.5 10.5 0 0 0 .97.05h6.68a11.02 11.02 0 0 0 1.53-.11v1.2a1.84 1.84 0 0 0 1.84 1.84h.76a1.84 1.84 0 0 0 1.84-1.84v-2.88c2.94-1.94 4.88-5.27 4.88-9.05z"/>
	</g>
	<circle cx="22.67" cy="27.35" r="1.53"/>
	<path d="M27.82 23.73h6.4" stroke-linecap="round" stroke-miterlimit="10"/>
	<line x1="27.82" y1="23.73" x2="34.22" y2="23.73"/>
</svg>
