<svg id="Layer_1" data-name="Layer 1" xmlns="http://www.w3.org/2000/svg" viewBox="0 0 68 68"><defs><style>.cls-1{fill:none;stroke:#00b4d5;stroke-linecap:round;stroke-linejoin:round;stroke-width:2px;}.cls-2{fill:#00b4d5;}</style></defs><title>home-icons</title><circle class="cls-1" cx="33.92" cy="34" r="32"/><path class="cls-2" d="M48.88,51.08H37.15a1,1,0,0,1-1-1V40.84H31.68v9.24a1,1,0,0,1-1,1H19a1,1,0,0,1-1-1V29.26a1,1,0,0,1,.29-.71l15-15a1,1,0,0,1,1.41,0l15,15a1,1,0,0,1,.29.71V50.08A1,1,0,0,1,48.88,51.08Zm-10.73-2h9.73V29.67l-14-14-14,14V49.08h9.73V39.84a1,1,0,0,1,1-1h6.47a1,1,0,0,1,1,1Z"/></svg>