<svg id="Layer_1" data-name="Layer 1" xmlns="http://www.w3.org/2000/svg" viewBox="0 0 68 68"><defs><style>.cls-1{fill:none;stroke:#00b4d5;stroke-linecap:round;stroke-linejoin:round;stroke-width:2px;}.cls-2{fill:#00b4d5;}</style></defs><title>home-icons</title><circle class="cls-1" cx="33.92" cy="34" r="32"/><path class="cls-2" d="M33,21.47H29.59a.89.89,0,0,0-.92.91v4.3a.89.89,0,0,0,.92.91H33a.89.89,0,0,0,.92-.91v-4.3A.89.89,0,0,0,33,21.47Zm-.92,4.29H30.51V23.3H32.1Z"/><path class="cls-2" d="M33,29H29.59a.89.89,0,0,0-.92.92v4.29a.89.89,0,0,0,.92.92H33a.89.89,0,0,0,.92-.92V30A.89.89,0,0,0,33,29Zm-.92,4.3H30.51V30.87H32.1Z"/><path class="cls-2" d="M33,36.6H29.59a.89.89,0,0,0-.92.92v4.29a.89.89,0,0,0,.92.92H33a.89.89,0,0,0,.92-.92V37.52A.89.89,0,0,0,33,36.6Zm-.92,4.29H30.51V38.44H32.1Z"/><path class="cls-2" d="M47.38,52.54l0-23.44a.89.89,0,0,0,.87-.91V25.3a.89.89,0,0,0-.92-.91H39.1V19.87a.88.88,0,0,0,.59-.87V15.74a.89.89,0,0,0-.91-.92H31v-2a.89.89,0,0,0-.92-.92H27.2a.89.89,0,0,0-.92.92v2H23.89a.89.89,0,0,0-.92.92V19a.88.88,0,0,0,.6.86V52.54h-.14a.92.92,0,0,0,0,1.83H38.09l.09,0H41.6l.09,0h5.85a.89.89,0,0,0,.92-.91A1,1,0,0,0,47.38,52.54ZM39.1,31.9h1.58v2.46H39.1Zm0,7.52h1.58v2.46H39.1Zm1.58,13.12H39.1V47h1.58ZM28.12,13.72h1v1.1h-1Zm-3.31,2.94H37.86v1.42h-13Zm7.51,35.88H30.57v-5h1.75Zm.91-6.85H29.65a.89.89,0,0,0-.92.92v5.93H25.35V20H37.26V52.54H34.15V46.61A.89.89,0,0,0,33.23,45.69Zm12.29,6.85h-3V46a.89.89,0,0,0-.92-.92H39.1V43.72h2.5a.89.89,0,0,0,.92-.92V38.51a.88.88,0,0,0-.92-.92H39.1v-1.4h2.5a.88.88,0,0,0,.92-.91V31a.88.88,0,0,0-.92-.91H39.1v-1h6.42Zm.82-25.22H39.1v-1h7.24Z"/></svg>