<?xml version="1.0" encoding="UTF-8"?>
<svg width="52px" height="52px" viewBox="0 0 52 52" version="1.1" xmlns="http://www.w3.org/2000/svg" xmlns:xlink="http://www.w3.org/1999/xlink">
    <!-- Generator: Sketch 50.2 (55047) - http://www.bohemiancoding.com/sketch -->
    <title>annual-payment</title>
    <desc>Created with Sketch.</desc>
    <defs></defs>
    <g id="annual-payment" stroke="none" stroke-width="1" fill="none" fill-rule="evenodd">
        <g id="Group-11" transform="translate(3.000000, 13.000000)" fill="#FFFFFF">
            <path d="M1.57692308,25.4285714 L39.4230769,25.4285714 L39.4230769,6.57142857 L1.57692308,6.57142857 L1.57692308,25.4285714 Z M40.2115385,27 L0.788461538,27 C0.353230769,27 0,26.648 0,26.2142857 L0,5.78571429 C0,5.352 0.353230769,5 0.788461538,5 L40.2115385,5 C40.6467692,5 41,5.352 41,5.78571429 L41,26.2142857 C41,26.648 40.6467692,27 40.2115385,27 L40.2115385,27 Z" id="Fill-162"></path>
            <path d="M39.9499437,27 C39.7133752,27 39.4768066,26.8904118 39.3232721,26.6823529 C39.06477,26.3313529 39.1337039,25.8342353 39.47994,25.5705882 L45.4333208,21.0441176 L45.4333208,1.58823529 L7.31131663,1.58823529 L1.25296828,6.19411765 C0.908298865,6.45617647 0.416361606,6.38788235 0.156292864,6.03529412 C-0.102209199,5.68429412 -0.0332753154,5.18717647 0.312960781,4.92352941 L6.57967745,0.158823529 C6.71441186,0.0555882353 6.88047985,0 7.04968121,0 L46.2166604,0 C46.6490639,0 47,0.355764706 47,0.794117647 L47,21.4411765 C47,21.6905294 46.8840657,21.9271765 46.6866642,22.0764706 L40.4199475,26.8411765 C40.2789464,26.9475882 40.1128784,27 39.9499437,27" id="Fill-163"></path>
            <path d="M39.7367381,7 C39.499466,7 39.2666152,6.86627541 39.1236624,6.61768484 C38.8981802,6.22336875 38.9895521,5.69189925 39.3285122,5.42959333 L44.855036,1.14354892 C45.1895749,0.882957419 45.6479079,0.985822485 45.8763376,1.38185299 C46.1018198,1.77616907 46.0104479,2.30763858 45.6714878,2.5699445 L40.144964,6.85598891 C40.0196961,6.95371072 39.8782171,7 39.7367381,7" id="Fill-164"></path>
            <path d="M16.8000383,26 C16.3584172,26 16,25.6470315 16,25.2121239 L16,5.51522117 C16,5.26782807 16.1184057,5.03304099 16.3200153,4.88492028 L22.7203218,0.157663628 C23.0723386,-0.102335488 23.5731626,-0.034578143 23.8403754,0.315238849 C24.104388,0.663480089 24.0339847,1.15669053 23.6803677,1.4182654 L17.6000766,5.90915922 L17.6000766,25.2121239 C17.6000766,25.6470315 17.2416594,26 16.8000383,26" id="Fill-165"></path>
            <path d="M24.8000383,26 C24.3584172,26 24,25.6470315 24,25.2121239 L24,5.51522117 C24,5.26782807 24.1184057,5.03304099 24.3200153,4.88492028 L30.7203218,0.157663628 C31.0723386,-0.102335488 31.5731626,-0.034578143 31.8403754,0.315238849 C32.104388,0.663480089 32.0339847,1.15669053 31.6803677,1.4182654 L25.6000766,5.90915922 L25.6000766,25.2121239 C25.6000766,25.6470315 25.2416594,26 24.8000383,26" id="Fill-166"></path>
            <path d="M13.2142857,22 L5.35714286,22 C4.92342857,22 4.57142857,21.6515556 4.57142857,21.2222222 C4.57142857,20.7928889 4.21785714,20.4444444 3.78571429,20.4444444 C3.352,20.4444444 3,20.096 3,19.6666667 L3,10.3333333 C3,9.904 3.352,9.55555556 3.78571429,9.55555556 C4.21785714,9.55555556 4.57142857,9.20711111 4.57142857,8.77777778 C4.57142857,8.34844444 4.92342857,8 5.35714286,8 L13.2142857,8 C13.648,8 14,8.34844444 14,8.77777778 C14,9.20711111 13.648,9.55555556 13.2142857,9.55555556 L6.00771429,9.55555556 C5.772,10.2182222 5.24085714,10.744 4.57142857,10.9788889 L4.57142857,19.0211111 C5.24085714,19.256 5.772,19.7817778 6.00771429,20.4444444 L13.2142857,20.4444444 C13.648,20.4444444 14,20.7928889 14,21.2222222 C14,21.6515556 13.648,22 13.2142857,22" id="Fill-167"></path>
            <path d="M35.6428571,22 L27.7857143,22 C27.352,22 27,21.6515556 27,21.2222222 C27,20.7928889 27.352,20.4444444 27.7857143,20.4444444 L34.9922857,20.4444444 C35.228,19.7817778 35.7591429,19.256 36.4285714,19.0211111 L36.4285714,10.9773333 C35.7591429,10.744 35.228,10.2182222 34.9922857,9.55555556 L27.7857143,9.55555556 C27.352,9.55555556 27,9.20711111 27,8.77777778 C27,8.34844444 27.352,8 27.7857143,8 L35.6428571,8 C36.0765714,8 36.4285714,8.34844444 36.4285714,8.77777778 C36.4285714,9.20711111 36.7821429,9.55555556 37.2142857,9.55555556 C37.648,9.55555556 38,9.904 38,10.3333333 L38,19.6666667 C38,20.096 37.648,20.4444444 37.2142857,20.4444444 C36.7821429,20.4444444 36.4285714,20.7928889 36.4285714,21.2222222 C36.4285714,21.6515556 36.0765714,22 35.6428571,22" id="Fill-168"></path>
        </g>
    </g>
</svg>
