<?xml version="1.0" encoding="UTF-8"?>
<svg width="52px" height="52px" viewBox="0 0 52 52" version="1.1" xmlns="http://www.w3.org/2000/svg" xmlns:xlink="http://www.w3.org/1999/xlink">
    <!-- Generator: Sketch 50.2 (55047) - http://www.bohemiancoding.com/sketch -->
    <title>boat</title>
    <desc>Created with Sketch.</desc>
    <defs></defs>
    <g id="boat" stroke="none" stroke-width="1" fill="none" fill-rule="evenodd">
        <path d="M28.1932173,13.814953 C28.1823735,13.8233232 28.1718486,13.8316934 28.1610047,13.8400635 C28.1823735,13.8850145 28.2024665,13.9305854 28.225111,13.9752263 C29.2303987,15.9614372 29.9910621,18.0276297 30.3852676,20.2137946 C30.6436061,21.6466441 30.7322705,23.0866237 30.5983172,24.5380736 C30.5048688,25.5493144 30.302982,26.5376147 29.9853213,27.5039046 C29.9582117,27.5869863 29.9326968,27.670998 29.9059061,27.7556298 C32.8653175,27.866922 35.7507356,28.2302495 38.4798749,29.4504346 C38.4581872,29.4014536 38.4511706,29.3819232 38.4412836,29.3642528 C37.1275843,27.0196746 35.7775263,24.6952468 34.348372,22.4148399 C32.7878159,19.9251787 31.1733596,17.4705482 29.3263986,15.1687509 C28.9583459,14.7099414 28.571476,14.2657023 28.1932173,13.814953 Z M15.8111472,28.106557 L24.8297134,28.106557 L24.8297134,15.0013474 C24.7892085,15.0872192 24.7656072,15.1352702 24.7439195,15.1842512 C23.7708444,17.3499557 22.6778492,19.456139 21.4225153,21.4811007 C20.4583704,23.0360927 19.3940794,24.5216432 18.1636225,25.8903214 C17.4520753,26.6814577 16.6843953,27.4171028 15.8111472,28.106557 Z M26.3708144,13.7892225 L26.3708144,31.4428456 L38.9582796,31.4428456 C38.9082066,31.4050248 38.8817348,31.3833244 38.8536684,31.363794 C38.3376292,31.0075966 37.7756632,30.735101 37.189458,30.5078664 C35.2146034,29.7427706 33.1418354,29.4383444 31.0381305,29.2979115 C30.2742777,29.2467604 29.5069166,29.2514105 28.7411502,29.2343602 C28.5344793,29.2297101 28.3663998,29.1484884 28.2340412,29.0034054 C27.9817625,28.7274997 27.9881412,28.4246235 28.1332573,28.0991168 C28.6253762,26.991464 28.9251765,25.8339002 29.0549836,24.6347956 C29.1924452,23.3628394 29.128658,22.0955333 28.9280469,20.8344274 C28.7146784,19.4917898 28.3380145,18.190693 27.8506796,16.9184268 C27.4382947,15.8423947 26.9535113,14.7979832 26.3708144,13.7892225 Z M3.54070489,35.5281096 L49.0838742,35.5281096 L49.0838742,32.9454465 L3.54070489,32.9454465 L3.54070489,35.5281096 Z M8.01857276,41.6826662 C8.01538339,41.7111868 8.01091828,41.722347 8.01378871,41.7307172 C8.33623347,42.6269456 8.65548886,43.5241041 8.98463129,44.4178525 C9.07329562,44.6584174 9.2681658,44.8035004 9.52427178,44.8555815 C9.63494273,44.8779019 9.75231134,44.8748019 9.86680953,44.8748019 C20.8270609,44.8754219 31.7876312,44.8754219 42.7478826,44.8754219 C42.7944473,44.8754219 42.8416499,44.8763519 42.8885336,44.8751119 C43.298048,44.8651917 43.5375692,44.6980982 43.6734362,44.3236105 C43.9738743,43.4946535 44.2727178,42.6656964 44.5718802,41.8364294 C44.5875081,41.7924085 44.5973951,41.7459075 44.6152555,41.6826662 L44.4060332,41.6826662 C43.4415694,41.6826662 42.4764676,41.6835962 41.5120038,41.6820462 C41.1480973,41.6814262 40.8655196,41.4851922 40.7634599,41.1696057 C40.6046296,40.6801056 40.9669414,40.2104459 41.5120038,40.2088959 C42.6643212,40.2057958 43.8166386,40.2079659 44.969275,40.2079659 L45.1571286,40.2079659 C45.5417659,39.1412339 45.9219382,38.0850422 46.3046619,37.0220304 L6.31959825,37.0220304 C6.3349072,37.0700813 6.34606997,37.1085221 6.35946531,37.1463429 C6.70455455,38.1042626 7.05474678,39.0606323 7.39026794,40.0216521 C7.44448713,40.1766552 7.51816146,40.212616 7.67571607,40.211686 C8.87491715,40.2048658 10.0741182,40.2092059 11.2733193,40.2070359 C11.5287874,40.2067259 11.7475778,40.2854675 11.9064082,40.4801515 C12.0961754,40.7132763 12.1369992,40.9770917 12.0087868,41.2498973 C11.8713252,41.5413033 11.6238305,41.6811162 11.2972395,41.6817362 C10.2651612,41.6835962 9.23276385,41.6826662 8.2000476,41.6826662 L8.01857276,41.6826662 Z M24.8300324,31.4530758 L24.8300324,29.5939676 L24.6345243,29.5939676 C20.8229147,29.5939676 17.0109862,29.5939676 13.1993766,29.5936576 C12.7235234,29.5933476 12.3902348,29.2582307 12.4183012,28.7991112 C12.4348859,28.5250656 12.584786,28.3294516 12.8322807,28.1980089 C13.197144,28.0039449 13.5699807,27.8210411 13.920173,27.6037266 C15.0265635,26.9173725 15.9801836,26.0574148 16.8470528,25.1047652 C18.9781863,22.762047 20.5935994,20.0953722 22.0202022,17.3099649 C23.0538752,15.2908934 23.9778342,13.2262509 24.7761321,11.1085973 C24.8124909,11.0115653 24.8344975,10.9033731 24.8348164,10.800451 C24.8383247,9.11277629 24.83673,7.42479157 24.8376869,5.73711686 C24.8376869,5.34805886 25.1126101,5.06037294 25.5288222,5.00550181 C25.8691274,4.96055089 26.2288877,5.19584572 26.3201035,5.53561271 C26.3500835,5.646595 26.3574191,5.76594745 26.357738,5.88126982 C26.3599706,7.38170069 26.3606084,8.88182154 26.3567812,10.3819424 C26.3564623,10.5025349 26.3886748,10.5657762 26.508276,10.6225073 C27.1751722,10.9393339 27.7419222,11.3928732 28.2774166,11.8845433 C29.3720065,12.890204 30.3237129,14.0180072 31.2243894,15.1870412 C33.133862,17.6649222 34.8280525,20.280446 36.451439,22.9412307 C38.1207524,25.678277 39.6921524,28.4677144 41.194981,31.2937325 C41.2571736,31.4109149 41.3247881,31.4571059 41.4673527,31.4571059 C44.2258341,31.4518358 46.9839966,31.4533858 49.742478,31.4524558 C50.0652417,31.4524558 50.3481384,31.5358475 50.5034604,31.8309736 C50.5697992,31.9565262 50.6099852,32.1096693 50.610942,32.2507222 C50.6185965,33.5784795 50.6166829,34.9065468 50.6150882,36.2343042 C50.6147692,36.6980737 50.289773,37.0145902 49.8091357,37.0173803 C49.2360069,37.0207903 48.6622402,37.0226504 48.0887925,37.0152102 C47.9564339,37.0133502 47.9028525,37.054891 47.8594772,37.1754835 C46.947,39.7169158 46.0297387,42.256488 45.1124775,44.7960603 C44.7565444,45.7818805 43.9311368,46.3498122 42.8575967,46.3498122 C31.8243089,46.3501222 20.7903832,46.3501222 9.75677645,46.3498122 C8.68164165,46.3498122 7.86197496,45.7825006 7.505404,44.7929602 C6.58814275,42.2478078 5.67024362,39.7032755 4.75712854,37.1571931 C4.71821829,37.0493109 4.67420506,37.0093201 4.55237134,37.0108701 C3.96839868,37.0180003 3.38442603,37.0142802 2.80045337,37.0139702 C2.34246062,37.0136602 2.00757734,36.714814 2.00566372,36.2721249 C1.99832818,34.9037568 1.99800925,33.5353886 2.00534478,32.1667105 C2.0072584,31.7618422 2.33927126,31.4738462 2.78705804,31.4536958 C2.84956959,31.4512158 2.91208113,31.4530758 2.97491162,31.4530758 L24.5937005,31.4530758 L24.8300324,31.4530758 Z" id="Fill-4" fill="#FFFFFF"></path>
        <path d="M19.3193291,40.3635372 C19.0798078,40.3306766 18.8275291,40.3328466 18.6036357,40.256275 C18.2566328,40.1378526 18.0955699,39.7838253 18.1717957,39.4254579 C18.2371777,39.1188616 18.5414431,38.8705465 18.8807915,38.8618663 C19.1825054,38.8538062 19.485495,38.8525662 19.7875278,38.8621764 C20.1858795,38.8748866 20.5032212,39.1948132 20.5134272,39.5792211 C20.5236332,39.9549488 20.2295737,40.2882057 19.8388766,40.3254064 C19.6688835,40.3415268 19.495382,40.3281965 19.3237942,40.3281965 C19.3221995,40.3399767 19.3209238,40.351757 19.3193291,40.3635372" id="Fill-12" fill="#FFFFFF"></path>
        <path d="M34.451666,38.8572849 C34.59742,38.8572849 34.7434929,38.8526348 34.8892469,38.857905 C35.294934,38.8727853 35.6122758,39.1862017 35.6275848,39.5817698 C35.6419369,39.9534675 35.3274656,40.3022247 34.9297518,40.3245451 C34.607626,40.3428355 34.2832676,40.3425255 33.9608228,40.3248551 C33.563747,40.3034647 33.2540597,39.9612177 33.2620331,39.5833199 C33.2696875,39.1939519 33.593408,38.8730953 33.9981384,38.858215 C34.1493143,38.8526348 34.3001712,38.8572849 34.451666,38.8572849" id="Fill-14" fill="#FFFFFF"></path>
        <path d="M24.0967656,40.366518 C23.8521413,40.3317973 23.5957164,40.3311773 23.36672,40.2536757 C23.0401291,40.1436234 22.8761958,39.7964163 22.9367937,39.4622294 C22.995478,39.1401328 23.2882617,38.8778674 23.6311184,38.8645371 C23.9433571,38.8524469 24.2565527,38.8524469 24.5684726,38.8639171 C24.9763923,38.8791074 25.2832092,39.2067841 25.2809766,39.6045223 C25.2787441,40.0000905 24.967781,40.3144369 24.5547583,40.3330373 C24.4039014,40.3398574 24.2524066,40.3342773 24.1015496,40.3342773 C24.0999549,40.3448175 24.0983603,40.3556678 24.0967656,40.366518" id="Fill-16" fill="#FFFFFF"></path>
        <path d="M29.6613681,40.3669461 C29.4170628,40.3316054 29.1612757,40.3297454 28.9319604,40.2522438 C28.6130239,40.1446715 28.4398415,39.7841341 28.5039477,39.4738177 C28.5753894,39.1278506 28.8522263,38.8773655 29.2036943,38.8643452 C29.5159331,38.852875 29.8291287,38.851945 30.1413675,38.8643452 C30.5473736,38.8804655 30.8580177,39.2152724 30.8506821,39.6083605 C30.8436655,40.0048587 30.5317457,40.3167251 30.1196798,40.3334654 C29.9688228,40.3393556 29.817328,40.3343954 29.6664711,40.3343954 C29.6648764,40.3452457 29.6632817,40.3560959 29.6613681,40.3669461" id="Fill-18" fill="#FFFFFF"></path>
    </g>
</svg>
