<?xml version="1.0" encoding="UTF-8"?>
<svg width="52px" height="52px" viewBox="0 0 52 52" version="1.1" xmlns="http://www.w3.org/2000/svg" xmlns:xlink="http://www.w3.org/1999/xlink">
    <!-- Generator: Sketch 50.2 (55047) - http://www.bohemiancoding.com/sketch -->
    <title>bundle-icon</title>
    <desc>Created with Sketch.</desc>
    <defs></defs>
    <g id="bundle-icon" stroke="none" stroke-width="1" fill="none" fill-rule="evenodd" stroke-linecap="round" stroke-linejoin="round">
        <path d="M4.53576154,17.2841306 L47.5370845,17.2841306 C48.3852622,17.2841306 49.0728461,17.9717145 49.0728461,18.8198922 L49.0728461,26.4986999 L3,26.4986999 L3,18.8198922 C3,17.9717145 3.68758386,17.2841306 4.53576154,17.2841306 Z M46.001323,26.4986999 L46.001323,46.4635998 C46.001323,47.3117775 45.3137391,47.9993613 44.4655615,47.9993613 L7.60728461,47.9993613 C6.75910693,47.9993613 6.07152307,47.3117775 6.07152307,46.4635998 L6.07152307,26.4986999 M26.036423,17.2841306 L26.036423,47.9993613 M29.8573977,17.2841306 C29.2527935,17.3293921 28.6553018,17.1302282 28.1987753,16.7312565 C26.3128601,14.8330552 29.7345368,8.32142632 31.6143089,6.42322507 C32.5175007,5.51236526 33.747103,5 35.0298426,5 C36.3125822,5 37.5421845,5.51236526 38.4453762,6.42322507 C40.3326566,8.32596568 40.3326566,11.3945531 38.4453762,13.2972937 C36.0369083,15.4500024 33.0438312,16.8396453 29.8451116,17.2902737 L22.2154483,17.2902737 C19.0167287,16.8396453 16.0236517,15.4500024 13.6151837,13.2972937 C11.7279034,11.3945531 11.7279034,8.32596568 13.6151837,6.42322507 C14.5183755,5.51236526 15.7479778,5 17.0307174,5 C18.313457,5 19.5430593,5.51236526 20.446251,6.42322507 C22.3505953,8.3183548 25.7630575,14.8269122 23.8863569,16.7312565 C23.4298304,17.1302282 22.8323387,17.3293921 22.2277344,17.2841306" id="gift-box" stroke="#FFFFFF" stroke-width="2"></path>
    </g>
</svg>