<?xml version="1.0" encoding="UTF-8"?>
<svg width="79px" height="39px" viewBox="0 0 79 39" version="1.1" xmlns="http://www.w3.org/2000/svg" xmlns:xlink="http://www.w3.org/1999/xlink">
    <!-- Generator: Sketch 50.2 (55047) - http://www.bohemiancoding.com/sketch -->
    <title>car-ins</title>
    <desc>Created with Sketch.</desc>
    <defs>
        <polygon id="path-1" points="0 0 78.9145344 0 78.9145344 39.085 0 39.085"></polygon>
    </defs>
    <g id="car-ins" stroke="none" stroke-width="1" fill="none" fill-rule="evenodd">
        <g id="Group">
            <mask id="mask-2" fill="white">
                <use xlink:href="#path-1"></use>
            </mask>
            <g id="Clip-2"></g>
            <path d="M1.816,24.945 L3.552,24.945 L3.552,20.536 L1.816,20.536 L1.816,24.945 Z M72.443,20.288 C72.614,21.118 72.786,21.897 72.929,22.682 C72.968,22.896 73.049,22.949 73.252,22.947 C74.227,22.938 75.204,22.944 76.18,22.942 C76.256,22.942 76.334,22.928 76.436,22.919 C76.105,22.187 75.762,21.496 75.481,20.78 C75.325,20.384 75.117,20.251 74.69,20.276 C73.958,20.319 73.221,20.288 72.443,20.288 Z M8.898,31.158 L2.888,31.158 C3.258,31.708 3.606,32.212 3.94,32.724 C4.036,32.871 4.137,32.928 4.318,32.927 C5.8,32.913 7.283,32.911 8.766,32.903 C8.852,32.903 8.938,32.89 9.003,32.884 C8.967,32.294 8.933,31.736 8.898,31.158 Z M16.838,13.359 L19.502,13.359 C19.021,11.521 18.549,9.719 18.077,7.918 C17.881,7.172 17.88,7.182 17.13,7.17 C16.879,7.166 16.803,7.233 16.805,7.492 C16.826,9.372 16.829,11.252 16.838,13.132 C16.838,13.205 16.838,13.278 16.838,13.359 Z M38.991,13.29 C38.971,13.195 38.959,13.116 38.939,13.039 C38.804,12.514 38.669,11.99 38.532,11.466 C38.177,10.098 37.825,8.73 37.464,7.363 C37.44,7.269 37.367,7.12 37.308,7.115 C36.984,7.091 36.657,7.103 36.338,7.103 C36.338,9.159 36.338,11.148 36.336,13.136 C36.336,13.317 36.444,13.317 36.572,13.317 C37.308,13.316 38.046,13.317 38.782,13.315 C38.843,13.315 38.906,13.301 38.991,13.29 Z M67.328,32.703 C67.392,32.706 67.473,32.715 67.554,32.715 C70.263,32.711 72.972,32.707 75.681,32.702 C75.727,32.702 75.784,32.718 75.817,32.698 C75.879,32.661 75.964,32.608 75.972,32.551 C76.053,32.018 76.12,31.483 76.19,30.948 L67.437,30.948 C67.399,31.55 67.364,32.117 67.328,32.703 Z M52.327,30.99 C42.881,31.023 33.438,31.057 24.006,31.091 C23.969,31.703 23.934,32.275 23.898,32.861 C33.422,32.828 42.939,32.794 52.434,32.76 C52.398,32.165 52.364,31.597 52.327,30.99 Z M54.125,31.392 C54.108,34.56 56.673,37.183 59.824,37.178 C63.15,37.173 65.607,34.537 65.638,31.463 C65.67,28.311 63.106,25.602 59.73,25.653 C56.735,25.698 54.108,28.219 54.125,31.392 Z M16.386,37.307 C19.609,37.315 22.196,34.772 22.21,31.584 C22.224,28.391 19.646,25.799 16.45,25.793 C13.276,25.786 10.723,28.346 10.689,31.524 C10.655,34.714 13.353,37.368 16.386,37.307 Z M30.09,1.847 C29.978,1.841 29.898,1.831 29.818,1.831 C24.93,1.842 20.044,1.853 15.157,1.856 C14.932,1.857 14.837,1.934 14.754,2.13 C13.431,5.222 12.102,8.312 10.774,11.402 C10.493,12.058 10.213,12.716 9.932,13.371 L15.046,13.371 L15.046,5.413 L19.252,5.413 C19.277,5.494 19.304,5.571 19.326,5.651 C19.972,8.132 20.622,10.611 21.258,13.093 C21.316,13.317 21.407,13.377 21.63,13.376 C24.369,13.359 27.108,13.353 29.846,13.345 L30.09,13.345 L30.09,1.847 Z M55.938,13.259 C55.862,13.173 55.834,13.137 55.802,13.105 C52.179,9.376 48.557,5.645 44.928,1.921 C44.845,1.837 44.691,1.781 44.57,1.781 C40.439,1.785 36.308,1.796 32.177,1.807 C32.08,1.807 31.982,1.816 31.898,1.82 L31.898,13.315 L34.564,13.315 L34.564,5.347 C34.696,5.347 34.805,5.347 34.915,5.346 C36.067,5.342 37.219,5.346 38.372,5.323 C38.669,5.317 38.793,5.391 38.87,5.697 C39.493,8.145 40.141,10.587 40.769,13.034 C40.826,13.251 40.915,13.301 41.124,13.3 C43.328,13.288 45.531,13.287 47.735,13.283 L48.039,13.283 C48.279,12.172 48.513,11.089 48.753,9.985 C49.348,10.114 49.91,10.236 50.48,10.359 C50.27,11.344 50.067,12.3 49.863,13.259 L55.938,13.259 Z M1.824,29.374 C1.889,29.381 1.933,29.388 1.978,29.388 C4.33,29.381 6.68,29.369 9.032,29.368 C9.212,29.368 9.266,29.284 9.316,29.142 C10.584,25.543 14.147,23.426 17.858,24.159 C20.637,24.708 22.527,26.382 23.535,29.032 C23.621,29.257 23.716,29.334 23.963,29.332 C29.376,29.305 34.789,29.29 40.201,29.27 C44.277,29.256 48.352,29.238 52.428,29.227 C52.596,29.227 52.689,29.194 52.746,29.018 C53.15,27.773 53.84,26.704 54.824,25.845 C56.959,23.982 59.42,23.41 62.129,24.233 C64.541,24.967 66.139,26.618 67.005,28.977 C67.061,29.129 67.128,29.172 67.279,29.172 C70.257,29.159 73.236,29.149 76.214,29.145 C76.402,29.145 76.464,29.084 76.489,28.897 C76.602,28.012 76.735,27.13 76.857,26.246 C76.926,25.749 76.989,25.25 77.059,24.717 L76.695,24.717 C75.063,24.722 73.43,24.726 71.798,24.737 C71.617,24.738 71.53,24.709 71.489,24.499 C71.21,23.064 70.911,21.634 70.619,20.202 C70.507,19.656 70.397,19.111 70.277,18.521 L74.442,18.521 C74.098,17.761 73.781,17.051 73.45,16.347 C73.421,16.286 73.306,16.239 73.227,16.232 C72.447,16.167 71.666,16.112 70.885,16.051 C69.893,15.975 68.901,15.895 67.91,15.816 C66.615,15.712 65.32,15.606 64.026,15.502 C62.961,15.416 61.896,15.329 60.831,15.246 C59.811,15.166 58.792,15.02 57.772,15.022 C41.488,15.062 25.204,15.122 8.92,15.178 C8.793,15.178 8.663,15.193 8.539,15.221 C7.141,15.544 5.746,15.872 4.35,16.196 C3.502,16.394 2.652,16.589 1.801,16.785 L1.801,18.752 L5.326,18.752 L5.326,26.739 L1.824,26.739 L1.824,29.374 Z M29.647,0.005 C34.838,0.005 40.029,0.006 45.22,0 C45.44,0 45.592,0.059 45.748,0.218 C49.898,4.491 54.055,8.757 58.207,13.028 C58.378,13.204 58.549,13.286 58.798,13.304 C60.865,13.458 62.931,13.629 64.997,13.795 C67.293,13.979 69.588,14.164 71.883,14.35 C72.727,14.419 73.573,14.486 74.416,14.569 C74.507,14.578 74.63,14.667 74.669,14.751 C76.071,17.819 77.466,20.89 78.856,23.965 C78.906,24.075 78.925,24.217 78.909,24.337 C78.683,25.977 78.447,27.616 78.217,29.257 C78.005,30.768 77.792,32.281 77.592,33.795 C77.505,34.45 77.52,34.455 76.849,34.457 C73.586,34.468 70.322,34.479 67.057,34.479 C66.818,34.479 66.712,34.563 66.604,34.767 C65.367,37.125 63.432,38.537 60.791,38.884 C57.581,39.305 54.57,37.649 53.131,34.735 C53.038,34.545 52.915,34.53 52.739,34.531 C43.362,34.567 33.984,34.6 24.607,34.634 C24.248,34.635 23.887,34.642 23.528,34.634 C23.383,34.632 23.301,34.67 23.23,34.81 C22.058,37.143 20.186,38.593 17.612,38.984 C14.863,39.402 12.521,38.522 10.697,36.398 C10.311,35.949 10.022,35.414 9.716,34.901 C9.617,34.735 9.527,34.671 9.336,34.672 C7.363,34.686 5.389,34.688 3.416,34.704 C3.209,34.706 3.088,34.646 2.971,34.47 C2.051,33.081 1.118,31.701 0.2,30.31 C0.106,30.168 0.046,29.973 0.045,29.803 C0.025,25.092 0.017,20.381 0,15.669 C0,15.454 0.059,15.373 0.275,15.324 C2.729,14.76 5.179,14.182 7.632,13.616 C7.849,13.566 7.968,13.468 8.058,13.257 C9.892,8.964 11.738,4.676 13.573,0.383 C13.667,0.164 13.776,0.086 14.018,0.086 C19.227,0.093 24.437,0.092 29.647,0.092 L29.647,0.005 Z" id="Fill-1" fill="#FEFEFE" mask="url(#mask-2)"></path>
            <path d="M39.0094,19.5027 L34.5954,19.5027 L34.5954,17.7787 C34.6774,17.7737 34.7654,17.7637 34.8544,17.7637 C36.1344,17.7567 37.4154,17.7587 38.6964,17.7387 C38.9574,17.7347 39.0244,17.8167 39.0144,18.0657 C38.9954,18.5337 39.0094,19.0037 39.0094,19.5027" id="Fill-3" fill="#FEFEFE" mask="url(#mask-2)"></path>
        </g>
    </g>
</svg>