<?xml version="1.0" encoding="UTF-8"?>
<svg width="52px" height="52px" viewBox="0 0 52 52" version="1.1" xmlns="http://www.w3.org/2000/svg" xmlns:xlink="http://www.w3.org/1999/xlink">
    <!-- Generator: Sketch 50.2 (55047) - http://www.bohemiancoding.com/sketch -->
    <title>classic</title>
    <desc>Created with Sketch.</desc>
    <defs>
        <polygon id="path-1" points="0 0.0524054983 51.9938443 0.0524054983 51.9938443 19.2307692 0 19.2307692"></polygon>
    </defs>
    <g id="classic" stroke="none" stroke-width="1" fill="none" fill-rule="evenodd">
        <g id="Group-3" transform="translate(0.000000, 17.000000)">
            <mask id="mask-2" fill="white">
                <use xlink:href="#path-1"></use>
            </mask>
            <g id="Clip-2"></g>
            <path d="M13.0403276,18.162272 C13.9025149,18.1753569 14.6629743,17.9072495 15.3771466,17.3382567 C16.6123576,16.3542493 17.0704899,14.6982223 16.520822,13.2039717 C16.2669243,12.5135805 15.8800729,11.9409529 15.2073189,11.6010772 C14.2380804,11.1114526 13.2172315,11.0016852 12.163209,11.1660389 C11.7820055,11.2255155 11.3978157,11.3044872 11.0575111,11.5145718 C9.73530886,12.3308551 9.10890687,13.9513283 9.52386816,15.4717486 C9.95057978,17.0351242 11.3783401,18.1782646 13.0403276,18.162272 M41.6422102,18.1619416 C43.652033,18.1747621 45.2987645,16.5575932 45.3146047,14.5556767 C45.3308345,12.4939532 43.7057858,10.8235197 41.6683725,10.8309873 C39.6273238,10.838521 38.0675186,12.4943497 38.0094162,14.3507468 C37.9403426,16.5601044 39.6973064,18.1810402 41.6422102,18.1619416 M2.25048989,14.275608 C2.27769089,14.2804983 2.29814032,14.2873711 2.31865468,14.2873711 C4.01706167,14.2880981 5.71553358,14.2890893 7.41394057,14.284133 C7.45828015,14.2840008 7.52222522,14.2279606 7.54345368,14.1819654 C7.68562597,13.8742731 7.79871461,13.5511829 7.95815531,13.2536016 C8.61403046,12.0291766 9.52425768,11.0716032 10.8171166,10.5460283 C11.8404974,10.1300886 12.9045823,10.0595096 13.9872989,10.2261763 C15.4419356,10.4500066 16.6012564,11.1831549 17.5015511,12.3557031 C18.1482077,13.1978919 18.5829693,14.1497158 18.8854911,15.1672284 C18.9258707,15.3030994 18.9809868,15.3545797 19.1287421,15.3545136 C24.7650617,15.3500198 30.4015111,15.3514076 36.0378307,15.3456582 C36.144817,15.345526 36.2768619,15.2976804 36.3546347,15.2249868 C36.7830342,14.8246431 37.0012914,14.3193563 37.1102252,13.7354943 C37.6134112,11.0384285 40.0958432,9.49910785 42.5793788,9.95542559 C44.5075336,10.309774 46.1954886,11.9671887 46.3824549,14.1516984 C46.3957633,14.3073949 46.4371815,14.4560204 46.5907146,14.5151665 C46.8809668,14.6269826 47.1757633,14.7986717 47.4728969,14.8079897 C48.5806722,14.8428826 49.6902002,14.8204137 50.7990792,14.8243788 C50.9122976,14.8248414 50.9476135,14.775608 50.93437,14.6778681 C50.8658806,14.17311 50.6980005,13.7070116 50.2844674,13.3964777 C49.8821004,13.0943365 49.629566,12.710382 49.4896659,12.229811 C49.3859905,11.8738766 49.4072839,11.5120605 49.3974811,11.149848 C49.3737208,10.2801679 49.0443226,9.5588488 48.3981203,8.97895189 C47.8634487,8.49910785 47.2531466,8.1565226 46.6011016,7.88306238 C45.1727571,7.28393471 43.6714437,6.98093444 42.1469543,6.7977465 C41.0747546,6.66888052 39.9956734,6.59949114 38.9204225,6.49428364 C37.8510142,6.3896709 36.7796584,6.29715173 35.7147296,6.15493656 C34.859164,6.0406093 34.0165823,5.84208961 33.2229493,5.47663891 C32.627968,5.20258393 32.1207571,4.81922416 31.8117433,4.21784959 C31.2417558,3.10841264 30.4028744,2.29926646 29.2717933,1.80230637 C28.1625898,1.31499471 26.9946996,1.13226936 25.798375,1.11409596 C24.2827146,1.09116442 22.7745199,1.20344303 21.2708045,1.39872456 C19.7798782,1.59242004 18.3158282,1.91068596 16.8720979,2.33092123 C13.5422801,3.30012556 10.4827196,4.82451097 7.72159101,6.9584655 C6.22040749,8.11872191 4.85808539,9.42535686 3.71596804,10.9580029 C3.17623271,11.682428 2.69395056,12.4434642 2.38805293,13.3062054 C2.27749613,13.6178628 2.20628015,13.9354679 2.25048989,14.275608 M46.2661853,15.6262556 C45.6418607,17.7232025 44.2585049,19.0255419 42.0727521,19.1931998 C39.6125223,19.382005 37.9750092,18.1399352 37.0973064,15.8129461 C37.0382302,15.8895387 36.9712989,15.9814631 36.899239,16.0690259 C36.7419406,16.260078 36.5501054,16.3609239 36.2941303,16.3607256 C30.3975511,16.3572231 24.5009069,16.3580822 18.6043276,16.357884 C18.2473388,16.357884 18.0166821,16.1268504 17.9475436,15.7261102 C17.9058657,15.4848335 17.8415311,15.247654 17.7846622,14.9965966 C17.2553788,17.5669773 15.7738007,19.0506542 13.1800979,19.2210878 C11.9272939,19.3034298 10.81043,18.8576857 9.87313159,17.9946141 C8.93830012,17.1338554 8.44426767,16.0484073 8.35247241,14.7979448 C8.26619526,14.9349392 8.19945868,15.098566 8.08299426,15.2069455 C7.9932764,15.2904771 7.84052235,15.3451956 7.71691685,15.343147 C6.62452734,15.3251718 5.53246242,15.2907415 4.44013783,15.2628536 C3.43441498,15.2372125 2.42862722,15.2101176 1.42277453,15.1904243 C0.784297628,15.1779342 0.271893134,14.8500859 0.0930416979,14.3044211 C0.0391590512,14.1402657 0.0141652934,13.9624306 0.00183071161,13.7889572 C-0.0147885144,13.553562 0.0803825218,13.396742 0.302340075,13.3437417 C0.557341323,13.2828773 0.823248939,13.2705855 1.08298926,13.2280267 C1.13434007,13.2196339 1.20919151,13.1795202 1.22249988,13.137424 C1.5332015,12.1542757 2.07858477,11.3048176 2.68142122,10.4907811 C3.68967591,9.12916336 4.8794437,7.9465041 6.17450986,6.87116706 C9.11007541,4.43381575 12.411199,2.69042427 16.0126372,1.52408803 C17.5258307,1.03406688 19.0691466,0.660884219 20.6403126,0.429520222 C21.5909843,0.289485858 22.549576,0.192472905 23.5077783,0.122885276 C24.3158881,0.0642677769 25.1294512,0.0391554322 25.9391191,0.0591792228 C27.522425,0.0984337827 29.0510692,0.392512556 30.436827,1.23265266 C31.2786946,1.74309411 31.9580704,2.42357256 32.4818357,3.26642215 C32.6029743,3.46143933 32.7248919,3.65665477 32.857586,3.84367565 C33.1508245,4.25683981 33.5868195,4.45278218 34.0385248,4.61356727 C34.7495161,4.86667328 35.488033,5.00558419 36.232003,5.10153978 C37.0033039,5.20106397 37.7783051,5.27263415 38.5527221,5.34387391 C39.3429144,5.41656754 40.1351191,5.46626355 40.9252464,5.5397502 C42.901636,5.72353291 44.8609518,6.00274253 46.7294462,6.72915015 C47.7749643,7.1356397 48.7297258,7.69082078 49.4925223,8.54814301 C50.1641728,9.30296722 50.4711091,10.1906225 50.452023,11.2025839 C50.4488419,11.3729514 50.4327421,11.5454335 50.4522826,11.7134219 C50.492792,12.06136 50.6725523,12.318299 50.9337858,12.5568002 C51.5617458,13.1301546 51.9679431,13.8405036 51.9933263,14.7223434 C52.0119581,15.368788 51.5257159,15.8714975 50.889576,15.8759252 C49.7103251,15.8840537 48.5304899,15.8974689 47.3519531,15.8667394 C46.9899006,15.8572892 46.6312889,15.7109767 46.2661853,15.6262556" id="Fill-1" fill="#FFFFFF" mask="url(#mask-2)"></path>
            <path d="M19.5147171,5.88544806 L19.5147171,3.56024319 C18.4849743,3.78572561 17.488405,4.07081681 16.5629868,4.55323817 C16.0903775,4.79960349 15.651591,5.11522601 15.2064424,5.41333598 C15.0288245,5.53228919 15.0439506,5.71745969 15.230787,5.81856992 C15.3216085,5.86773725 15.4360604,5.89225482 15.5399306,5.89265133 C16.8209743,5.89747555 18.102018,5.89588951 19.3831266,5.89536082 C19.4248694,5.89536082 19.4667421,5.88921491 19.5147171,5.88544806 Z M30.6096734,5.75400476 C30.3694737,5.38498546 30.1548519,5.06883426 29.953993,4.74382765 C29.4152964,3.87242929 28.5966047,3.44961671 27.6424924,3.25810204 C26.8282152,3.09473962 25.9983576,3.06751256 25.1730442,3.08244779 C24.0824724,3.10220724 22.9922901,3.16604547 21.9031466,3.2302802 C21.4631266,3.25618557 21.025963,3.33324081 20.5858782,3.38723236 L20.5858782,5.89582342 L20.724415,5.89582342 C23.790013,5.89582342 26.855611,5.898599 29.921209,5.88994185 C30.1405049,5.88934708 30.359606,5.80555115 30.6096734,5.75400476 Z M20.2360305,6.89549299 C20.2081803,7.0770949 20.157998,7.25374042 20.1574137,7.43051811 C20.151636,9.20906688 20.1539081,10.9876817 20.154038,12.7662305 C20.154038,12.8157943 20.1522851,12.8656886 20.1571541,12.9147898 C20.1785124,13.1319455 20.2464175,13.2003436 20.4612989,13.2196405 C20.5419281,13.2269099 20.6230767,13.2308089 20.7040305,13.2308089 C24.7068619,13.2313376 28.7098232,13.2317341 32.7126547,13.2298176 C32.8960504,13.2297515 33.0834712,13.2291568 33.2617383,13.1924134 C33.4865523,13.1460878 33.7067571,13.0704203 33.9220929,12.9884748 C33.9713014,12.9697727 34.0215486,12.8732884 34.0208994,12.813217 C34.0174587,12.5108115 33.9866871,12.2086704 33.9851291,11.906331 C33.9800005,10.8711737 33.9667571,9.83561988 33.9909069,8.80105736 C34.0010342,8.36694422 33.8369843,8.05158604 33.5432265,7.77297119 C32.9442202,7.20510177 32.2281653,6.83740418 31.481209,6.52429289 C31.4222627,6.49957706 31.3318956,6.50942374 31.2717808,6.53764208 C30.7654137,6.77521808 30.245219,6.90401798 29.6780879,6.90163891 C26.6110617,6.88875231 23.5439056,6.89549299 20.4768794,6.89549299 L20.2360305,6.89549299 Z M19.1563001,7.00704467 L18.9960804,7.00704467 C17.8710367,7.00697859 16.7459281,7.00539255 15.6208195,7.00790378 C15.2553913,7.00876289 14.9138532,6.93778747 14.612435,6.71395718 C13.9395511,6.21422152 13.92436,5.2631245 14.5744574,4.73100714 C15.3705573,4.07954005 16.2679955,3.61919112 17.2195111,3.26041501 C18.4488145,2.796894 19.722782,2.52171557 21.0170042,2.32656622 C22.3625124,2.12361882 23.7154212,2.04491145 25.0733938,2.053106 C26.0191316,2.05885541 26.9701928,2.06361353 27.897234,2.27310336 C28.8202502,2.48166799 29.714767,2.78453608 30.3725248,3.53896379 C30.5726697,3.76841131 30.7494437,4.02052604 30.9227121,4.27237642 C31.1580429,4.61449907 31.3849993,4.9629659 31.6047496,5.31566217 C31.6925199,5.45655564 31.7987271,5.55006609 31.9520005,5.61344171 C32.5885298,5.87665874 33.1978582,6.19472641 33.7606397,6.5988369 C34.1516459,6.8795004 34.5070767,7.19862543 34.7741528,7.60927835 C34.9857233,7.93468147 35.0879705,8.29002115 35.0866722,8.68170764 C35.0829718,9.83231562 35.0816085,10.9829236 35.0885548,12.1335316 C35.0902427,12.407124 35.1249094,12.6807824 35.1497733,12.9538462 C35.1711316,13.188184 35.0896584,13.3849194 34.9502777,13.5625562 C34.6525598,13.9418847 34.2409094,14.1120539 33.7894637,14.1875892 C33.4760355,14.2399947 33.1568295,14.2840735 32.8400904,14.2846022 C28.7237159,14.2909463 24.6074062,14.289096 20.4910966,14.2885673 C19.7143426,14.2885012 19.2361503,13.8375363 19.1750617,13.0482157 C19.163636,12.9002511 19.1573388,12.7514935 19.157209,12.6030663 C19.1559106,11.143907 19.156365,9.68474755 19.1563001,8.22558816 L19.1563001,7.00704467 Z" id="Fill-4" fill="#FFFFFF" mask="url(#mask-2)"></path>
            <path d="M41.6623805,16.0935964 C42.515609,16.0930677 43.2370522,15.3886664 43.2325079,14.560686 C43.227639,13.7007203 42.5265803,13.0069588 41.6645228,13.0092717 C40.8280434,13.0114526 40.0991995,13.7208763 40.0969923,14.5349789 C40.0945903,15.4164882 40.7751995,16.0941911 41.6623805,16.0935964 M41.6622507,17.1009318 C40.203589,17.1009979 39.0325828,15.9198586 39.0543306,14.4211803 C39.0743256,13.0455525 40.1965129,11.9032051 41.6601084,11.8981166 C43.1029948,11.8930941 44.2757538,13.0861287 44.2725079,14.5477994 C44.2693268,15.9509847 43.0937114,17.1009318 41.6622507,17.1009318" id="Fill-6" fill="#FFFFFF" mask="url(#mask-2)"></path>
            <path d="M14.6121363,14.5713785 C14.6159665,13.7036809 13.9339291,13.016594 13.0615496,13.0091924 C12.2356519,13.0022535 11.4914871,13.7103555 11.4872674,14.5072099 C11.4825283,15.4014737 12.1397019,16.0888911 13.0039016,16.0935831 C13.8917968,16.0984073 14.608371,15.4201758 14.6121363,14.5713785 M10.4439566,14.4843444 C10.4114322,13.1054124 11.559587,11.9356397 12.9831925,11.8973764 C14.4599665,11.8577254 15.6449953,12.9959754 15.6563561,14.5203608 C15.6666132,15.8921557 14.601165,17.0062847 13.2222886,17.0983413 C11.675597,17.2015662 10.4146782,15.9248017 10.4439566,14.4843444" id="Fill-8" fill="#FFFFFF" mask="url(#mask-2)"></path>
        </g>
    </g>
</svg>
