<?xml version="1.0" encoding="UTF-8"?>
<svg width="52px" height="52px" viewBox="0 0 52 52" version="1.1" xmlns="http://www.w3.org/2000/svg" xmlns:xlink="http://www.w3.org/1999/xlink">
    <!-- Generator: Sketch 50.2 (55047) - http://www.bohemiancoding.com/sketch -->
    <title>clean-driving-icon</title>
    <desc>Created with Sketch.</desc>
    <defs></defs>
    <g id="clean-driving-icon" stroke="none" stroke-width="1" fill="none" fill-rule="evenodd" stroke-linecap="round" stroke-linejoin="round">
        <path d="M28.9348381,35.2349499 C27.2586757,35.980156 25.3452268,35.980156 23.6690643,35.2349499 C16.4028242,32.0041602 11.7206328,24.7973698 11.7214287,16.8452476 L11.7214287,4 L40.8857143,4 L40.8857143,16.8452476 C40.885941,24.7981333 36.2023452,32.0051306 28.9348381,35.2349499 Z M18.202381,42.8857141 L34.4047619,42.8857141 L34.4047619,49.3666665 L18.202381,49.3666665 L18.202381,42.8857141 Z M23.0630953,42.8857141 L23.0630953,34.9465475 L23.0630953,42.8857141 Z M29.5440477,42.8857141 L29.5440477,34.9465475 L29.5440477,42.8857141 Z M11.7214287,7.24047618 L2,7.24047618 L2.00000016,9.89766664 C1.99905474,16.7479568 6.30635305,22.858612 12.7583811,25.1603094 L13.6333096,25.4519523 M40.8857143,7.24047618 L50.607143,7.24047618 L50.6071428,9.89766664 C50.6080882,16.7479568 46.3007899,22.858612 39.8487619,25.1603094 L38.9738333,25.4519523" id="trophy" stroke="#FFFFFF" stroke-width="2"></path>
    </g>
</svg>