<?xml version="1.0" encoding="UTF-8"?>
<svg width="86px" height="45px" viewBox="0 0 86 45" version="1.1" xmlns="http://www.w3.org/2000/svg" xmlns:xlink="http://www.w3.org/1999/xlink">
    <!-- Generator: Sketch 50.2 (55047) - http://www.bohemiancoding.com/sketch -->
    <title>commerical-auto</title>
    <desc>Created with Sketch.</desc>
    <defs>
        <polygon id="path-1" points="0.000360946746 0.512 86.031 0.512 86.031 46 0.000360946746 46"></polygon>
    </defs>
    <g id="commerical-auto" stroke="none" stroke-width="1" fill="none" fill-rule="evenodd">
        <g id="Group" transform="translate(0.000000, -1.000000)">
            <g id="Group-3" transform="translate(0.000000, 0.487900)">
                <mask id="mask-2" fill="white">
                    <use xlink:href="#path-1"></use>
                </mask>
                <g id="Clip-2"></g>
                <path d="M84.114,21.4717 C83.204,21.7557 82.496,22.8867 82.584,23.8757 C82.67,24.8387 83.437,25.8897 84.114,25.9617 L84.114,21.4717 Z M74.836,36.8667 C74.816,32.7847 71.597,29.5547 67.563,29.5697 C63.529,29.5827 60.294,32.8367 60.316,36.8577 C60.339,40.8767 63.586,44.0957 67.602,44.0787 C71.594,44.0637 74.855,40.8127 74.836,36.8667 Z M8.516,36.7667 C8.457,40.8407 11.843,44.2537 16.084,44.0767 C20.012,43.9127 23.134,40.6047 23.029,36.6737 C22.921,32.6187 19.585,29.4297 15.45,29.5647 C11.679,29.6867 8.438,33.0097 8.516,36.7667 Z M50.479,16.3827 L50.83,16.3827 C55.96,16.3827 61.09,16.3807 66.219,16.3877 C66.439,16.3877 66.587,16.3177 66.737,16.1657 C67.801,15.0917 68.867,14.0217 69.945,12.9627 C70.116,12.7957 70.337,12.6427 70.561,12.5777 C70.963,12.4617 71.37,12.6927 71.576,13.0777 C71.767,13.4337 71.707,13.8527 71.393,14.1717 C70.753,14.8257 70.103,15.4687 69.458,16.1177 C69.387,16.1887 69.322,16.2657 69.217,16.3817 C69.876,16.3817 70.465,16.4157 71.048,16.3727 C71.738,16.3207 72.352,16.0597 72.815,15.5087 C73.212,15.0357 73.617,14.5727 74.017,14.1047 C74.351,13.7137 74.35,13.7137 74.046,13.3117 C74.01,13.2647 73.98,13.2117 73.943,13.1647 C71.306,9.8677 68.671,6.5717 66.031,3.2767 C65.576,2.7087 64.985,2.4187 64.248,2.4197 C59.764,2.4237 55.28,2.4217 50.797,2.4217 L50.479,2.4217 L50.479,16.3827 Z M7.317,33.4837 C7.132,33.4837 6.965,33.4857 6.797,33.4837 C6.171,33.4767 5.544,33.4897 4.919,33.4547 C4.458,33.4297 4.143,33.0657 4.117,32.6077 C4.079,31.9587 4.465,31.5597 5.159,31.5537 C6.164,31.5457 7.168,31.5477 8.172,31.5557 C8.347,31.5567 8.45,31.4947 8.571,31.3677 C9.091,30.8227 9.587,30.2417 10.171,29.7727 C12.134,28.1937 14.397,27.4837 16.898,27.8097 C20.314,28.2557 22.76,30.1147 24.195,33.2367 C24.583,34.0787 24.764,35.0177 25.051,35.9457 L58.344,35.9457 C58.573,35.1177 58.795,34.3177 59.025,33.4837 L58.625,33.4837 L27.184,33.4837 C27.025,33.4837 26.866,33.4857 26.708,33.4727 C26.146,33.4287 25.832,33.0977 25.822,32.5517 C25.811,31.9837 26.114,31.6267 26.673,31.5617 C26.81,31.5447 26.951,31.5517 27.09,31.5517 L59.694,31.5517 C59.773,31.5517 59.858,31.5687 59.931,31.5477 C60.037,31.5167 60.155,31.4807 60.23,31.4087 C60.379,31.2637 60.496,31.0867 60.635,30.9327 C62.784,28.5687 65.449,27.4657 68.631,27.8097 C72.297,28.2047 75.401,30.9257 76.362,34.4827 C76.493,34.9657 76.578,35.4607 76.682,35.9447 L84.095,35.9447 L84.095,33.4837 L83.716,33.4837 C81.956,33.4837 80.195,33.4847 78.435,33.4827 C78.277,33.4827 78.116,33.4787 77.96,33.4527 C77.578,33.3887 77.303,33.0917 77.256,32.7077 C77.164,31.9847 77.544,31.5547 78.295,31.5527 C80.114,31.5487 81.933,31.5517 83.754,31.5517 L84.12,31.5517 C84.12,30.3967 84.124,29.2847 84.109,28.1727 C84.109,28.1027 83.978,27.9947 83.889,27.9687 C82.013,27.4117 80.769,25.8467 80.674,23.9097 C80.577,21.9517 81.915,20.1127 83.882,19.4977 C83.962,19.4727 84.04,19.4387 84.116,19.4097 C84.043,18.8607 83.756,18.5157 83.287,18.2967 C82.335,17.8537 81.386,17.3987 80.436,16.9507 C78.951,16.2507 77.465,15.5527 75.979,14.8537 C75.407,15.4857 74.837,16.0947 74.29,16.7257 C73.457,17.6847 72.397,18.1697 71.147,18.1727 C64.426,18.1857 57.704,18.1787 50.982,18.1787 L50.57,18.1787 L50.57,18.5887 C50.57,21.8207 50.57,25.0517 50.569,28.2837 C50.569,28.4417 50.563,28.6017 50.544,28.7587 C50.479,29.2567 50.108,29.5707 49.599,29.5657 C49.087,29.5607 48.723,29.2407 48.675,28.7407 C48.658,28.5737 48.656,28.4037 48.656,28.2347 C48.655,19.7727 48.655,11.3107 48.655,2.8497 L48.655,2.4387 L1.927,2.4387 L1.927,35.9457 L6.637,35.9457 C6.864,35.1227 7.085,34.3237 7.317,33.4837 Z M76.582,37.7797 C75.941,42.7967 71.819,45.7917 67.957,45.9887 C63.292,46.2267 58.92,42.7087 58.382,37.7797 L58.069,37.7797 C47.113,37.7797 36.156,37.7807 25.199,37.7737 C24.923,37.7737 24.839,37.8457 24.802,38.1297 C24.331,41.8297 21.303,45.0777 17.614,45.7957 C14.215,46.4577 11.327,45.4407 8.989,42.9267 C7.717,41.5577 6.967,39.9007 6.739,38.0297 C6.711,37.7947 6.588,37.7757 6.397,37.7767 C4.686,37.7817 2.976,37.7797 1.266,37.7787 C1.128,37.7787 0.988,37.7777 0.849,37.7637 C0.349,37.7137 0.041,37.3937 0.005,36.8897 C-0.002,36.7997 0.001,36.7097 0.001,36.6207 L0.001,1.6327 C0.001,1.0087 0.202,0.6687 0.674,0.5487 C0.843,0.5057 1.028,0.5137 1.207,0.5137 C6.436,0.5117 11.666,0.5117 16.896,0.5117 C32.685,0.5117 48.473,0.5117 64.262,0.5127 C65.639,0.5127 66.765,1.0427 67.628,2.1207 C70.24,5.3867 72.847,8.6577 75.468,11.9157 C76.004,12.5797 76.674,13.0957 77.449,13.4627 C79.635,14.4977 81.821,15.5347 84.01,16.5637 C85.367,17.2017 86.025,18.2837 86.027,19.7617 C86.034,25.3997 86.03,31.0357 86.029,36.6737 C86.029,37.4347 85.703,37.7657 84.946,37.7787 C84.857,37.7807 84.767,37.7797 84.678,37.7797 L76.982,37.7797 L76.582,37.7797 Z" id="Fill-1" fill="#FEFEFE" mask="url(#mask-2)"></path>
            </g>
            <path d="M25.2956,24.3063 C18.6346,24.3063 11.9746,24.3053 5.3146,24.3073 C4.9246,24.3073 4.5616,24.2723 4.3086,23.9163 C4.0866,23.6043 4.0536,23.2713 4.1976,22.9303 C4.3326,22.6113 4.5926,22.4413 4.9416,22.4163 C5.0796,22.4073 5.2186,22.3973 5.3576,22.3973 C18.6386,22.3963 31.9196,22.3963 45.2006,22.3973 C45.2906,22.3973 45.3806,22.3953 45.4696,22.3993 C46.0926,22.4293 46.4566,22.7843 46.4586,23.3593 C46.4596,23.9133 46.0946,24.2683 45.4846,24.3023 C45.3666,24.3093 45.2466,24.3063 45.1276,24.3063 L25.2956,24.3063 Z" id="Fill-4" fill="#FEFEFE"></path>
            <path d="M25.2673,8.0553 C18.5473,8.0553 11.8283,8.0483 5.1073,8.0643 C4.2643,8.0663 3.9793,7.2943 4.1673,6.7693 C4.2783,6.4623 4.4803,6.2633 4.7963,6.1993 C4.9703,6.1633 5.1503,6.1483 5.3283,6.1483 C18.6393,6.1463 31.9503,6.1463 45.2603,6.1473 C45.4183,6.1473 45.5803,6.1523 45.7343,6.1873 C46.2213,6.2973 46.5033,6.7073 46.4503,7.2013 C46.3933,7.7163 46.0583,8.0323 45.5473,8.0523 C45.4283,8.0563 45.3083,8.0553 45.1893,8.0553 L25.2673,8.0553 Z" id="Fill-6" fill="#FEFEFE"></path>
            <path d="M25.3103,17.8248 C31.9603,17.8248 38.6113,17.8248 45.2623,17.8258 C45.4303,17.8258 45.6043,17.8178 45.7653,17.8548 C46.1883,17.9518 46.4573,18.3268 46.4573,18.7818 C46.4573,19.2278 46.2063,19.5738 45.7783,19.6808 C45.6173,19.7208 45.4453,19.7318 45.2773,19.7318 C31.9073,19.7348 18.5363,19.7338 5.1653,19.7338 C4.5123,19.7338 4.1213,19.3788 4.1163,18.7828 C4.1113,18.1728 4.4753,17.8268 5.1503,17.8268 C10.4283,17.8238 15.7073,17.8248 20.9863,17.8248 L25.3103,17.8248 Z" id="Fill-8" fill="#FEFEFE"></path>
            <path d="M54.6521,23.2604 C53.9961,23.2604 53.3401,23.2674 52.6831,23.2594 C51.9811,23.2494 51.5271,22.5664 51.7851,21.9194 C51.9351,21.5424 52.2341,21.3624 52.6201,21.3584 C53.9921,21.3484 55.3641,21.3474 56.7361,21.3584 C57.2701,21.3624 57.6301,21.7614 57.6321,22.3054 C57.6351,22.8464 57.2741,23.2454 56.7401,23.2564 C56.0441,23.2704 55.3471,23.2604 54.6521,23.2604" id="Fill-10" fill="#FEFEFE"></path>
            <path d="M58.8865,13.9147 C58.4085,13.8517 58.1105,13.6927 57.9375,13.3577 C57.7685,13.0317 57.7945,12.7057 58.0095,12.4037 C58.0845,12.3007 58.1755,12.2067 58.2665,12.1157 C60.3035,10.0787 62.3405,8.0427 64.3815,6.0087 C64.5065,5.8847 64.6435,5.7577 64.7995,5.6797 C65.2215,5.4697 65.6785,5.6017 65.9555,5.9877 C66.2335,6.3727 66.2085,6.8397 65.8685,7.1807 C63.7445,9.3127 61.6195,11.4447 59.4835,13.5637 C59.3055,13.7417 59.0375,13.8287 58.8865,13.9147" id="Fill-12" fill="#FEFEFE"></path>
            <path d="M53.3552,11.2448 C53.4902,10.9878 53.5592,10.7338 53.7192,10.5698 C54.9502,9.3138 56.1952,8.0718 57.4452,6.8358 C57.8522,6.4328 58.4122,6.4528 58.7992,6.8478 C59.1652,7.2198 59.1702,7.7588 58.7822,8.1518 C57.5672,9.3818 56.3452,10.6048 55.1172,11.8208 C54.6762,12.2568 54.1732,12.2908 53.7672,11.9018 C53.5952,11.7368 53.5032,11.4878 53.3552,11.2448" id="Fill-14" fill="#FEFEFE"></path>
            <path d="M13.7751,37.276 C13.7791,38.426 14.6481,39.315 15.7711,39.317 C16.9041,39.318 17.7831,38.447 17.7791,37.327 C17.7741,36.192 16.8841,35.303 15.7551,35.308 C14.6161,35.314 13.7711,36.153 13.7751,37.276 M11.8651,37.297 C11.8621,35.149 13.6051,33.405 15.7601,33.398 C17.9721,33.391 19.6821,35.097 19.6871,37.316 C19.6931,39.494 17.9661,41.221 15.7781,41.226 C13.5641,41.231 11.8681,39.527 11.8651,37.297" id="Fill-16" fill="#FEFEFE"></path>
            <path d="M69.5759,37.3375 C69.5789,36.1585 68.7519,35.3135 67.5899,35.3085 C66.4529,35.3045 65.5729,36.1475 65.5689,37.2455 C65.5639,38.4055 66.4459,39.3165 67.5739,39.3165 C68.6669,39.3165 69.5719,38.4205 69.5759,37.3375 M71.4869,37.3385 C71.4839,39.5335 69.7489,41.2355 67.5249,41.2265 C65.3199,41.2155 63.6539,39.4855 63.6599,37.2105 C63.6649,35.1375 65.4619,33.3955 67.5929,33.3985 C69.7499,33.4005 71.4909,35.1625 71.4869,37.3385" id="Fill-18" fill="#FEFEFE"></path>
        </g>
    </g>
</svg>