<?xml version="1.0" encoding="UTF-8"?>
<svg width="52px" height="52px" viewBox="0 0 52 52" version="1.1" xmlns="http://www.w3.org/2000/svg" xmlns:xlink="http://www.w3.org/1999/xlink">
    <!-- Generator: Sketch 52.6 (67491) - http://www.bohemiancoding.com/sketch -->
    <title>crane</title>
    <desc>Created with Sketch.</desc>
    <g id="crane" stroke="none" stroke-width="1" fill="none" fill-rule="evenodd">
        <path d="M41.9961273,7 L29,7 L29,3 C33.3368714,4.32545998 37.6684357,5.64933569 42,6.97306737 C41.9978485,6.98876607 41.9984222,6.98444532 41.9961273,7 Z M43.5,15 C43.3471267,15.6709089 43.1971697,16.3294153 43.0452173,16.9971399 L42.5844487,16.9971399 C41.4363642,16.9971399 40.2881262,16.9947934 39.1401952,16.9999891 C39.0062009,17.0006595 38.9443455,16.9708264 38.9113458,16.8122754 C38.7851793,16.2100831 38.6405943,15.6127512 38.5,15 L43.5,15 Z M27.7799005,49.9999921 C25.9264836,49.993697 24.0727693,49.9959352 22.2193525,49.9959352 L22,49.9959352 C24.005997,47.6398956 25.9812102,45.3199478 27.9564235,43 C27.9695103,43.0046164 27.9825971,43.0093727 27.9956838,43.014129 L27.9956838,43.1705268 C27.9956838,45.377303 27.9938993,47.5839393 27.9999965,49.7907155 C28.0004427,49.9553669 27.9579106,50.0006915 27.7799005,49.9999921 Z M20,35 C22.0156064,37.3510493 24.0028827,39.6688028 26,41.9982586 C24.0051193,44.3260426 22.0160537,46.6472789 20,49 L20,35 Z M20,18 C22.0174803,20.3536853 24.002632,22.6697763 26,25.0002089 C24.0085912,27.3235402 22.0189701,29.6446438 20,32 L20,18 Z M20,8 L26,8 C23.9969644,10.3370061 22.0128888,12.6516966 20,15 L20,8 Z M21.5,16.5039689 C23.4944834,14.1756722 25.4840465,11.8536422 27.5,9.5 L27.5,23.5 C25.4891158,21.1551313 23.502982,18.839368 21.5,16.5039689 Z M27.4575941,26.5 C27.4718293,26.510457 27.4860645,26.520914 27.5,26.5313711 L27.5,40.5 C27.2232376,40.1798757 26.9717988,39.8904254 26.7215588,39.5998596 C25.0957482,37.7110426 23.4705368,35.8220862 21.844876,33.9331298 C21.7465781,33.8187997 21.6523261,33.700984 21.5471354,33.5922309 C21.4761092,33.5187529 21.4913933,33.4691169 21.5528294,33.3975909 C23.5118939,31.1247921 25.4690103,28.8504596 27.4250778,26.5755694 C27.4426096,26.5552131 27.447105,26.5253757 27.4575941,26.5 Z M20,7 L27,7 L27,2 L20,2 L20,7 Z M19,7 L12.006175,7 C12.0029405,6.98618817 12.0033816,6.98805044 12,6.97408341 C14.325639,5.65373424 16.650984,4.33354025 19,3 L19,7 Z M10.7690656,12.000146 C10.9980963,12.000146 10.998389,12.000438 10.998389,12.2314013 C10.998389,14.4265744 10.9975109,16.6217475 10.9999988,18.8169206 C11.0001452,18.9375121 10.9869741,19.0004357 10.8372626,18.9999977 C8.59700541,18.9953259 6.35645553,18.9966399 4.116052,18.9964939 C4.08224618,18.9964939 4.04829402,18.991676 4,18.9883182 L4,12 L4.20181047,12 C6.39099307,12 8.57988298,12 10.7690656,12.000146 Z M50.0518603,6.69923539 L49.9621924,6.69923539 C49.2644462,6.69923539 48.566559,6.70091478 47.8685308,6.6972761 C47.7760431,6.69685625 47.6839784,6.68328117 47.5952974,6.65683074 C46.7513473,6.40520181 45.9088071,6.14895455 45.065703,5.89424674 C40.2797476,4.44856996 35.4939332,3.00303313 30.7084008,1.55707646 C30.1546027,1.38969704 29.6015094,1.22091812 29.0338945,1.04850052 L29.0338945,0 L18.8957787,0 C18.8957787,0.349313575 18.8901392,0.679314141 18.8985985,1.00889486 C18.9011362,1.11105788 18.8467151,1.20622344 18.7559193,1.25464591 C15.3949227,3.04501794 12.036041,4.83944849 8.67518537,6.63024036 C8.59538655,6.67264502 8.50614158,6.69545676 8.41548674,6.69615651 C7.74974464,6.70161453 7.08357958,6.69923539 6.4176965,6.69923539 L6.22228808,6.69923539 L6.22228808,10.0648773 L2,10.0648773 L2,20.1143601 L12.1226072,20.1143601 L12.1226072,10.0550808 L7.92146719,10.0550808 L7.92146719,8.38814414 L18.8797062,8.38814414 L18.8797062,50.3333432 L13.2176556,50.3333432 C13.1705659,50.3253661 13.1226302,50.320188 13.0734256,50.320188 C12.6060527,50.320188 12.2272198,50.6963718 12.2272198,51.160164 C12.2272198,51.5977856 12.5643204,51.9567557 12.9948957,51.9960814 L13.0697599,51.9998601 C13.0744125,52 13.0756814,51.9998601 13.0769503,51.9998601 L34.9381612,51.9998601 C35.3888977,51.9797073 35.7489793,51.6120604 35.7489793,51.1598841 C35.7489793,50.7079876 35.3888977,50.3403407 34.9381612,50.3218674 L29.0450325,50.320048 L29.0450325,8.39556145 L40.0031305,8.39556145 L40.0031305,13.4260408 L36.4087999,13.4260408 C36.4087999,13.5413591 37.1887417,16.3967456 37.6087429,17.9564811 C37.7356315,18.4278305 37.763829,18.4576398 37.8138795,18.4586194 C38.5725322,18.4731741 39.1432489,18.4574998 39.8080041,18.4574998 L40.008065,18.4574998 L40.008065,21.0555195 C38.7841542,21.3351383 37.8237486,21.9949995 37.1904336,23.0790472 C36.5554267,24.1661737 36.4594144,25.3208958 36.8555887,26.511165 C37.5444527,28.5800362 39.7731802,29.7861197 41.9008197,29.2312205 C43.9058003,28.7082298 44.9491065,27.0148427 45.0623193,25.5638479 C45.0793787,25.4975119 45.0893888,25.4283769 45.0893888,25.3567228 C45.0893888,25.2972443 45.0830444,25.2393053 45.0712015,25.1833256 C45.0709195,25.1799668 45.0710605,25.1764681 45.0709195,25.1731093 C44.9837893,24.7977651 44.6468297,24.5168868 44.243324,24.5168868 C43.775951,24.5168868 43.3972591,24.8929307 43.3972591,25.3567228 C43.3921835,25.3991275 43.387531,25.4420919 43.3823144,25.483237 C43.2065033,26.8967255 41.8369525,27.9757349 40.2938463,27.6099073 C39.2007717,27.3507211 38.552371,26.6277428 38.3645759,25.5217231 C38.1710003,24.3804362 38.8701564,23.2111593 39.9619622,22.8123037 C40.3031515,22.6876088 40.653082,22.6482831 41.0110488,22.645764 C41.2398712,22.6442245 41.4686936,22.6454841 41.7176772,22.6454841 L41.7176772,18.4457441 L44.0673718,18.4457441 C44.4901927,16.7664918 44.9103349,15.0974559 45.3361166,13.4064479 L41.7295202,13.4064479 L41.7295202,8.37512885 L50.1537941,8.37512885 L50.1537941,8.37232986 C50.6211671,8.37232986 51,7.99614601 51,7.53235387 C51,7.06856172 50.6211671,6.69251782 50.1537941,6.69251782 C50.1192522,6.69251782 50.0852743,6.69531681 50.0518603,6.69923539 Z" id="Fill-1" fill="#56ADC2"></path>
        <rect id="Rectangle" fill="#56ADC2" x="18" y="3" width="2" height="48"></rect>
        <rect id="Rectangle-Copy-2" fill="#56ADC2" x="3" y="18" width="8" height="2"></rect>
        <rect id="Rectangle-Copy-4" fill="#56ADC2" x="7" y="7" width="44" height="2" rx="1"></rect>
        <rect id="Rectangle-Copy-5" fill="#56ADC2" x="18" y="50" width="11" height="2" rx="1"></rect>
        <rect id="Rectangle-Copy" fill="#56ADC2" x="27" y="3" width="2" height="48"></rect>
        <rect id="Rectangle-Copy-3" fill="#56ADC2" x="10" y="10" width="2" height="10"></rect>
        <rect id="Rectangle-Copy-6" fill="#56ADC2" x="6" y="7" width="2" height="4"></rect>
    </g>
</svg>