<?xml version="1.0" encoding="UTF-8"?>
<svg width="52px" height="52px" viewBox="0 0 52 52" version="1.1" xmlns="http://www.w3.org/2000/svg" xmlns:xlink="http://www.w3.org/1999/xlink">
    <!-- Generator: Sketch 50.2 (55047) - http://www.bohemiancoding.com/sketch -->
    <title>grad-cap</title>
    <desc>Created with Sketch.</desc>
    <defs></defs>
    <g id="grad-cap" stroke="none" stroke-width="1" fill="none" fill-rule="evenodd">
        <g id="Group-95" transform="translate(7.000000, 5.000000)" fill="#FFFFFF">
            <path d="M19.3849097,41.9 L13.75528,41.9 C11.9425393,41.9 10.4253541,41.3022 9.2473541,40.122 C5.92728002,36.7998 5.97231706,29.643 6.00750225,23.8932 L6.01453928,22.3 C6.01453928,18.1364 7.35720595,16.0952 8.54224299,14.2948 C9.45142817,12.9116 10.2367615,11.7174 10.2367615,9.7 C10.2367615,9.3136 10.5520208,9 10.9404652,9 C11.3289097,9 11.6441689,9.3136 11.6441689,9.7 C11.6441689,12.1346 10.7096504,13.5556 9.72024299,15.0606 C8.59009484,16.7798 7.42194669,18.555 7.42194669,22.3 L7.41490965,23.9016 C7.38394669,29.1026 7.33750225,36.2272 10.2452059,39.135 C11.1614282,40.0548 12.31128,40.5 13.75528,40.5 L19.3849097,40.5 C19.7733541,40.5 20.0886134,40.8136 20.0886134,41.2 C20.0886134,41.5864 19.7733541,41.9 19.3849097,41.9" id="Fill-687"></path>
            <path d="M25.3333333,41.9000002 L19.7037037,41.9000002 C19.3152593,41.9000002 19,41.5864002 19,41.2000002 C19,40.8136002 19.3152593,40.5000002 19.7037037,40.5000002 L25.3333333,40.5000002 C26.7773333,40.5000002 27.9271852,40.0548002 28.8434074,39.1350002 C31.7511111,36.2272002 31.7046667,29.1026002 31.6737037,23.9016002 L31.6666667,22.3000002 C31.6666667,18.5382002 30.4900741,16.5530002 29.3514815,14.6336002 C28.3705185,12.9802002 27.4444444,11.4178002 27.4444444,9.00000019 C27.4444444,8.61360019 27.7597037,8.30000019 28.1481481,8.30000019 C28.5365926,8.30000019 28.8518519,8.61360019 28.8518519,9.00000019 C28.8518519,11.0342002 29.6442222,12.3726002 30.5646667,13.9224002 C31.7412593,15.9062002 33.0740741,18.1546002 33.0740741,22.3000002 L33.0811111,23.8932002 C33.1162963,29.6430002 33.1599259,36.7998002 29.8412593,40.1220002 C28.6632593,41.3022002 27.1460741,41.9000002 25.3333333,41.9000002" id="Fill-688"></path>
            <path d="M16.8518519,15.4 C16.7097037,15.4 16.5675556,15.358 16.4437037,15.2698 C15.4754074,14.5838 7,8.4476 7,4.2 C7,0.4354 13.8287407,0 18.962963,0 C19.3514074,0 19.6666667,0.3136 19.6666667,0.7 C19.6666667,1.0864 19.3514074,1.4 18.962963,1.4 C10.2384444,1.4 8.40740741,2.9232 8.40740741,4.2 C8.40740741,7.1918 14.7984444,12.383 17.26,14.1302 C17.5780741,14.3542 17.6498519,14.791 17.4246667,15.106 C17.2881481,15.2978 17.07,15.4 16.8518519,15.4" id="Fill-689"></path>
            <path d="M21.1111111,15.4 C20.8845185,15.4 20.6607407,15.2894 20.5242222,15.0864 C20.3102963,14.7644 20.398963,14.329 20.7226667,14.1162 C23.3742222,12.3676 30.2592593,7.1792 30.2592593,4.2 C30.2592593,2.9232 28.4282222,1.4 19.7037037,1.4 C19.3152593,1.4 19,1.0864 19,0.7 C19,0.3136 19.3152593,0 19.7037037,0 C24.8379259,0 31.6666667,0.4354 31.6666667,4.2 C31.6666667,8.463 22.541037,14.5978 21.4995556,15.2838 C21.3799259,15.3622 21.2462222,15.4 21.1111111,15.4" id="Fill-690"></path>
            <path d="M21.7407407,22.4 L16.1111111,22.4028 C15.7254815,22.4028 15.4102222,22.7164 15.4102222,23.1 L15.4074074,27.3 C15.4074074,27.6836 15.7226667,27.9972 16.1082963,27.9972 L21.7435556,27.9972 C22.1291852,27.9972 22.4444444,27.6836 22.4444444,27.3 L22.4416296,23.0972 C22.4416296,22.7136 22.1263704,22.4 21.7407407,22.4 M21.7435556,29.3972 L16.1082963,29.3972 C14.9457778,29.3972 14,28.4564 14,27.3 L14.0028148,23.1 C14.0028148,21.9436 14.9485926,21.0028 16.1111111,21.0028 L21.7407407,21 C22.9032593,21 23.849037,21.9408 23.849037,23.0972 L23.8518519,27.3 C23.8518519,28.4564 22.9060741,29.3972 21.7435556,29.3972" id="Fill-691"></path>
            <path d="M7.74074074,38.1 C7.64081481,38.1 7.53948148,38.079 7.44377778,38.0342 C6.19962963,37.4574 0,34.446 0,31.8 L0,21.3 C0,17.4738 3.03859259,15 7.74074074,15 C8.12918519,15 8.44444444,15.3136 8.44444444,15.7 C8.44444444,16.0864 8.12918519,16.4 7.74074074,16.4 C3.77607407,16.4 1.40740741,18.2326 1.40740741,21.3 L1.40740741,31.8 C1.40740741,32.9662 4.84851852,35.2846 8.0377037,36.7658 C8.39096296,36.9296 8.54296296,37.3454 8.3782963,37.6954 C8.25866667,37.9516 8.00392593,38.1 7.74074074,38.1" id="Fill-692"></path>
            <path d="M31.5039916,38.1 C31.2408064,38.1 30.9860657,37.9516 30.866436,37.6968 C30.7017694,37.3454 30.8537694,36.9296 31.2056212,36.7658 C34.3962138,35.2846 37.8373249,32.9648 37.8373249,31.8 L37.8373249,21.3 C37.8373249,18.2326 35.4686583,16.4 31.5039916,16.4 C31.1155471,16.4 30.8002879,16.0864 30.8002879,15.7 C30.8002879,15.3136 31.1155471,15 31.5039916,15 C36.2061397,15 39.2447323,17.4738 39.2447323,21.3 L39.2447323,31.8 C39.2447323,34.446 33.0451027,37.4574 31.8009546,38.0342 C31.7052509,38.079 31.6039175,38.1 31.5039916,38.1" id="Fill-693"></path>
            <path d="M4.82471666,16.5989662 C4.49256851,16.5989662 4.19701296,16.3637662 4.13508703,16.0263662 C4.09005,15.7967662 3.13160555,10.3171662 7.05123518,4.3167662 C7.2637537,3.9933662 7.7014574,3.9037662 8.0237537,4.1123662 C8.35027222,4.3223662 8.4417537,4.7563662 8.23064259,5.0797662 C4.63190185,10.5901662 5.50871666,15.7225662 5.51856851,15.7729662 C5.58753148,16.1537662 5.33419814,16.5163662 4.95279074,16.5863662 C4.91056851,16.5947662 4.86693888,16.5989662 4.82471666,16.5989662" id="Fill-694"></path>
            <path d="M33.9195098,16.299939 C33.8829173,16.299939 33.8435098,16.297139 33.8055098,16.290139 C33.4212876,16.228539 33.1623247,15.868739 33.2242506,15.487939 C33.232695,15.430539 34.1207691,9.603739 30.5135839,4.080739 C30.3024728,3.757339 30.3939543,3.323339 30.7190654,3.113339 C31.0441765,2.903339 31.4804728,2.992939 31.6929913,3.317739 C35.6069913,9.311139 34.6541765,15.452939 34.6119543,15.713339 C34.555658,16.056339 34.2572876,16.299939 33.9195098,16.299939" id="Fill-695"></path>
            <path d="M19.2037037,26.6 C18.8152593,26.6 18.5,26.2864 18.5,25.9 L18.5,21.7 C18.5,21.3136 18.8152593,21 19.2037037,21 C19.5921481,21 19.9074074,21.3136 19.9074074,21.7 L19.9074074,25.9 C19.9074074,26.2864 19.5921481,26.6 19.2037037,26.6" id="Fill-696"></path>
            <path d="M18.4074074,21 L19.8148148,21 L19.8148148,15.4 L18.4074074,15.4 L18.4074074,21 Z M20.5185185,22.4 L17.7037037,22.4 C17.3152593,22.4 17,22.0864 17,21.7 L17,14.7 C17,14.3136 17.3152593,14 17.7037037,14 L20.5185185,14 C20.906963,14 21.2222222,14.3136 21.2222222,14.7 L21.2222222,21.7 C21.2222222,22.0864 20.906963,22.4 20.5185185,22.4 L20.5185185,22.4 Z" id="Fill-697"></path>
            <path d="M18.4074074,33.6 L19.8148148,33.6 L19.8148148,29.4 L18.4074074,29.4 L18.4074074,33.6 Z M20.5185185,35 L17.7037037,35 C17.3152593,35 17,34.6864 17,34.3 L17,28.7 C17,28.3136 17.3152593,28 17.7037037,28 L20.5185185,28 C20.906963,28 21.2222222,28.3136 21.2222222,28.7 L21.2222222,34.3 C21.2222222,34.6864 20.906963,35 20.5185185,35 L20.5185185,35 Z" id="Fill-698"></path>
        </g>
    </g>
</svg>
