<?xml version="1.0" encoding="UTF-8"?>
<svg width="52px" height="52px" viewBox="0 0 52 52" version="1.1" xmlns="http://www.w3.org/2000/svg" xmlns:xlink="http://www.w3.org/1999/xlink">
    <!-- Generator: Sketch 50.2 (55047) - http://www.bohemiancoding.com/sketch -->
    <title>group-discount</title>
    <desc>Created with Sketch.</desc>
    <defs></defs>
    <g id="group-discount" stroke="none" stroke-width="1" fill="none" fill-rule="evenodd">
        <path d="M15.7013252,9.77761758 C13.7357685,9.76181031 11.7283855,11.4555659 11.7532854,13.7050939 C11.7783252,15.9603572 13.5323723,17.6546724 15.8469479,17.6399842 C17.8495747,17.6273944 19.640552,15.7910936 19.6184498,13.7733589 C19.5948089,11.6080431 17.7856462,9.76264964 15.7013252,9.77761758 M36.3205758,9.77761758 C34.3509624,9.75033955 32.3407816,11.4931956 32.3754737,13.7092905 C32.4107253,15.9578392 34.1485454,17.6667027 36.4587845,17.6357876 C38.6894276,17.6061315 40.2653981,15.6065822 40.2437156,13.5826925 C40.222173,11.5646781 38.378598,9.76628671 36.3205758,9.77761758 M26.0043058,29.9541249 C28.788623,29.9988888 30.9551978,27.6070954 30.9351939,25.1012939 C30.9137911,22.4193743 28.8331072,20.073464 25.9708728,20.0905302 C23.3309193,20.1061976 21.0461398,22.3827238 21.0571909,24.995679 C21.0689414,27.7658676 23.2683897,29.9703518 26.0043058,29.9541249 M22.1645389,30.5555004 C20.5966818,29.4200351 19.6276824,27.9338722 19.3549021,26.0319643 C19.0835207,24.1398484 19.5243056,22.4214726 20.69824,20.8775363 C20.5032371,20.7692635 20.3122909,20.656934 20.116029,20.5552359 C18.5613214,19.7497647 16.9079932,19.4066212 15.1613601,19.5014648 C13.2325938,19.6061005 11.4788265,20.2071963 9.95055756,21.3963784 C8.17972402,22.7742684 7.0571283,24.5800738 6.51744303,26.7530834 C6.30817161,27.5954848 6.25389533,28.4521547 6.27683685,29.3167982 C6.28047392,29.4517895 6.27487842,29.592656 6.24046614,29.7220518 C6.13583043,30.1163941 5.66133265,30.3956092 5.21886907,30.3376959 C4.78004256,30.2803421 4.49145502,29.9499282 4.48697863,29.4982321 C4.47634719,28.4169031 4.51691451,27.3403303 4.78018244,26.2839013 C5.2030618,24.5862288 5.97719821,23.0671925 7.0957372,21.7231551 C8.39626959,20.1604739 9.98832714,19.0082221 11.902825,18.310604 C11.9887158,18.2792693 12.0754459,18.2505924 12.1768642,18.2153408 C10.7107052,16.9552358 9.87473864,15.4051445 9.9776957,13.4485406 C10.0645657,11.7975904 10.7347659,10.3946605 12.0062017,9.33207648 C14.3971557,7.33392604 17.8186596,7.54711431 20.0095748,9.97164129 C22.0329049,12.2108176 21.9481332,16.1142333 19.2004665,18.2143616 C19.4003655,18.2883619 19.5914516,18.3559275 19.7800197,18.4299279 C20.5324735,18.7249503 21.2496758,19.0890769 21.9176378,19.5452495 C22.0074454,19.6065201 22.0624211,19.5977072 22.1450945,19.5406332 C23.398345,18.6738914 24.7843485,18.231148 26.3112186,18.3036097 C27.5981819,18.3647404 28.7670803,18.8004894 29.8298043,19.524686 C29.9067423,19.5771438 29.9645158,19.6287622 30.0720891,19.5558809 C30.8968647,18.9966114 31.7887863,18.5717736 32.7323262,18.25353 C32.7527498,18.2466755 32.771075,18.2338059 32.8004514,18.2185582 C31.3135891,16.9483813 30.4820988,15.3715715 30.6000239,13.3878295 C30.6943079,11.8052842 31.3352716,10.4439009 32.5363441,9.40985382 C35.0448035,7.24985376 38.476659,7.6255911 40.5842013,9.91820433 C41.3028025,10.7000345 41.749043,11.6220319 41.9356527,12.6650317 C42.122682,13.711109 42.0398687,14.739001 41.6681881,15.7370971 C41.2974868,16.7323953 40.6742888,17.5440215 39.8159402,18.2055487 C39.8797288,18.2305885 39.9253321,18.2501727 39.9721943,18.2666794 C41.574044,18.8312646 42.9962783,19.688634 44.1918952,20.8990789 C45.8323538,22.5602408 46.8731154,24.5421643 47.3158588,26.8368759 C47.4882,27.7303362 47.529187,28.6327493 47.5103022,29.539359 C47.5016291,29.9530058 47.1401603,30.2972684 46.6813299,30.3411931 C46.1512969,30.3919722 45.7562551,30.0551235 45.7333136,29.5239714 C45.7112114,29.0119838 45.7152681,28.4981777 45.6763794,27.9875889 C45.5970633,26.9465475 45.3254022,25.9506897 44.8813998,25.0072897 C43.8139197,22.739996 42.1519185,21.0747774 39.8212559,20.1200465 C38.4790371,19.5702893 37.0724701,19.3873167 35.6249162,19.4981075 C34.1282618,19.6128151 32.7349841,20.0481444 31.4420056,20.8082921 C31.4001793,20.8330521 31.3587727,20.8583717 31.3075739,20.8891469 C32.4808088,22.4202136 32.9159983,24.1439051 32.6436377,26.038539 C32.3700181,27.9422655 31.400599,29.4257705 29.8156757,30.544869 C30.0393555,30.6232059 30.241073,30.6935692 30.4427905,30.764632 C32.1610264,31.3697845 33.6955903,32.2888442 35.0375293,33.5155161 C37.0135776,35.3220209 38.3108925,37.539095 38.9615085,40.1354036 C39.2859071,41.429641 39.3806109,42.7469599 39.3547317,44.0760293 C39.3453592,44.5631169 38.9041547,44.9732665 38.3921671,44.9778828 C37.9417299,44.9820794 37.5769038,44.6011663 37.5615162,44.1013489 C37.5464084,43.6053084 37.5483668,43.1085686 37.526964,42.6128079 C37.4641546,41.156581 37.0968105,39.7716965 36.4610227,38.4675271 C35.0021378,35.4749177 32.7195965,33.3873793 29.5454134,32.3274531 C28.2636259,31.899258 26.9352559,31.7506977 25.5815664,31.807352 C23.8921472,31.878135 22.2895981,32.2810105 20.7771365,33.0309464 C19.4837383,33.6721898 18.3527494,34.5305384 17.3922831,35.6131264 C16.021807,37.1583217 15.1289063,38.9437035 14.6851837,40.9568219 C14.4918594,41.8337755 14.4132427,42.72192 14.4380028,43.6198567 C14.4434584,43.8212945 14.4540898,44.0259496 14.4263922,44.2241699 C14.3649816,44.6653745 13.9296523,44.9885142 13.468164,44.957739 C12.9746416,44.9247256 12.6405907,44.602705 12.6460463,44.0991107 C12.6540199,43.3635832 12.6731844,42.6262371 12.7364135,41.893927 C12.8423082,40.6666956 13.1594327,39.4860466 13.6200817,38.3441465 C14.4907403,36.1856852 15.8266642,34.3740045 17.6538723,32.9264506 C18.9611193,31.8910046 20.4082536,31.1206452 21.9954151,30.6110357 C22.0417178,30.5962076 22.0880205,30.5806801 22.1645389,30.5555004" id="Fill-1" fill="#FFFFFF"></path>
    </g>
</svg>
