<?xml version="1.0" encoding="UTF-8"?>
<svg width="72px" height="42px" viewBox="0 0 72 42" version="1.1" xmlns="http://www.w3.org/2000/svg" xmlns:xlink="http://www.w3.org/1999/xlink">
    <!-- Generator: Sketch 50.2 (55047) - http://www.bohemiancoding.com/sketch -->
    <title>motorcycle-ins</title>
    <desc>Created with Sketch.</desc>
    <defs>
        <polygon id="path-1" points="0 0.000262606509 72.2677658 0.000262606509 72.2677658 41.8568381 0 41.8568381"></polygon>
    </defs>
    <g id="motorcycle-ins" stroke="none" stroke-width="1" fill="none" fill-rule="evenodd">
        <mask id="mask-2" fill="white">
            <use xlink:href="#path-1"></use>
        </mask>
        <g id="Clip-2"></g>
        <path d="M5.4315,11.7613 C5.4355,11.7483 5.4405,11.7363 5.4455,11.7233 C4.9505,11.3673 4.4545,11.0123 3.9275,10.6323 C3.8685,10.9353 3.8145,11.2053 3.7555,11.5043 C4.3315,11.5933 4.8815,11.6773 5.4315,11.7613 Z M61.7565,30.4573 C61.7515,29.8793 61.2955,29.4203 60.7295,29.4243 C60.1675,29.4283 59.7055,29.8913 59.7155,30.4413 C59.7255,31.0323 60.1685,31.4813 60.7385,31.4763 C61.2985,31.4713 61.7615,31.0083 61.7565,30.4573 Z M52.7365,23.4733 C54.1965,23.7023 55.6005,23.9223 57.0555,24.1513 C56.5655,23.0743 56.0995,22.0483 55.6195,20.9953 C54.5325,21.6713 53.5755,22.4543 52.7365,23.4733 Z M67.0915,21.4533 C63.9625,19.2473 59.9815,19.1383 57.3215,20.2413 C57.9175,21.5543 58.5145,22.8653 59.1165,24.1873 C61.7855,23.2723 64.4265,22.3663 67.0915,21.4533 Z M52.4405,25.3323 C51.2705,27.3293 50.8425,29.4483 51.1705,31.7163 C51.5165,34.1083 52.6125,36.1093 54.4515,37.6573 C56.6435,39.5043 59.1865,40.2703 62.0505,39.8933 C63.9545,39.6423 65.6435,38.8893 67.0665,37.6153 C69.5355,35.4023 70.6665,32.6283 70.3465,29.3093 C70.1305,27.0743 69.1955,25.1623 67.6465,23.5413 C67.4875,23.3753 67.3575,23.3283 67.1375,23.4153 C66.7135,23.5853 66.2765,23.7233 65.8265,23.8803 C69.5115,26.8303 69.8375,32.0283 67.1845,35.3533 C64.6895,38.4803 60.2815,39.4423 56.7055,37.3693 C54.9555,36.3563 53.7215,34.8763 53.0775,32.9483 C52.2065,30.3423 52.6015,27.9003 54.1475,25.6013 C53.5615,25.5093 53.0075,25.4213 52.4405,25.3323 Z M15.3265,25.3673 C13.4925,23.8473 10.5765,23.4773 8.1625,24.9903 C5.7585,26.4963 4.6685,29.4253 5.4915,32.1533 C6.2905,34.8033 8.8925,36.6653 11.6155,36.6093 C14.4035,36.5493 16.4915,34.6393 17.0975,33.0783 C15.8945,33.0123 14.6795,32.9633 13.4695,32.8713 C12.4685,32.7963 11.4795,32.6363 10.5255,32.2963 C9.7675,32.0263 9.2395,31.5313 8.9035,30.8073 C8.3505,29.6143 8.5455,28.4453 9.5305,27.5743 C9.9205,27.2293 10.3885,26.9283 10.8715,26.7403 C11.7155,26.4123 12.5985,26.1873 13.4665,25.9223 C14.0805,25.7363 14.6985,25.5553 15.3265,25.3673 Z M19.0905,24.2563 C16.5715,21.0163 11.8555,19.6073 7.6225,21.4903 C3.2885,23.4183 0.9965,28.2343 2.2415,32.8563 C3.4265,37.2643 7.8315,40.6043 12.9615,39.8933 C17.2085,39.3033 20.1375,35.9783 20.8335,32.9903 C20.5965,33.0013 20.3655,33.0183 20.1335,33.0243 C19.8925,33.0313 19.6495,33.0393 19.4085,33.0263 C19.2295,33.0163 19.1555,33.0833 19.0855,33.2493 C17.8465,36.2313 15.6245,37.9953 12.4285,38.4103 C10.2195,38.6973 8.1775,38.1163 6.4505,36.6903 C3.8325,34.5303 2.8445,31.7243 3.5995,28.4303 C4.6075,24.0333 8.9385,21.3773 13.3055,22.3713 C14.8335,22.7193 16.1565,23.4643 17.2595,24.5873 C17.3255,24.6553 17.4495,24.7323 17.5215,24.7133 C18.0445,24.5743 18.5635,24.4133 19.0905,24.2563 Z M25.8745,24.2043 C25.7915,24.2243 25.7355,24.2353 25.6805,24.2513 C24.4305,24.6243 23.1815,24.9993 21.9315,25.3713 C18.6705,26.3413 15.4095,27.3123 12.1465,28.2803 C11.6585,28.4243 11.1935,28.6103 10.8035,28.9533 C10.4865,29.2333 10.4365,29.5053 10.5705,29.9093 C10.7155,30.3483 11.0515,30.5113 11.4505,30.6253 C12.7645,31.0003 14.1195,31.0563 15.4705,31.1183 C16.5025,31.1653 17.5385,31.1683 18.5715,31.1323 C20.9615,31.0483 23.3495,30.9283 25.7395,30.8203 C25.8125,30.8173 25.9165,30.8153 25.9515,30.7693 C26.1755,30.4763 26.4815,30.2333 26.5525,29.8403 C26.7075,28.9793 26.6975,28.1153 26.5995,27.2493 C26.4835,26.2133 26.2425,25.2063 25.8745,24.2043 Z M59.9015,25.9133 C60.1465,26.4553 60.3685,26.9563 60.6055,27.4503 C60.6335,27.5103 60.7445,27.5633 60.8175,27.5643 C62.3405,27.5903 63.4875,28.8613 63.6065,30.1953 C63.7805,32.1503 61.9295,33.7513 60.0345,33.2423 C58.9565,32.9523 58.2395,32.2653 57.9545,31.1903 C57.6645,30.0963 57.9465,29.1303 58.7765,28.3453 C58.8825,28.2443 58.8895,28.1673 58.8315,28.0443 C58.5725,27.4873 58.3265,26.9223 58.0595,26.3683 C58.0175,26.2823 57.8995,26.1993 57.8025,26.1793 C57.3895,26.0983 56.9725,26.0303 56.5535,25.9843 C56.4325,25.9703 56.2575,26.0063 56.1825,26.0873 C54.8195,27.5623 54.2775,29.3013 54.5765,31.2843 C55.1285,34.9473 58.7665,37.3353 62.3475,36.4073 C65.3675,35.6233 67.3015,32.7613 67.0485,29.8753 C66.8475,27.5773 65.7295,25.8703 63.7095,24.7583 C63.6175,24.7063 63.4695,24.6953 63.3685,24.7283 C62.7565,24.9273 62.1515,25.1463 61.5415,25.3563 C61.0055,25.5403 60.4685,25.7203 59.9015,25.9133 Z M3.0785,6.8023 C3.0785,6.9683 3.0965,7.1113 3.0765,7.2473 C3.0365,7.5113 3.1465,7.6763 3.3545,7.8293 C3.8505,8.1953 4.3235,8.5933 4.8175,8.9613 C7.2905,10.7993 9.8795,12.4403 12.7575,13.5823 C14.2685,14.1823 15.8225,14.5903 17.4605,14.6053 C18.9445,14.6183 20.3145,15.0393 21.5905,15.7763 C23.6165,16.9453 25.0925,18.6513 26.2655,20.6403 C27.3845,22.5343 28.1085,24.5743 28.4235,26.8013 C28.4775,26.7013 28.5175,26.6413 28.5445,26.5753 C28.9675,25.5453 29.2775,24.4853 29.2795,23.3613 C29.2805,22.6173 29.5775,22.0063 30.0355,21.4543 C30.7215,20.6263 31.5915,20.0263 32.5045,19.4853 C34.6025,18.2413 36.8425,17.3043 39.1035,16.4143 C42.6445,15.0193 46.1965,13.6503 49.7425,12.2643 C50.1635,12.0993 50.5725,11.8983 51.0295,11.6953 C50.9525,11.6353 50.9105,11.6073 50.8725,11.5743 C49.3085,10.1973 47.6065,9.0223 45.7205,8.1263 C43.8435,7.2363 41.8805,6.7293 39.7865,6.7993 C38.9035,6.8293 38.0195,6.8363 37.1355,6.8513 C35.7075,6.8743 34.2915,7.0003 32.8945,7.3053 C31.9675,7.5073 31.0935,7.8373 30.3085,8.3803 C29.1065,9.2113 28.5065,10.4163 28.2025,11.8003 C28.1265,12.1473 28.0665,12.4963 27.9975,12.8523 L27.8225,12.8523 C25.4285,12.8523 23.0355,12.8553 20.6415,12.8463 C20.5145,12.8463 20.3695,12.7783 20.2645,12.6993 C17.7075,10.7893 15.1575,8.8723 12.5995,6.9663 C12.4725,6.8703 12.2865,6.8093 12.1275,6.8093 C9.4335,6.7993 6.7405,6.8023 4.0455,6.8023 L3.0785,6.8023 Z M44.3745,34.9263 C44.4225,33.5563 44.4415,32.2133 44.5235,30.8753 C44.6185,29.3253 44.9215,27.8083 45.3755,26.3233 C46.3605,23.1083 48.0695,20.3483 50.6295,18.1583 C53.7995,15.4493 57.5275,14.0073 61.6305,13.4693 C62.0625,13.4123 62.1585,13.3533 62.2715,12.9273 C62.3115,12.7763 62.3365,12.6153 62.3335,12.4593 C62.3155,11.7283 62.0685,11.0603 61.7415,10.4163 C61.1445,9.2413 60.3465,8.2073 59.4895,7.2163 C57.8425,5.3113 56.0145,3.5963 54.0655,2.0063 C53.9995,1.9533 53.8865,1.9303 53.7985,1.9373 C53.4425,1.9633 53.0865,2.0083 52.7305,2.0453 C51.5535,2.1673 50.3775,2.2893 49.2015,2.4133 C49.0125,2.4333 48.8255,2.4633 48.5765,2.4963 C48.7245,2.5993 48.8125,2.6603 48.9005,2.7203 C50.6745,3.9293 52.3905,5.2083 53.8005,6.8483 C54.3515,7.4903 54.8385,8.1723 55.1255,8.9783 C55.5575,10.1853 55.3225,11.0663 54.3205,11.8613 C53.9175,12.1813 53.4945,12.4933 53.0365,12.7213 C51.8165,13.3273 50.5955,13.9463 49.3325,14.4523 C46.6945,15.5103 44.0275,16.4943 41.3745,17.5193 C39.0625,18.4103 36.7605,19.3283 34.5535,20.4653 C33.5695,20.9723 32.5895,21.4953 31.7735,22.2633 C31.4705,22.5473 31.1575,22.8373 31.1495,23.3023 C31.1265,24.7563 30.7605,26.1303 30.1775,27.4523 C29.2205,29.6253 27.8635,31.5313 26.2775,33.2833 C26.1995,33.3683 26.0785,33.4633 26.0745,33.5583 C26.0535,34.0123 26.0655,34.4673 26.0655,34.9263 L44.3745,34.9263 Z M50.4665,25.0193 C50.1745,24.9693 49.8895,24.9203 49.5935,24.8693 C50.8435,22.5363 52.5145,20.6173 54.8525,19.3093 C54.6335,18.8243 54.4265,18.3653 54.1915,17.8453 C53.5025,18.3393 52.8175,18.7833 52.1855,19.2933 C49.4675,21.4853 47.7825,24.3333 46.9245,27.6923 C46.3255,30.0373 46.1745,32.4243 46.3075,34.8333 C46.3425,35.4813 46.3875,36.1283 46.4295,36.7923 L24.1985,36.7923 L24.1985,32.8143 C23.7565,32.8363 23.3415,32.8483 22.9295,32.8893 C22.8655,32.8953 22.7835,33.0253 22.7615,33.1113 C22.5075,34.1433 22.1295,35.1273 21.5905,36.0423 C19.8165,39.0593 17.2225,40.9553 13.7825,41.6323 C8.5115,42.6703 3.1555,39.9273 1.0515,34.9943 C-0.7815,30.6983 -0.2125,26.6293 2.7135,22.9683 C4.5835,20.6283 7.0755,19.2793 10.0365,18.8893 C13.4145,18.4463 16.4365,19.3333 19.0515,21.5413 C19.7295,22.1143 20.3375,22.7543 20.8445,23.4843 C20.9655,23.6583 21.0785,23.6863 21.2785,23.6243 C22.5105,23.2483 23.7465,22.8873 24.9815,22.5203 C25.0275,22.5063 25.0715,22.4853 25.1735,22.4453 C24.7855,21.8143 24.4345,21.1823 24.0245,20.5923 C23.1385,19.3223 22.0775,18.2223 20.7325,17.4293 C19.6875,16.8143 18.5605,16.4803 17.3405,16.4583 C15.4425,16.4253 13.6405,15.9473 11.8925,15.2403 C11.3375,15.0173 10.7835,14.7853 10.2525,14.5093 C9.8165,14.2813 9.3495,14.2373 8.8835,14.1643 C7.0505,13.8803 5.2155,13.6023 3.3815,13.3243 C2.8705,13.2473 2.3595,13.1793 1.8495,13.1053 C1.7605,13.0913 1.6725,13.0683 1.5625,13.0443 C1.6565,12.5503 1.7445,12.0703 1.8385,11.5913 C1.9715,10.9053 2.1015,10.2193 2.2465,9.5353 C2.2765,9.3993 2.2515,9.3243 2.1475,9.2403 C1.8745,9.0203 1.6105,8.7893 1.3495,8.5563 C1.2935,8.5063 1.2315,8.4243 1.2315,8.3563 C1.2235,7.2323 1.2265,6.1073 1.2265,4.9513 L1.5095,4.9513 C5.2625,4.9513 9.0165,4.9493 12.7705,4.9573 C12.9135,4.9573 13.0825,5.0123 13.1985,5.0983 C15.7625,7.0113 18.3195,8.9343 20.8825,10.8473 C21.0035,10.9383 21.1825,10.9923 21.3345,10.9933 C22.9695,11.0043 24.6045,10.9983 26.2395,11.0033 C26.3995,11.0043 26.4935,10.9783 26.5395,10.8013 C27.2325,8.2073 28.9145,6.5723 31.4445,5.7683 C32.6485,5.3853 33.8845,5.1623 35.1435,5.1043 C36.7085,5.0313 38.2755,5.0003 39.8415,4.9513 C42.3395,4.8733 44.6645,5.5223 46.8835,6.6203 C49.0055,7.6723 50.8995,9.0493 52.6305,10.6573 C52.6665,10.6903 52.7035,10.7223 52.7415,10.7553 C52.7705,10.7413 52.7945,10.7363 52.8145,10.7213 C53.5685,10.1723 53.6585,10.0833 53.2285,9.2073 C52.8065,8.3493 52.1195,7.6913 51.4215,7.0543 C49.1695,4.9933 46.6195,3.3643 43.9535,1.9013 C43.5765,1.6933 43.2025,1.4763 42.7635,1.2273 C43.1715,1.1803 43.5105,1.1383 43.8495,1.1023 C45.4145,0.9363 46.9805,0.7703 48.5455,0.6073 C50.0535,0.4503 51.5615,0.2973 53.0695,0.1413 C53.4585,0.1003 53.8475,0.0533 54.2365,0.0083 C54.4035,-0.0107 54.5465,-0.0037 54.6985,0.1153 C56.5325,1.5543 58.2475,3.1223 59.8475,4.8163 C60.8795,5.9083 61.8495,7.0523 62.6645,8.3183 C63.3215,9.3363 63.8775,10.4013 64.1075,11.6113 C64.3725,13.0113 64.0095,14.1973 62.9345,15.1483 C62.8675,15.2073 62.7625,15.2493 62.6715,15.2543 C60.3465,15.4063 58.1395,16.0223 56.0115,16.9493 C55.9665,16.9693 55.9265,16.9973 55.8635,17.0323 C56.0855,17.5233 56.3035,18.0043 56.5185,18.4763 C62.0435,16.6873 66.7485,18.0043 70.7555,22.1693 C70.2915,22.3313 69.8455,22.4883 69.3725,22.6543 C71.6195,25.3043 72.5865,28.3433 72.1755,31.7713 C71.8495,34.4903 70.6515,36.8103 68.6555,38.6823 C64.6235,42.4613 58.7715,42.8973 54.2095,39.8243 C49.9525,36.9563 47.5775,30.7793 50.4665,25.0193 Z" id="Fill-1" fill="#FEFEFE" mask="url(#mask-2)"></path>
    </g>
</svg>