<?xml version="1.0" encoding="UTF-8"?>
<svg width="52px" height="52px" viewBox="0 0 52 52" version="1.1" xmlns="http://www.w3.org/2000/svg" xmlns:xlink="http://www.w3.org/1999/xlink">
    <!-- Generator: Sketch 50.2 (55047) - http://www.bohemiancoding.com/sketch -->
    <title>multi-vehicle-icon</title>
    <desc>Created with Sketch.</desc>
    <defs></defs>
    <g id="multi-vehicle-icon" stroke="none" stroke-width="1" fill="none" fill-rule="evenodd" stroke-linecap="round" stroke-linejoin="round">
        <path d="M10,39 L16,39 L16,45 L10,45 L10,39 Z M37,39 L43,39 L43,45 L37,45 L37,39 Z M4,39 L48,39 L4,39 Z M42.0769231,25 C43.8838759,25.9809064 44.9978599,27.7929431 45,29.7547569 L45,38 L7,38 L7,29.7547569 C7.00214013,27.7929431 8.11612408,25.9809064 9.92307692,25 L42.0769231,25 Z M10,25 L10,18.5388994 C10,13.8229955 14.0294373,10 19,10 L34,10 C38.9705627,10 43,13.8229955 43,18.5388994 L43,25 L10,25 Z M14.5,31 C13.6715729,31 13,31.6715729 13,32.5 C13,33.3284271 13.6715729,34 14.5,34 C15.3284271,34 16,33.3284271 16,32.5 C16,31.6715729 15.3284271,31 14.5,31 Z M38.5,31 C37.6715729,31 37,31.6715729 37,32.5 C37,33.3284271 37.6715729,34 38.5,34 C39.3284271,34 40,33.3284271 40,32.5 C40,31.6715729 39.3284271,31 38.5,31 Z M10,24 L14.011,24 C16.9908647,23.9997306 19.6363783,25.9068207 20.578,28.7339997 C21.4278655,31.2825367 23.8134946,33.0010596 26.5,32.9999995 C29.1865054,33.0010596 31.5721345,31.2825367 32.422,28.7339997 C33.3636217,25.9068207 36.0091353,23.9997306 38.989,24 L43,24 L10,24 Z M10,24 C20.6363636,20 32.3636364,20 43,24 L10,24 Z M27,24 L27.003,33 L27,24 Z" id="vintage-car" stroke="#56ADC2" stroke-width="2"></path>
    </g>
</svg>