<?xml version="1.0" encoding="UTF-8"?>
<svg width="52px" height="52px" viewBox="0 0 52 52" version="1.1" xmlns="http://www.w3.org/2000/svg" xmlns:xlink="http://www.w3.org/1999/xlink">
    <!-- Generator: Sketch 50.2 (55047) - http://www.bohemiancoding.com/sketch -->
    <title>professional</title>
    <desc>Created with Sketch.</desc>
    <defs></defs>
    <g id="professional" stroke="none" stroke-width="1" fill="none" fill-rule="evenodd">
        <g id="Group-6" transform="translate(3.000000, 5.000000)" fill="#FFFFFF">
            <path d="M2.3,8.54545455 C1.65446667,8.54545455 1.53333333,8.66909091 1.53333333,9.31818182 L1.53333333,37.9090909 C1.53333333,38.5504545 1.771,39.4545455 2.3,39.4545455 L43.7,39.4545455 C44.229,39.4545455 44.4666667,38.5504545 44.4666667,37.9090909 L44.4666667,9.31818182 C44.4666667,8.66909091 44.3455333,8.54545455 43.7,8.54545455 L2.3,8.54545455 Z M43.7,41 L2.3,41 C0.720666667,41 0,39.3973636 0,37.9090909 L0,9.31818182 C0,7.82372727 0.815733333,7 2.3,7 L43.7,7 C45.1842667,7 46,7.82372727 46,9.31818182 L46,37.9090909 C46,39.3973636 45.2793333,41 43.7,41 L43.7,41 Z" id="Fill-70"></path>
            <path d="M16.5,6.9 L28.5,6.9 L28.5,2.9 C28.5,2.228 28.3815,2.1 27.75,2.1 L17.25,2.1 C16.6185,2.1 16.5,2.228 16.5,2.9 L16.5,6.9 Z M29.25,8.5 L15.75,8.5 C15.336,8.5 15,8.1416 15,7.7 L15,2.9 C15,1.3528 15.798,0.5 17.25,0.5 L27.75,0.5 C29.202,0.5 30,1.3528 30,2.9 L30,7.7 C30,8.1416 29.664,8.5 29.25,8.5 L29.25,8.5 Z" id="Fill-71"></path>
            <path d="M44.2413793,21 L1.75862069,21 C1.33986207,21 1,20.552 1,20 C1,19.448 1.33986207,19 1.75862069,19 L44.2413793,19 C44.6601379,19 45,19.448 45,20 C45,20.552 44.6601379,21 44.2413793,21" id="Fill-72"></path>
            <path d="M15.2,27 L8.8,27 C8.3584,27 8,26.6416 8,26.2 L8,19.8 C8,19.3584 8.3584,19 8.8,19 C9.2416,19 9.6,19.3584 9.6,19.8 L9.6,25.4 L14.4,25.4 L14.4,19.8 C14.4,19.3584 14.7584,19 15.2,19 C15.6416,19 16,19.3584 16,19.8 L16,26.2 C16,26.6416 15.6416,27 15.2,27" id="Fill-73"></path>
            <path d="M38.2,27 L31.8,27 C31.3584,27 31,26.6416 31,26.2 L31,19.8 C31,19.3584 31.3584,19 31.8,19 C32.2416,19 32.6,19.3584 32.6,19.8 L32.6,25.4 L37.4,25.4 L37.4,19.8 C37.4,19.3584 37.7584,19 38.2,19 C38.6416,19 39,19.3584 39,19.8 L39,26.2 C39,26.6416 38.6416,27 38.2,27" id="Fill-74"></path>
        </g>
    </g>
</svg>
