<?xml version="1.0" encoding="UTF-8"?>
<svg width="52px" height="52px" viewBox="0 0 52 52" version="1.1" xmlns="http://www.w3.org/2000/svg" xmlns:xlink="http://www.w3.org/1999/xlink">
    <!-- Generator: Sketch 50.2 (55047) - http://www.bohemiancoding.com/sketch -->
    <title>rec-vehicle</title>
    <desc>Created with Sketch.</desc>
    <defs></defs>
    <g id="rec-vehicle" stroke="none" stroke-width="1" fill="none" fill-rule="evenodd">
        <path d="M5.91489038,33.2843793 C4.68102395,33.2345058 3.56252158,34.2789535 3.5640329,35.601358 C3.56554422,36.8866093 4.61603722,37.9202259 5.90859322,37.9131731 C7.18830301,37.9062462 8.18879652,36.8866093 8.21020688,35.6053882 C8.23186912,34.2965855 7.06324132,33.2151105 5.91489038,33.2843793 Z M21.2108291,33.2826161 C20.0442164,33.2141029 18.8918353,34.2936888 18.9005254,35.608033 C18.9089636,36.8803122 19.9549226,37.9100245 21.2054135,37.9165736 C22.5667346,37.9236264 23.5610569,36.8086504 23.5521149,35.5744062 C23.5427951,34.3158549 22.4446955,33.2256897 21.2108291,33.2826161 Z M12.4323298,33.2698958 C12.4323298,33.5677517 12.4551255,33.8428119 12.4269142,34.1125824 C12.3854789,34.5080443 12.0334674,34.7846158 11.6409021,34.7676134 C11.2409062,34.7502333 10.9242848,34.4383977 10.9067787,34.0355051 C10.8978367,33.8317288 10.8959476,33.6269451 10.9040079,33.4232948 C10.9087938,33.3020114 10.8684919,33.2663694 10.7487199,33.2676288 C10.2114458,33.2730444 9.6741717,33.2696439 9.13677167,33.2705255 C9.09747737,33.2706515 9.05805712,33.2789637 9.01410291,33.2840015 C10.0129592,34.8376379 10.0152261,36.3775465 9.00427933,37.9154401 L10.9014891,37.9154401 C10.9014891,37.849068 10.9011112,37.7917638 10.901615,37.7344596 C10.9028745,37.5303055 10.8969551,37.3257736 10.9079122,37.1221233 C10.930582,36.6961831 11.3494694,36.36533 11.7694902,36.4337173 C12.1838437,36.5010969 12.440642,36.7954264 12.4503397,37.2221223 C12.4555034,37.4509612 12.4512213,37.680304 12.4512213,37.913299 L14.6767652,37.913299 C14.6767652,37.6455436 14.6675713,37.3886193 14.6792841,37.1324506 C14.6925081,36.8392547 14.8489297,36.6255289 15.1093804,36.5018526 C15.3751207,36.3756574 15.6401054,36.3954305 15.8867024,36.5659577 C16.1293951,36.7338401 16.2195705,36.9766588 16.2219634,37.260409 C16.2237266,37.478165 16.2223413,37.6959209 16.2223413,37.9121656 L18.1230774,37.9121656 C17.6248458,37.2067572 17.3559568,36.4459338 17.3574682,35.5980835 C17.3592314,34.7533819 17.6194302,33.9899136 18.117284,33.2823642 L16.2010568,33.2823642 C16.2010568,33.5724116 16.2230969,33.8525095 16.1956413,34.1275696 C16.1579842,34.5072887 15.8001794,34.7831045 15.4131556,34.7676134 C15.0251243,34.7521224 14.701576,34.4484731 14.6804175,34.0682503 C14.6684529,33.8538949 14.6674454,33.6384059 14.6744982,33.4239245 C14.6784025,33.3037746 14.6404935,33.2656138 14.519588,33.2675029 C14.1166954,33.273926 13.7136768,33.2698958 13.3107842,33.2698958 L12.4323298,33.2698958 Z M26.5765171,25.8864625 L26.3139253,25.8864703 C20.302652,25.8864703 14.2915047,25.8863444 8.28023135,25.8871001 C8.1515173,25.8871001 8.02255137,25.8922637 7.89421516,25.90045 C7.3386793,25.9355882 6.87168157,26.3501935 6.73906328,26.9233615 C6.62269168,27.4265049 6.89775183,28.0175568 7.34913259,28.2899721 C7.63917999,28.4651592 7.9534085,28.4636479 8.26751107,28.4637739 C13.3116659,28.4665446 18.3559466,28.4649074 23.4002273,28.4671743 C23.8167218,28.4674262 24.1567686,28.3181834 24.4476976,28.023728 C25.1085221,27.3550951 25.7762734,26.693389 26.4410021,26.0286603 C26.4748809,25.9949075 26.5071224,25.9593915 26.5765171,25.8864625 Z M6.76677081,31.7221787 L7.00581118,31.7221787 L12.291903,31.7221787 C13.4198511,31.7221787 14.5479252,31.7235641 15.6759993,31.7218009 C17.5025548,31.7190301 19.3292363,31.7114735 21.1559178,31.7134886 C21.4227917,31.7137405 21.6972221,31.7233122 21.955154,31.7840169 C23.5145838,32.1507637 24.5458075,33.0905526 24.9833345,34.6460782 C25.0222509,34.7844898 25.0738877,34.8205096 25.2091508,34.8201318 C26.9552286,34.8159757 28.7013064,34.817361 30.4472582,34.817361 C32.5906871,34.817487 34.7339901,34.817361 36.8775449,34.817361 C38.3602753,34.817361 39.8432575,34.8186205 41.3261138,34.8168573 C42.1237127,34.8161016 42.7520438,34.3759298 42.9614875,33.664854 C43.0881864,33.2347576 43.0016634,32.7939561 43.0257186,32.3468574 C42.7776103,32.3468574 42.5524237,32.3546659 42.3279927,32.3448423 C42.0769877,32.3337593 41.8347988,32.2830042 41.6674202,32.0692784 C41.4733415,31.821548 41.4150298,31.545984 41.5494113,31.2548032 C41.6846744,30.9621109 41.9210699,30.8044299 42.2492782,30.8007776 C42.4402082,30.7986366 42.6308863,30.8003998 42.8184159,30.8003998 C42.8234536,30.7685361 42.829247,30.7565715 42.8258466,30.7482592 C42.8103555,30.7085871 42.7933532,30.6694187 42.7752174,30.631006 C42.5630029,30.1856706 42.2662805,29.7996544 41.936561,29.4371896 C41.2055861,28.6336714 40.3542095,27.9717134 39.4697097,27.3504352 C37.9617907,26.291378 36.3668448,25.3761481 34.73865,24.5183484 C33.7338744,23.9890087 32.7173861,23.4814572 31.6731902,22.9470799 C31.6352813,23.0003539 31.6068181,23.0545095 31.5655087,23.0959448 C30.6359213,24.0275474 29.7049485,24.9577645 28.7742276,25.8882336 C27.7217195,26.9404898 26.6614029,27.9850634 25.6197259,29.0477729 C24.9696067,29.7108643 24.2022342,30.020307 23.2723949,30.0182919 C18.2919674,30.0079646 13.311414,30.0128764 8.33098649,30.0160249 C8.17821728,30.0161509 8.01386128,30.0244631 7.87469395,30.0789966 C7.1443488,30.3652657 6.90417494,30.9914557 6.76677081,31.7221787 Z M6.19990005,29.367291 C5.88025598,29.0903417 5.62358355,28.7715793 5.44159549,28.3936235 C4.90482518,27.279781 5.1710693,25.9302986 6.08226902,25.0920201 C6.66236382,24.5583983 7.34825099,24.3269146 8.12368383,24.3267886 C14.5236181,24.3264108 20.9234265,24.3266627 27.3231089,24.3266627 L27.549555,24.3266627 C27.4755003,24.0659601 27.3432599,23.8541234 27.1810449,23.6633194 C26.7457849,23.1512339 26.1942792,22.8621941 25.5168303,22.8425469 C25.135474,22.8314639 24.7537398,22.842421 24.3722576,22.8382649 C23.956141,22.833605 23.6547587,22.5912901 23.5737771,22.2038885 C23.4861206,21.7847492 23.782843,21.3172477 24.2101686,21.3038977 C24.9367355,21.2812279 25.6703551,21.2148558 26.3886097,21.4114533 C27.5136611,21.7192587 28.3375822,22.3929294 28.8584836,23.4368733 C28.8751081,23.4702483 28.8914808,23.5038752 28.9009265,23.5230185 C29.3880752,23.0375071 29.8764832,22.5506104 30.3609871,22.0678697 C29.9452483,21.6807201 29.5086029,21.2907996 29.0909749,20.8816099 C27.7772605,19.5950991 26.5537214,18.2244583 25.3410134,16.8436161 C24.9194812,16.3638981 25.1126782,15.766549 25.5871066,15.5593723 C25.877154,15.4325474 26.232566,15.5137808 26.4660648,15.7741056 C26.9393597,16.3020599 27.3991787,16.8421047 27.8785189,17.3645175 C28.9790113,18.5642533 30.076859,19.7676415 31.3213047,20.8238019 C31.7463633,21.1846294 32.1984997,21.5062886 32.7061771,21.7525077 C34.7371386,22.7373843 36.7445488,23.7669707 38.6646802,24.9583942 C39.7742406,25.6466743 40.8513076,26.3815534 41.8413478,27.2351971 C42.7025481,27.9778846 43.5060663,28.7771208 44.0527861,29.7912162 C44.2069407,30.0768555 44.3186524,30.3865501 44.4333867,30.6914588 C44.468273,30.7845309 44.5117235,30.8010295 44.5953498,30.8003998 C44.8908128,30.7981328 45.1864017,30.795488 45.4818646,30.8025408 C45.8260676,30.8108531 46.1017575,31.0267199 46.1964669,31.3492606 C46.2885314,31.6631113 46.1760641,32.0336365 45.8935733,32.1954736 C45.7382852,32.2846415 45.5424434,32.3238098 45.3608331,32.3408122 C45.1066796,32.3647414 44.8486218,32.3468574 44.5695314,32.3468574 C44.5695314,32.7017656 44.5821258,33.0392937 44.5668866,33.3756882 C44.5285999,34.2202639 44.1786034,34.9259242 43.571053,35.5052633 C42.9185408,36.1272972 42.1256019,36.3800654 41.2370719,36.3777984 C40.2698274,36.3754055 39.3027089,36.3772947 38.3354644,36.3772947 L38.1226203,36.3772947 C38.2513343,36.5449252 38.3617866,36.6910194 38.4745058,36.8353504 C38.7323117,37.1651959 38.9881026,37.4968046 39.2530873,37.8209826 C39.2960339,37.873501 39.3819272,37.9202259 39.4481734,37.9204778 C41.0118853,37.9258934 42.5755972,37.9335759 44.1391832,37.9216113 C45.276703,37.9129212 46.2459626,37.4838324 47.0502364,36.6801883 C47.5977119,36.1332166 48.1421648,35.5833481 48.6949299,35.0419179 C49.1131876,34.6320985 49.8114172,34.8239101 49.9683425,35.3886398 C50.051591,35.6883849 49.9677128,35.9556365 49.7513422,36.1708736 C49.0885027,36.8300608 48.4419098,37.5080135 47.7472066,38.1320625 C46.9419252,38.8556068 45.9712803,39.2624036 44.8981175,39.4077421 C44.5854003,39.4500591 44.2672675,39.4695803 43.9515277,39.4699581 C39.3733631,39.4737364 34.7951985,39.4732327 30.216908,39.4694544 C30.0587232,39.4693284 29.8910927,39.450311 29.7444947,39.3953997 C29.4295105,39.2773908 29.2355578,38.89276 29.2986554,38.5666928 C29.3690577,38.2027167 29.6514226,37.9475556 30.0068345,37.9286641 C30.0818967,37.9246339 30.1570849,37.9248858 30.232399,37.9248858 C32.5322494,37.9247599 34.8319739,37.9247599 37.1319503,37.9247599 L37.3575148,37.9247599 C37.1960555,37.7164497 37.0568881,37.5359729 36.9164614,37.3563778 C36.6919045,37.0685974 36.4649547,36.7827061 36.2424129,36.4932884 C36.1830936,36.4163371 36.1225149,36.3746499 36.0164706,36.3746499 C32.4001349,36.3777984 28.7837992,36.3776725 25.1673376,36.3752796 C25.0638122,36.3752796 25.0236363,36.4068913 24.9944175,36.5090313 C24.5395103,38.1001989 23.5183621,39.0907429 21.8808474,39.4120242 C21.6562905,39.4559784 21.4230436,39.4729808 21.1935749,39.4729808 C16.2768747,39.4753737 11.3600486,39.4751218 6.44334844,39.4698322 C6.02068275,39.4693284 5.58567462,39.4877161 5.17749241,39.3995558 C3.52297539,39.0420028 2.45396873,38.02224 2.09603789,36.3713753 C1.79289239,34.9735307 2.21429864,33.7454577 3.2626506,32.7536543 C3.77952187,32.2646165 4.38959118,31.9447205 5.0884505,31.8061829 C5.22887727,31.7783494 5.20998578,31.6787283 5.22849944,31.5911977 C5.28177346,31.3400668 5.31867484,31.0849057 5.38529884,30.837553 C5.53428976,30.2850398 5.80771264,29.7970096 6.19990005,29.367291 Z" id="Fill-1" fill="#FFFFFF"></path>
    </g>
</svg>
