<?xml version="1.0" encoding="UTF-8"?>
<svg width="52px" height="52px" viewBox="0 0 52 52" version="1.1" xmlns="http://www.w3.org/2000/svg" xmlns:xlink="http://www.w3.org/1999/xlink">
    <!-- Generator: Sketch 50.2 (55047) - http://www.bohemiancoding.com/sketch -->
    <title>retired</title>
    <desc>Created with Sketch.</desc>
    <defs></defs>
    <g id="retired" stroke="none" stroke-width="1" fill="none" fill-rule="evenodd">
        <g id="Group-75" transform="translate(3.000000, 7.000000)" fill="#FFFFFF">
            <path d="M44.25,28.5 L0.75,28.5 C0.336,28.5 0,28.164 0,27.75 C0,27.336 0.336,27 0.75,27 L44.25,27 C44.664,27 45,27.336 45,27.75 C45,28.164 44.664,28.5 44.25,28.5" id="Fill-531"></path>
            <path d="M18.75,31.5 L11.25,31.5 C10.836,31.5 10.5,31.164 10.5,30.75 C10.5,30.336 10.836,30 11.25,30 L18.75,30 C19.164,30 19.5,30.336 19.5,30.75 C19.5,31.164 19.164,31.5 18.75,31.5" id="Fill-532"></path>
            <path d="M33.75,33 L26.25,33 C25.836,33 25.5,32.664 25.5,32.25 C25.5,31.836 25.836,31.5 26.25,31.5 L33.75,31.5 C34.164,31.5 34.5,31.836 34.5,32.25 C34.5,32.664 34.164,33 33.75,33" id="Fill-533"></path>
            <path d="M23.25,36 L17.25,36 C16.836,36 16.5,35.664 16.5,35.25 C16.5,34.836 16.836,34.5 17.25,34.5 L23.25,34.5 C23.664,34.5 24,34.836 24,35.25 C24,35.664 23.664,36 23.25,36" id="Fill-534"></path>
            <path d="M6.77925,31.5 C6.36675,31.5 6.02175,31.164 6.02175,30.75 C6.02175,30.336 6.35025,30 6.76425,30 L6.77925,30 C7.19325,30 7.52925,30.336 7.52925,30.75 C7.52925,31.164 7.19325,31.5 6.77925,31.5" id="Fill-535"></path>
            <path d="M21.77925,33 C21.36675,33 21.02175,32.664 21.02175,32.25 C21.02175,31.836 21.35025,31.5 21.76425,31.5 L21.77925,31.5 C22.19325,31.5 22.52925,31.836 22.52925,32.25 C22.52925,32.664 22.19325,33 21.77925,33" id="Fill-536"></path>
            <path d="M27.77925,36 C27.36675,36 27.02175,35.664 27.02175,35.25 C27.02175,34.836 27.35025,34.5 27.76425,34.5 L27.77925,34.5 C28.19325,34.5 28.52925,34.836 28.52925,35.25 C28.52925,35.664 28.19325,36 27.77925,36" id="Fill-537"></path>
            <path d="M12.77925,36 C12.36675,36 12.02175,35.664 12.02175,35.25 C12.02175,34.836 12.35025,34.5 12.76425,34.5 L12.77925,34.5 C13.19325,34.5 13.52925,34.836 13.52925,35.25 C13.52925,35.664 13.19325,36 12.77925,36" id="Fill-538"></path>
            <path d="M17.27925,39 C16.86675,39 16.52175,38.664 16.52175,38.25 C16.52175,37.836 16.85025,37.5 17.26425,37.5 L17.27925,37.5 C17.69325,37.5 18.02925,37.836 18.02925,38.25 C18.02925,38.664 17.69325,39 17.27925,39" id="Fill-539"></path>
            <path d="M21.77925,39 C21.36675,39 21.02175,38.664 21.02175,38.25 C21.02175,37.836 21.35025,37.5 21.76425,37.5 L21.77925,37.5 C22.19325,37.5 22.52925,37.836 22.52925,38.25 C22.52925,38.664 22.19325,39 21.77925,39" id="Fill-540"></path>
            <path d="M26.27925,39 C25.86675,39 25.52175,38.664 25.52175,38.25 C25.52175,37.836 25.85025,37.5 26.26425,37.5 L26.27925,37.5 C26.69325,37.5 27.02925,37.836 27.02925,38.25 C27.02925,38.664 26.69325,39 26.27925,39" id="Fill-541"></path>
            <path d="M39.747,7.53075 C39.3555,7.53075 39.0345,7.20075 39.003,6.81225 C38.9445,6.62025 38.3385,6.00075 36.006,6.00075 L36,6.00075 C35.589,6.00075 35.253,5.66925 35.25,5.25525 C35.247,4.84275 35.58,4.50375 35.994,4.50075 C37.9695,4.48425 39.141,4.94025 39.753,5.44275 C40.3665,4.94925 41.4795,4.50075 43.5,4.50075 C43.914,4.50075 44.25,4.83525 44.25,5.25075 C44.25,5.66475 43.914,6.00075 43.5,6.00075 C41.223,6.00075 40.5555,6.62175 40.491,6.86025 C40.4655,7.25325 40.1475,7.52775 39.753,7.53075 L39.747,7.53075 Z" id="Fill-542"></path>
            <path d="M20.25,4.5 C19.836,4.5 19.5,4.164 19.5,3.75 L19.5,0.75 C19.5,0.336 19.836,0 20.25,0 C20.664,0 21,0.336 21,0.75 L21,3.75 C21,4.164 20.664,4.5 20.25,4.5" id="Fill-543"></path>
            <path d="M14.25,6.10845 C13.992,6.10845 13.7385,5.97345 13.6005,5.73345 L12.1005,3.13545 C11.8935,2.77545 12.0165,2.31795 12.375,2.11095 C12.7335,1.90095 13.1925,2.02395 13.3995,2.38545 L14.8995,4.98345 C15.1065,5.34195 14.9835,5.80095 14.625,6.00795 C14.5065,6.07695 14.3775,6.10845 14.25,6.10845" id="Fill-544"></path>
            <path d="M9.85845,10.5 C9.73095,10.5 9.60195,10.4685 9.48345,10.3995 L6.88395,8.8995 C6.52545,8.6925 6.40245,8.2335 6.61095,7.875 C6.81795,7.5165 7.27695,7.395 7.63395,7.6005 L10.23345,9.1005 C10.59195,9.3075 10.71495,9.7665 10.50795,10.125 C10.36995,10.365 10.11645,10.5 9.85845,10.5" id="Fill-545"></path>
            <path d="M33.2403,24 C33.1128,24 32.9838,23.9685 32.8653,23.8995 L30.2673,22.3995 C29.9073,22.1925 29.7843,21.7335 29.9928,21.375 C30.1998,21.018 30.6588,20.895 31.0173,21.1005 L33.6153,22.6005 C33.9738,22.8075 34.0968,23.2665 33.8898,23.625 C33.7518,23.865 33.4983,24 33.2403,24" id="Fill-546"></path>
            <path d="M8.25,16.5 L5.25,16.5 C4.836,16.5 4.5,16.164 4.5,15.75 C4.5,15.336 4.836,15 5.25,15 L8.25,15 C8.664,15 9,15.336 9,15.75 C9,16.164 8.664,16.5 8.25,16.5" id="Fill-547"></path>
            <path d="M35.25,16.5 L32.25,16.5 C31.836,16.5 31.5,16.164 31.5,15.75 C31.5,15.336 31.836,15 32.25,15 L35.25,15 C35.664,15 36,15.336 36,15.75 C36,16.164 35.664,16.5 35.25,16.5" id="Fill-548"></path>
            <path d="M7.2597,24 C7.0017,24 6.7482,23.865 6.6102,23.625 C6.4032,23.2665 6.5262,22.8075 6.8847,22.6005 L9.4842,21.1005 C9.8427,20.892 10.3002,21.0165 10.5072,21.375 C10.7157,21.7335 10.5927,22.1925 10.2342,22.3995 L7.6347,23.8995 C7.5162,23.9685 7.3872,24 7.2597,24" id="Fill-549"></path>
            <path d="M30.64155,10.5 C30.38355,10.5 30.13005,10.365 29.99205,10.125 C29.78505,9.7665 29.90805,9.3075 30.26655,9.1005 L32.86455,7.6005 C33.22305,7.392 33.68205,7.5165 33.88905,7.875 C34.09755,8.2335 33.97455,8.6925 33.61455,8.8995 L31.01655,10.3995 C30.89805,10.4685 30.76905,10.5 30.64155,10.5" id="Fill-550"></path>
            <path d="M26.25,6.10845 C26.1225,6.10845 25.9935,6.07695 25.875,6.00795 C25.5165,5.80095 25.3935,5.34195 25.6005,4.98345 L27.1005,2.38545 C27.3075,2.02545 27.768,1.90245 28.125,2.11095 C28.4835,2.31795 28.6065,2.77545 28.3995,3.13545 L26.8995,5.73345 C26.7615,5.97345 26.508,6.10845 26.25,6.10845" id="Fill-551"></path>
            <path d="M20.25,9 C16.5285,9 13.5,12.0285 13.5,15.75 C13.5,19.4715 16.5285,22.5 20.25,22.5 C23.9715,22.5 27,19.4715 27,15.75 C27,12.0285 23.9715,9 20.25,9 M20.25,24 C15.702,24 12,20.298 12,15.75 C12,11.202 15.702,7.5 20.25,7.5 C24.798,7.5 28.5,11.202 28.5,15.75 C28.5,20.298 24.798,24 20.25,24" id="Fill-552"></path>
        </g>
    </g>
</svg>
