<?xml version="1.0" encoding="UTF-8"?>
<svg width="52px" height="52px" viewBox="0 0 52 52" version="1.1" xmlns="http://www.w3.org/2000/svg" xmlns:xlink="http://www.w3.org/1999/xlink">
    <!-- Generator: Sketch 50.2 (55047) - http://www.bohemiancoding.com/sketch -->
    <title>RV</title>
    <desc>Created with Sketch.</desc>
    <defs>
        <polygon id="path-1" points="0 0.0484686063 50.9229297 0.0484686063 50.9229297 26.6666336 0 26.6666336"></polygon>
        <polygon id="path-3" points="0.0370379833 0.0529861111 18.8346567 0.0529861111 18.8346567 2.20781944 0.0370379833 2.20781944"></polygon>
    </defs>
    <g id="RV" stroke="none" stroke-width="1" fill="none" fill-rule="evenodd">
        <g id="Group" transform="translate(1.000000, 12.000000)">
            <g id="Group-3" transform="translate(0.000000, 3.333333)">
                <mask id="mask-2" fill="white">
                    <use xlink:href="#path-1"></use>
                </mask>
                <g id="Clip-2"></g>
                <path d="M10.7467428,25.5565899 C12.5777732,25.5436606 14.1674904,24.1760646 14.1978786,22.2164687 C14.23177,20.029398 12.5013546,18.7142465 10.7761534,18.7053576 C8.96988978,18.6960646 7.33088339,20.0630949 7.30660543,22.0421657 C7.27996486,24.2201051 8.97241534,25.5447111 10.7467428,25.5565899 Z M35.630262,25.5561051 C37.4466278,25.5433374 39.017607,24.1467313 39.0623339,22.2378828 C39.1109712,20.1573172 37.4797045,18.7402667 35.6840319,18.7060848 C33.8424105,18.6709333 32.2088626,20.0854788 32.1733419,22.0222869 C32.1332588,24.2129131 33.8604153,25.4982465 35.630262,25.5561051 Z M40.0532492,10.8533172 L48.2544728,10.8533172 C48.2544728,10.8264081 48.2583019,10.8120242 48.2539026,10.8006303 C47.588377,9.06034747 46.7683035,7.40111515 45.6519249,5.89566061 C45.571107,5.78665051 45.4885783,5.74277172 45.3510575,5.74317576 C43.667976,5.74786263 41.9848131,5.74923636 40.3016502,5.74220606 C40.1057971,5.74139798 40.0481981,5.79650909 40.0491757,5.99166061 C40.056508,7.53986263 40.0532492,9.08814545 40.0532492,10.6364283 L40.0532492,10.8533172 Z M2.60116294,2.42891313 L41.7650895,2.42891313 C41.6555128,2.37048889 41.5981581,2.33824646 41.5393371,2.30891313 C40.0934952,1.58794343 38.5524968,1.29129697 36.9438786,1.29145859 C26.1779089,1.29202424 15.4121022,1.29153939 4.64613259,1.29372121 C4.45753035,1.29372121 4.26298083,1.29873131 4.08146645,1.34277172 C3.4505655,1.49574141 2.94952716,1.83376162 2.60116294,2.42891313 Z M49.4896342,14.6355394 C49.4896342,14.6588929 49.4950927,14.6310141 49.4888195,14.6060444 C49.3113786,13.8964687 49.1428994,13.1844687 48.9508754,12.4787717 C48.8299744,12.0348929 48.8140879,12.0391758 48.3387939,12.0391758 C45.6913562,12.0391758 43.0439185,12.0276202 40.3965623,12.0450747 C39.3880495,12.051701 38.9210655,11.3254788 38.934508,10.6090343 C38.9643259,9.0205899 38.9359744,7.43117576 38.9527572,5.84232727 C38.9551198,5.61299394 39.0345527,5.36127677 39.1505655,5.16111515 C39.3999441,4.73081212 39.8205719,4.5865697 40.3080048,4.58810505 C41.6316422,4.59246869 42.955361,4.58972121 44.2789984,4.58891313 C44.352647,4.58891313 44.4262141,4.58107475 44.5389681,4.57469091 C44.2035575,4.28014545 43.904401,4.02648889 43.6168131,3.76054949 C43.5040591,3.65630707 43.3887796,3.61727677 43.2361869,3.61727677 C29.6869696,3.62018586 16.1378339,3.62034747 2.58861661,3.61614545 C2.39235623,3.61606465 2.32326997,3.65178182 2.32384026,3.86737778 C2.33198722,6.87699394 2.32946166,9.88669091 2.32946166,12.8963879 L2.32946166,13.1356606 L2.62967732,13.1356606 C15.724131,13.1356606 28.8184217,13.135903 41.9128754,13.1352566 C43.2298323,13.1351758 44.5448339,13.1645091 45.8529105,13.3369535 C46.6676885,13.4444283 47.4740751,13.6016808 48.2275879,13.9289535 C48.6738786,14.1227313 49.0817157,14.4036202 49.4896342,14.6355394 Z M31.0462907,21.5439838 C31.0627476,21.4318222 31.0707316,21.3449535 31.088655,21.2602667 C31.5910783,18.8883071 33.7783754,17.2457212 36.2318339,17.573398 C38.2161086,17.8384485 39.8292077,19.3587717 40.1483243,21.321196 C40.181238,21.5235394 40.2548866,21.5479434 40.4298019,21.5473778 C42.2354137,21.5418828 44.0410256,21.5460848 45.8466374,21.5419636 C46.1509265,21.5412364 46.4576597,21.5325091 46.7590974,21.4945293 C47.5573371,21.394004 48.258139,21.0733576 48.7337588,20.4173576 C49.3758211,19.5320242 49.6783994,18.5342061 49.5227923,17.4348121 C49.3594457,16.281196 48.7540447,15.4498424 47.6624329,14.9791354 C47.0679489,14.7228121 46.4470687,14.5701657 45.8108722,14.4673778 C44.5605575,14.2652768 43.2972891,14.2367515 42.0364649,14.2359434 C28.8813163,14.2281051 15.7260863,14.2310949 2.5709377,14.2310949 L2.34453355,14.2310949 C2.33785304,14.2939636 2.33011342,14.3326707 2.33011342,14.3714586 C2.32970607,16.0479838 2.31634505,17.7245899 2.33492013,19.4008727 C2.34632588,20.4375596 3.07580511,21.353196 4.03470288,21.4823273 C4.71497444,21.5738828 5.41211022,21.5425293 6.09401118,21.565802 C6.1162524,21.4944485 6.13026518,21.4631758 6.13564217,21.4305293 C6.32188179,20.3052768 6.85738179,19.3766303 7.71892332,18.623903 C9.04093131,17.4687515 11.0656965,17.1878626 12.6485703,17.9649131 C14.0597875,18.6577616 14.9273578,19.7733172 15.210139,21.3152162 C15.247615,21.5195798 15.3285958,21.5477818 15.5101917,21.5476202 C20.607992,21.5430949 25.7057923,21.5439838 30.8035927,21.5439838 L31.0462907,21.5439838 Z M6.17515495,22.6502465 C5.67704952,22.6502465 5.18953514,22.6508929 4.70202077,22.650004 C4.23788818,22.649196 3.78369489,22.5948121 3.3485655,22.4199434 C2.79701597,22.1982869 2.31976677,21.8751354 1.95820447,21.403701 C1.8469984,21.2587313 1.72764537,21.2119434 1.54979712,21.2108121 C1.0884345,21.2080646 0.627234824,21.1839838 0.166035144,21.1668525 C0.113242812,21.1648323 0.0609392971,21.1531152 0,21.1447919 L0,20.0034586 L1.25854313,20.0034586 C1.24558946,19.7510141 1.22391853,19.5245091 1.22383706,19.298004 C1.22171885,13.9445495 1.21153514,8.59109495 1.22986581,3.23780202 C1.23369489,2.10406465 1.79893131,1.22551919 2.74145367,0.593680808 C3.32045847,0.205559596 3.97099361,0.048630303 4.66544089,0.048630303 C15.4192716,0.0491959596 26.1730208,0.0496 36.9266885,0.0484686869 C38.4882987,0.0483070707 40.0028195,0.291216162 41.4498019,0.890812121 C42.3290224,1.25517576 43.1481997,1.72394343 43.9125479,2.28903434 C43.991492,2.34745859 44.1073419,2.3826101 44.2066534,2.38390303 C44.8379617,2.39230707 45.4693514,2.38818586 46.1007412,2.38818586 L46.3081629,2.38818586 L46.3081629,3.54640808 L45.3567604,3.54640808 C45.498762,3.70034747 45.6093163,3.81945859 45.7192188,3.93913535 C47.1177268,5.46188283 48.1364233,7.22228687 48.9971502,9.08248889 C49.8000335,10.818004 50.3898738,12.6205899 50.6997843,14.5062465 C50.9499776,16.0281051 51.0520591,17.5555394 50.6713514,19.0742465 C50.4105671,20.1144889 49.9408946,21.0379636 49.0816342,21.729196 C48.4639313,22.2261657 47.7503387,22.4971152 46.9679856,22.5843071 C46.5646294,22.6292364 46.156385,22.6458828 45.7502588,22.6474182 C44.0055048,22.6540444 42.2606693,22.6502465 40.5159153,22.6502465 L40.2604265,22.6502465 C40.0109665,24.0529939 39.3284137,25.1701657 38.1260847,25.9490747 C37.310492,26.4774788 36.4002316,26.7084283 35.4390527,26.6563879 C33.2094728,26.5358222 31.417222,24.9092364 31.1085335,22.6668121 L15.3250112,22.6668121 C15.0934744,24.0155798 14.4374808,25.1090747 13.2955208,25.8891152 C12.465345,26.4562263 11.5302364,26.7127111 10.5271821,26.6598626 C8.3304345,26.5442263 6.49973003,24.9602263 6.17515495,22.6502465 Z" id="Fill-1" fill="#FFFFFF" mask="url(#mask-2)"></path>
            </g>
            <g id="Group-6" transform="translate(3.326087, 0.000000)">
                <mask id="mask-4" fill="white">
                    <use xlink:href="#path-3"></use>
                </mask>
                <g id="Clip-5"></g>
                <polygon id="Fill-4" fill="#FFFFFF" mask="url(#mask-4)" points="0.0370379833 2.20781944 0.0370379833 1.21809722 2.39742744 1.21809722 2.39742744 0.0529583333 3.55620783 0.0529583333 3.55620783 1.21108333 18.8346567 1.21108333 18.8346567 2.20781944"></polygon>
            </g>
            <path d="M47.5258453,21.0888415 C47.5258453,20.9996378 47.5453027,20.9045289 47.5219538,20.8223935 C47.4644463,20.6195602 47.4130788,20.4068849 47.3106896,20.2279407 C47.211846,20.0555279 47.0923343,20.071096 46.9614075,20.2205145 C46.6505214,20.5750031 46.6148928,21.445388 46.8961171,21.8156236 C47.0439069,22.0101361 47.2071762,22.0151465 47.3592899,21.8260919 C47.5329364,21.6103746 47.5523073,21.3540369 47.5258453,21.0888415 M48.7825342,21.0352477 C48.7816694,21.7232884 48.6511751,22.3651615 48.1643941,22.8789105 C47.6073069,23.4669213 46.7529971,23.4863368 46.1680643,22.9251675 C45.2708617,22.0645351 45.2116247,20.2809082 46.0501956,19.3716923 C46.8074778,18.5505171 48.0870833,18.812581 48.565649,19.8868729 C48.7286588,20.2527244 48.7849556,20.5522771 48.7825342,21.0352477" id="Fill-7" fill="#FFFFFF"></path>
            <path d="M17.7932844,14.3600941 L24.2764336,14.3600941 L24.2764336,9.04620246 L17.7932844,9.04620246 L17.7932844,14.3600941 Z M16.6304348,15.5555556 L25.5,15.5555556 L25.5,7.77777778 L16.6304348,7.77777778 L16.6304348,15.5555556 Z" id="Fill-9" fill="#FFFFFF"></path>
            <path d="M27.8973992,14.2788725 L28.1476971,14.2788725 C30.0478326,14.2788725 31.9479681,14.2788725 33.848193,14.2788725 C34.1756916,14.2788725 34.1917936,14.2641159 34.1918831,13.9465399 C34.1923304,12.4229879 34.1923304,10.8992593 34.1918831,9.37570736 C34.1917936,9.06749781 34.1684456,9.04310967 33.8667999,9.04310967 C31.9518147,9.04249113 30.0367401,9.04266785 28.1216654,9.04337475 C28.0500112,9.04337475 27.9783569,9.05221104 27.8973992,9.05751281 L27.8973992,14.2788725 Z M26.6086957,15.5351268 L26.6086957,7.77793065 L26.8506742,7.77793065 C29.2422811,7.77793065 31.6339774,7.77748884 34.0255843,7.77810738 C34.8353403,7.77837247 35.4585804,8.34875454 35.4663631,9.14985197 C35.4825547,10.8202629 35.4816601,12.4911157 35.4670788,14.1615266 C35.4601012,14.9539645 34.857257,15.5436097 34.0327408,15.5482045 C31.5816457,15.5619891 29.1303716,15.5523576 26.679187,15.5512972 C26.6650529,15.5512972 26.65074,15.5451118 26.6086957,15.5351268 Z" id="Fill-11" fill="#FFFFFF"></path>
            <path d="M14.2330182,9.05773775 C14.1695419,9.05172805 14.1259744,9.04395079 14.082407,9.04395079 C12.1274079,9.04333214 10.1724088,9.04545321 8.21732049,9.04050405 C7.9941267,9.0398854 7.94332779,9.13939896 7.94404201,9.33807255 C7.94904155,10.9054552 7.94663106,12.4728378 7.94698817,14.0402205 C7.94707745,14.3399984 7.97011105,14.3620045 8.28213597,14.3620929 C10.1850863,14.3622696 12.0881258,14.3621813 13.9910761,14.3621813 L14.2330182,14.3622034 L14.2330182,9.05773775 Z M15.5217391,7.79172386 L15.5217391,15.5554601 L15.2737262,15.5554601 C12.9007298,15.5554601 10.5276441,15.5557252 8.1545584,15.5553717 C7.30981453,15.5552834 6.67094461,14.9635047 6.66326675,14.1246214 C6.64826812,12.4825594 6.64880379,10.8401439 6.66290964,9.1980819 C6.66978401,8.39225191 7.27490702,7.78633281 8.07001259,7.78323958 C10.5247872,7.77378314 12.9797404,7.77943933 15.4346043,7.77961609 C15.456388,7.77961609 15.4780824,7.78544903 15.5217391,7.79172386 Z" id="Fill-12" fill="#FFFFFF"></path>
            <path d="M38.2019708,23.7777795 C38.9447516,24.915696 38.8553958,26.3051776 37.8674418,27.3444172 C36.8074735,28.4592743 35.1692552,28.4267301 34.2586973,27.7249409 C34.4718357,27.4193385 34.6851449,27.1133881 34.9107555,26.7898602 C35.3920468,27.0314184 35.888971,27.1249613 36.4062266,26.9256932 C36.74964,26.7935149 37.0197576,26.5661405 37.2198258,26.2542728 C37.5483749,25.742354 37.5440182,24.8962913 37.2018008,24.4568573 C37.3667588,24.3443448 37.5305209,24.2324414 37.6946246,24.1209731 C37.859668,24.0088956 38.0251386,23.8974273 38.2019708,23.7777795" id="Fill-13" fill="#FFFFFF"></path>
            <path d="M11.5344134,24.0251652 C10.4851658,23.5347448 9.74283499,23.8945464 9.34926944,24.3878808 C8.82486266,25.0453458 8.85516365,25.640244 9.19889319,26.339963 C8.88911117,26.558518 8.57602991,26.7794728 8.26338276,26.9999992 C7.51184881,26.0633837 7.55308941,24.3182861 8.72979223,23.2759071 C9.72494959,22.3944018 11.4035722,22.2994375 12.1956522,23.1157191 C11.9797251,23.4127826 11.7620615,23.7121601 11.5344134,24.0251652" id="Fill-14" fill="#FFFFFF"></path>
        </g>
    </g>
</svg>
