<?xml version="1.0" encoding="UTF-8"?>
<svg width="52px" height="52px" viewBox="0 0 52 52" version="1.1" xmlns="http://www.w3.org/2000/svg" xmlns:xlink="http://www.w3.org/1999/xlink">
    <!-- Generator: Sketch 50.2 (55047) - http://www.bohemiancoding.com/sketch -->
    <title>stay-with-insurer-icon</title>
    <desc>Created with Sketch.</desc>
    <defs></defs>
    <g id="stay-with-insurer-icon" stroke="none" stroke-width="1" fill="none" fill-rule="evenodd" stroke-linecap="round" stroke-linejoin="round">
        <path d="M25,11 L42,11 L42,16 L25,16 L25,11 Z M19,11.6923077 L19,7.42307692 C19,6.63713324 19.6268014,6 20.4,6 L45.6,6 C46.3731986,6 47,6.63713324 47,7.42307692 L47,41.5769231 C47,42.3628668 46.3731986,43 45.6,43 L38.6,43 M40,26 L43,26 M40,34 L43,34 M16.5,23 C15.1192881,23 14,24.1192881 14,25.5 C14,26.8807119 15.1192881,28 16.5,28 C17.8807119,28 19,26.8807119 19,25.5 C19,24.1192881 17.8807119,23 16.5,23 Z M23.5,36 C22.1192881,36 21,37.1192881 21,38.5 C21,39.8807119 22.1192881,41 23.5,41 C24.8807119,41 26,39.8807119 26,38.5 C26,37.1192881 24.8807119,36 23.5,36 Z M14,40 L26,26 M20,18 C11.7157288,18 5,24.7157288 5,33 C5,41.2842712 11.7157288,48 20,48 C28.2842712,48 35,41.2842712 35,33 C35,24.7157288 28.2842712,18 20,18 Z" id="discount" stroke="#56ADC2" stroke-width="2"></path>
    </g>
</svg>