<?xml version="1.0" encoding="UTF-8"?>
<svg width="52px" height="52px" viewBox="0 0 52 52" version="1.1" xmlns="http://www.w3.org/2000/svg" xmlns:xlink="http://www.w3.org/1999/xlink">
    <!-- Generator: Sketch 50.2 (55047) - http://www.bohemiancoding.com/sketch -->
    <title>trailer</title>
    <desc>Created with Sketch.</desc>
    <defs>
        <polygon id="path-1" points="0 0.0990982511 44.8946343 0.0990982511 44.8946343 36.8159204 0 36.8159204"></polygon>
    </defs>
    <g id="trailer" stroke="none" stroke-width="1" fill="none" fill-rule="evenodd">
        <g id="Group-3" transform="translate(4.000000, 9.000000)">
            <mask id="mask-2" fill="white">
                <use xlink:href="#path-1"></use>
            </mask>
            <g id="Clip-2"></g>
            <path d="M13.8213434,26.4751383 C11.4003795,26.4506557 9.35658434,28.4989095 9.32748795,30.9786458 C9.29766867,33.518208 11.2841747,35.592601 13.7723675,35.620397 C16.2442952,35.6478249 18.2774277,33.620004 18.3144759,31.0905662 C18.3511627,28.5749343 16.3319458,26.5005413 13.8213434,26.4751383 Z M34.8126687,30.4637751 C34.8459217,30.4726109 34.8567651,30.4781333 34.8679699,30.4781333 C36.1686325,30.4786856 37.4696566,30.4950687 38.7701386,30.4731632 C39.5826687,30.4593572 40.2099578,29.8920239 40.3427892,29.1174169 C40.6447771,27.3583522 40.9133313,25.593397 41.0100181,23.8091134 C41.0826687,22.4697502 41.103994,21.1272577 41.1406807,19.7860537 C41.1475482,19.5329443 41.1198976,19.2787303 41.1077892,19.0164169 L34.8126687,19.0164169 L34.8126687,30.4637751 Z M1.13712651,19.0162328 C1.13351205,19.0766109 1.12736747,19.1285214 1.12736747,19.1804318 C1.1268253,21.9738398 1.12556024,24.7674318 1.12953614,27.5608398 C1.12989759,27.7728995 1.14634337,27.9901134 1.19224699,28.1964667 C1.49622289,29.5636259 2.62375301,30.472795 4.02525904,30.4792378 C5.37309036,30.4854965 6.72110241,30.4807104 8.06911446,30.4803423 C8.12043976,30.4803423 8.17194578,30.4753721 8.22218675,30.472795 C8.52146386,27.408606 11.1296566,25.3014468 13.8533313,25.3318199 C15.0555,25.3450736 16.1467048,25.7047652 17.1139337,26.4296706 C18.4527289,27.4332726 19.197488,28.7956458 19.4112831,30.4678249 L22.8448373,30.4678249 L22.8448373,19.0162328 L1.13712651,19.0162328 Z M33.6773675,30.4700338 L33.6773675,30.2165562 C33.6775482,22.6576955 33.6775482,15.0988348 33.6775482,7.53979005 C33.6775482,7.48033234 33.6791747,7.42087463 33.6764639,7.361601 C33.6464639,6.6576806 33.2085723,6.19803383 32.5449578,6.19692935 C30.0656205,6.19306368 27.5861024,6.1928796 25.1065843,6.19711343 C24.4386325,6.19821791 23.9828494,6.67848159 23.9828494,7.36031244 C23.9826687,14.9963025 23.9828494,22.6324766 23.9828494,30.2686507 L23.9827691,30.4700338 L33.6773675,30.4700338 Z M41.0400181,17.8563473 C41.0400181,17.7832677 41.0459819,17.7291483 41.0391145,17.6766856 C40.9030301,16.6127055 40.793512,15.5439393 40.6218253,14.4858498 C40.2934518,12.4600537 39.7015843,10.5100985 38.870259,8.63911343 C37.7459819,6.10857114 36.227006,3.8708995 34.1324277,2.06176517 C33.5306205,1.54210846 32.8565241,1.24684478 32.0626084,1.24684478 C22.6867048,1.24739701 13.3106205,1.24518806 3.93471687,1.25089453 C3.23622289,1.25126269 2.60748795,1.49903383 2.08537952,1.97892935 C1.42628313,2.58473532 1.11977711,3.34001393 1.12176506,4.253601 C1.13278916,8.7107204 1.1268253,13.1678398 1.12700602,17.6249592 L1.12700602,17.853402 L22.8589337,17.853402 L22.8589337,17.6131781 C22.8589337,14.2553821 22.8589337,10.8975861 22.8594759,7.53997413 C22.8594759,7.40927761 22.8623675,7.27858109 22.8686928,7.14806866 C22.9205602,6.04819303 23.8917651,5.06502388 24.9703193,5.06042189 C27.537488,5.04956119 30.1048373,5.05103383 32.6718253,5.06520796 C32.9418253,5.0666806 33.2317048,5.14196915 33.4773072,5.25959602 C34.3825482,5.69273532 34.798753,6.45629751 34.7996566,7.4598995 C34.8029096,10.8473323 34.8011024,14.2345811 34.8011024,17.6220139 L34.8011024,17.8563473 L41.0400181,17.8563473 Z M41.9261024,26.1290687 L43.7696566,26.1290687 L43.7696566,25.9363373 C43.7696566,25.401402 43.7678494,24.8666507 43.7703795,24.3317154 C43.7721867,23.9665015 44.0017048,23.7113672 44.3226687,23.7100786 C44.6448976,23.7089741 44.8876084,23.9622677 44.8903193,24.3263771 C44.8962831,25.1048498 44.895741,25.8835065 44.8906807,26.6619791 C44.8879699,27.0463373 44.6495964,27.2744119 44.2691747,27.2747801 C43.5047169,27.2755164 42.7404398,27.2751483 41.9759819,27.2751483 L41.772488,27.2751483 C41.7153795,27.6475413 41.6638735,28.0105463 41.6029699,28.3717104 C41.5328494,28.7860736 41.4842349,29.2076159 41.3732711,29.6109343 C41.0403795,30.8197851 39.9741145,31.6162975 38.7086928,31.6207154 C37.2323675,31.6258697 35.7562229,31.622004 34.2798976,31.622004 L32.9671265,31.622004 L32.7553193,31.622004 L32.7553193,31.846397 L32.7553193,35.4300587 C32.7553193,35.673596 32.7553193,35.6737801 32.9884518,35.6737801 C36.6817048,35.6739642 40.3753193,35.6737801 44.0685723,35.6743323 C44.1560422,35.6743323 44.2440542,35.6743323 44.3306205,35.6842726 C44.6143554,35.7168547 44.8290542,35.9684915 44.8245361,36.2571284 C44.8201988,36.5349045 44.603512,36.7736557 44.3242952,36.8058697 C44.2664639,36.8124965 44.2079096,36.8147055 44.1497169,36.8147055 C38.7117651,36.8150736 33.2736325,36.8148896 27.8355,36.815994 C27.6374277,36.815994 27.4518253,36.7928 27.3086928,36.6319144 C27.1576084,36.4618249 27.1149578,36.2643075 27.1895964,36.0535363 C27.2611627,35.8506806 27.4095361,35.7201682 27.6249578,35.6875861 C27.7109819,35.6745164 27.7995361,35.6745164 27.8868253,35.6745164 C29.0595361,35.673596 30.2324277,35.6739642 31.4051386,35.6739642 L31.6218253,35.6739642 L31.6218253,31.6363622 L19.4080301,31.6363622 C19.3138735,32.4194368 19.0905,33.1739791 18.6941747,33.8672229 C18.3001988,34.5562328 17.7992349,35.1520985 17.1732108,35.6632876 C17.2321265,35.6667851 17.2910422,35.6732279 17.3501386,35.6734119 C17.840259,35.6743323 18.3303795,35.6702826 18.8205,35.6754368 C19.1598976,35.6791184 19.3617651,35.8468149 19.4199578,36.1558846 C19.4750783,36.4485711 19.2705,36.751198 18.9795361,36.7992428 C18.8936928,36.8134169 18.8051386,36.8145214 18.7178494,36.8145214 C14.4117651,36.8152577 10.1056807,36.8154418 5.79959639,36.8139692 C5.68953614,36.8139692 5.57477711,36.813601 5.47031928,36.7837801 C5.21766867,36.7116209 5.06387349,36.4544617 5.08881325,36.1752129 C5.11068072,35.927994 5.31598193,35.7161184 5.56863253,35.685193 C5.64941566,35.6754368 5.73146386,35.6743323 5.81296988,35.6743323 C7.29525904,35.6737801 8.77718675,35.6739642 10.2592952,35.6739642 L10.5215241,35.6739642 C9.18562048,34.6217652 8.43056024,33.2895811 8.23212651,31.622004 L8.01941566,31.622004 C6.6831506,31.622004 5.34688554,31.6260537 4.01098193,31.6208995 C2.16128313,31.6139045 0.606704819,30.417203 0.142066265,28.6172726 C0.0441144578,28.2384368 0.0108614458,27.8321731 0.0105,27.4384269 C0.00309036145,19.7122378 0.00869277108,11.9862328 -0.000162650602,4.2598597 C-0.000885542169,3.36044677 0.213451807,2.54110846 0.729777108,1.82025274 C1.54790964,0.678222886 2.66875301,0.109969154 4.05688554,0.107023881 C6.23893373,0.102237811 8.42116265,0.105735323 10.6033916,0.105735323 C17.6808614,0.105735323 24.7586928,0.112730348 31.8363434,0.0991084577 C33.0797169,0.0967154229 34.1230301,0.515128358 35.0470663,1.34900896 C37.3666446,3.44217811 39.0208012,6.0007005 40.1978494,8.89829751 C40.9709819,10.8005761 41.4925482,12.7744617 41.8205602,14.8052279 C42.1612229,16.9155164 42.3041747,19.0410836 42.2579096,21.1754866 C42.2297169,22.4745363 42.1127892,23.7715612 42.0296566,25.0691383 C42.007247,25.4179692 41.962247,25.7653274 41.9261024,26.1290687 Z" id="Fill-1" fill="#FFFFFF" mask="url(#mask-2)"></path>
        </g>
        <path d="M19.0883,21.8260744 L19.262767,21.8260744 C20.0283415,21.8260744 20.7940984,21.8275904 21.5596729,21.8256954 C22.3336422,21.8236109 22.8641606,21.2698923 22.8652556,20.4607278 C22.8672631,19.1581055 22.8592332,17.8554833 22.868358,16.5528611 C22.8741979,15.7052282 22.255351,15.146393 21.5421532,15.1704595 C20.7831486,15.1958525 20.0228666,15.175955 19.263132,15.1765235 C19.206558,15.176713 19.1499839,15.1822085 19.0883,15.1856195 L19.0883,21.8260744 Z M17.9396646,15.1761445 L17.4580553,15.1761445 C14.7837459,15.1761445 12.1094365,15.174818 9.43494458,15.177092 C8.65750783,15.1776605 8.14140663,15.7177351 8.14085914,16.5215937 C8.14012915,17.8306589 8.13830419,19.1395346 8.14213662,20.4485998 C8.14450908,21.2916847 8.66097527,21.8256954 9.46615155,21.8258849 C12.2289719,21.8264534 14.9917923,21.8260744 17.7544302,21.8256954 C17.8162967,21.8256954 17.8783456,21.8203894 17.9396646,21.8175469 L17.9396646,15.1761445 Z M15.4962137,14.0040877 C17.5761308,14.0040877 19.6558653,13.9959392 21.7355999,14.0073092 C22.8457284,14.0131837 23.8540237,14.9900556 23.9642519,16.1374774 C23.9888889,16.3923547 23.9961888,16.6498851 23.9967363,16.9062784 C24.0002037,18.0991802 24.0016637,19.2922715 23.9972838,20.4851732 C23.9936339,21.5891996 23.3749694,22.516233 22.3971511,22.8546798 C22.1447579,22.9420392 21.8679101,22.9932042 21.6021946,22.9937727 C17.5370764,23.0023002 13.4719582,22.9994577 9.40647506,22.9998367 C8.10344728,22.9998367 7.02470817,21.9596718 7.01302837,20.5659002 C7.00080108,19.1285436 6.98474135,17.6896709 7.03036558,16.2538303 C7.0699674,15.0133641 8.11111215,14.0131837 9.31011671,14.0063617 C11.3721491,13.9944232 13.4343639,14.0029507 15.4962137,14.0029507 L15.4962137,14.0040877 Z" id="Fill-4" fill="#FFFFFF"></path>
        <path d="M35.0023562,25.4916103 C35.0023562,25.0013249 34.9959414,24.5113626 35.0042807,24.0214003 C35.0132615,23.4500467 35.4266986,23.017252 35.9645839,23.000457 C36.4726401,22.9843079 36.9614518,23.3980467 36.9768474,23.9416239 C37.006035,24.983561 37.0092424,26.0274359 36.9771682,27.06905 C36.9595273,27.6578445 36.4854698,28.0286268 35.905888,27.9982666 C35.4007185,27.9721051 35.0171104,27.5454471 35.0020355,26.9931494 C35.001394,26.9721556 35.001394,26.9514848 35.001394,26.9304911 L35.001394,25.4916103 L35.0023562,25.4916103 Z" id="Fill-6" fill="#FFFFFF"></path>
        <path d="M17.9594355,41.9992569 C19.0278393,42.0290881 19.9736162,41.1566668 19.9992691,40.1173597 C20.0285868,38.9545065 19.1724543,38.025237 18.0485162,38.0004715 C16.9739106,37.9768317 16.0264423,38.8453131 16.0007894,39.8775845 C15.9709079,41.0770231 16.7923666,41.9666115 17.9594355,41.9992569 M15.0009205,39.9849525 C14.9599235,38.4459046 16.2941299,37.0470975 17.8466119,37.001401 C19.5398806,36.9516527 20.9319785,38.2329545 20.9975287,39.8591184 C21.0626284,41.4688496 19.835645,42.979084 18.0171327,42.9997937 C16.3105738,43.0193779 14.9903334,41.6419559 15.0009205,39.9849525" id="Fill-8" fill="#FFFFFF"></path>
        <path d="M16.9974956,18.4987469 C16.9974956,18.9954063 17.0026456,19.4920657 16.996208,19.9887252 C16.9891267,20.5745447 16.5536255,21.0059038 15.9861543,20.9999389 C15.4225456,20.9942879 15.006679,20.5773702 15.0037821,19.9987714 C14.998632,19.0054525 14.9989539,18.0121336 15.0034602,17.0188147 C15.0060352,16.4336231 15.4453989,15.9937875 16.0061107,16.0000664 C16.5520161,16.0063453 16.9859079,16.4414717 16.9955643,17.0087685 C17.004255,17.505114 16.9974956,18.0020874 16.9974956,18.4987469" id="Fill-10" fill="#FFFFFF"></path>
    </g>
</svg>
