<?xml version="1.0" encoding="UTF-8"?>
<svg width="52px" height="52px" viewBox="0 0 52 52" version="1.1" xmlns="http://www.w3.org/2000/svg" xmlns:xlink="http://www.w3.org/1999/xlink">
    <!-- Generator: Sketch 50.2 (55047) - http://www.bohemiancoding.com/sketch -->
    <title>vintage</title>
    <desc>Created with Sketch.</desc>
    <defs>
        <polygon id="path-1" points="0 0.14203937 50.9866887 0.14203937 50.9866887 20.9531537 0 20.9531537"></polygon>
    </defs>
    <g id="vintage" stroke="none" stroke-width="1" fill="none" fill-rule="evenodd">
        <g id="Group-3" transform="translate(1.000000, 16.000000)">
            <mask id="mask-2" fill="white">
                <use xlink:href="#path-1"></use>
            </mask>
            <g id="Clip-2"></g>
            <path d="M3.00322642,8.72174646 L1.22111321,8.72174646 C1.19914151,8.72174646 1.1815,8.73993543 1.1815,8.76258898 L1.1815,12.3315969 C1.1815,12.354085 1.19914151,12.3724394 1.22111321,12.3724394 L2.32803774,12.3724394 C2.35049057,12.3724394 2.36829245,12.3532583 2.36765094,12.3301087 C2.32691509,11.0972268 2.31392453,9.87641575 3.03530189,8.78557323 C3.05326415,8.75845512 3.03514151,8.72174646 3.00322642,8.72174646 Z M14.2091132,1.42829764 C14.2091132,1.40580945 14.1914717,1.38778583 14.1698208,1.38762047 C14.0601226,1.38629764 13.9563585,1.38051024 13.8540377,1.39010079 C13.7173962,1.40283307 13.5812358,1.42714016 13.4463585,1.45491969 C12.0332736,1.74693543 10.9141604,2.92095118 10.7215472,4.37970709 C10.6455283,4.95530551 10.6758396,5.54578583 10.6588396,6.12948661 C10.6578774,6.16106929 10.6622075,6.19281732 10.666217,6.22820315 C10.6686226,6.2490378 10.6853019,6.26474646 10.7055094,6.26474646 L14.1695,6.26474646 C14.1914717,6.26474646 14.2091132,6.24655748 14.2091132,6.22406929 L14.2091132,1.42829764 Z M44.4495472,19.7159906 C46.0634245,19.7462504 47.3955189,18.417463 47.4267925,16.7377937 C47.4587075,15.0305102 46.2332642,13.6597228 44.5661415,13.6079669 C42.8310189,13.5540614 41.5565,14.8964079 41.5061415,16.4924079 C41.4482453,18.3303213 42.7089717,19.6834157 44.4495472,19.7159906 Z M10.0468396,19.7159906 C11.6459623,19.7515417 13.0152642,18.4047307 13.0321038,16.7455654 C13.0502264,14.958085 11.7914245,13.6577386 10.163434,13.6082976 C8.4284717,13.555715 7.14833962,14.8982268 7.10407547,16.5248173 C7.055,18.3328016 8.31765094,19.6777937 10.0468396,19.7159906 Z M31.4386132,6.26937638 C31.4727736,6.26937638 31.4907358,6.22770709 31.4681226,6.20141575 C31.448717,6.1787622 31.4323585,6.15974646 31.4148774,6.14188819 C29.9078113,4.58623465 28.4013868,3.02991969 26.8899906,1.47856535 C26.8314528,1.41837638 26.7264057,1.37604567 26.6428491,1.37588031 C22.955934,1.37091969 19.2688585,1.3715811 15.581783,1.37207717 C15.5388019,1.37207717 15.4959811,1.37687244 15.4544434,1.38084094 C15.4339151,1.3828252 15.4181981,1.40035276 15.4181981,1.42151811 L15.4181981,6.22869921 C15.4181981,6.2511874 15.4358396,6.26937638 15.4578113,6.26937638 L31.4386132,6.26937638 Z M40.3209528,15.8870457 C40.3195094,14.3717386 40.3198302,12.8565969 40.3198302,11.3412898 L40.3198302,11.2174394 C40.3198302,11.1946205 40.3379528,11.1754394 40.3602453,11.1754394 L41.4658868,11.1754394 C41.4878585,11.1754394 41.5055,11.1937937 41.5055,11.2162819 L41.5055,13.6820457 C41.5194528,13.6898173 41.5332453,13.6977543 41.5471981,13.7056913 C41.5630755,13.6774157 41.5739811,13.6443449 41.5954717,13.621526 C42.5498774,12.6064157 43.7308962,12.224778 45.0585,12.438085 C46.631,12.6907465 47.7270189,13.6347543 48.3274717,15.1500614 C48.5757358,15.776589 48.6180755,16.5517701 48.5136698,17.126211 C48.5080566,17.1571323 48.5072547,17.1902031 48.5098208,17.223274 C48.5115849,17.2444394 48.5287453,17.2618016 48.549434,17.2618016 L49.7676604,17.2618016 C49.7899528,17.2618016 49.8080755,17.2426205 49.8080755,17.2198016 L49.8080755,17.0529591 C49.8080755,15.1546913 49.8050283,13.256589 49.8101604,11.3584866 C49.8114434,10.9320378 49.7509811,10.5204709 49.6278113,10.1155181 C49.5952547,10.0080378 49.4985472,9.93495118 49.3891698,9.93594331 C48.8050755,9.9414 48.2206604,9.93842362 47.636566,9.93842362 L47.4814811,9.93842362 C47.4593491,9.93842362 47.441066,9.91973858 47.441066,9.89691969 L47.441066,8.74555748 C47.441066,8.72290394 47.4587075,8.70454961 47.4806792,8.70454961 L48.7553585,8.70454961 C48.7895189,8.70454961 48.8074811,8.66288031 48.7848679,8.63642362 C48.7566415,8.60368346 48.7346698,8.57805354 48.7117358,8.55374646 C48.0153774,7.82453386 47.1607264,7.49316378 46.1787358,7.49299843 C36.3793585,7.4920063 26.5801415,7.49250236 16.7807642,7.49250236 L16.6312925,7.49250236 C16.6094811,7.49250236 16.5916792,7.51085669 16.5916792,7.53334488 L16.5916792,12.3317622 C16.5916792,12.3544157 16.5738774,12.3726047 16.5519057,12.3726047 L15.4428962,12.3726047 C15.4210849,12.3726047 15.403283,12.3544157 15.403283,12.3317622 L15.403283,7.53334488 C15.403283,7.51085669 15.3856415,7.49250236 15.3636698,7.49250236 L15.2510849,7.49250236 C12.5628396,7.49250236 9.87475472,7.49266772 7.18650943,7.49233701 C6.6654434,7.49217165 6.14614151,7.59138425 5.66917925,7.80783307 C5.2445,8.00063622 4.8825283,8.26553386 4.55872642,8.64684094 C4.53643396,8.67313228 4.55503774,8.71463622 4.58887736,8.71463622 L7.055,8.71463622 C7.07665094,8.71463622 7.09461321,8.7328252 7.09461321,8.75547874 L7.09461321,9.8975811 C7.09461321,9.92006929 7.07665094,9.93842362 7.055,9.93842362 L6.89590566,9.93842362 L4.17430189,9.93842362 C3.76421698,9.93842362 3.76004717,9.93726614 3.65612264,10.3499906 C3.59309434,10.6008331 3.5289434,10.8534945 3.55813208,11.132778 C3.56037736,11.1534472 3.57785849,11.1693213 3.59806604,11.1693213 L5.86099057,11.1693213 C5.88296226,11.1693213 5.90060377,11.1876756 5.90060377,11.2101638 L5.90060377,12.3494551 C5.90060377,12.3719433 5.88296226,12.3902976 5.86099057,12.3902976 L3.59630189,12.3902976 C3.57449057,12.3902976 3.55668868,12.4084866 3.55668868,12.4311402 L3.55668868,17.2254236 C3.55668868,17.2480772 3.57449057,17.2662661 3.59630189,17.2662661 L5.95833962,17.2662661 C5.98448113,17.2662661 6.00292453,17.2409669 5.99618868,17.2151717 C5.62427358,15.7646835 6.54965094,13.7989512 8.06986792,12.9234 C9.49353774,12.1034079 11.6456415,12.1503685 12.9639434,13.6354157 C12.9737264,13.6464945 12.9889623,13.6514551 13.0030755,13.6479827 C13.0848679,13.6279748 13.148217,13.6039984 13.2112453,13.6039984 C17.0418585,13.6018488 20.8724717,13.6021795 24.7030849,13.6021795 L24.8445377,13.6021795 C24.8665094,13.6021795 24.8843113,13.6203685 24.8843113,13.643022 L24.8843113,14.7899197 C24.8843113,14.8124079 24.8665094,14.8307622 24.8445377,14.8307622 L13.9534717,14.8307622 C13.9278113,14.8307622 13.9088868,14.8557307 13.9148208,14.8813606 C14.0062358,15.2770535 14.104066,15.6553843 14.1762358,16.0388409 C14.2496887,16.4295732 14.1605189,17.2452661 14.0258019,17.635337 C14.0166604,17.6619591 14.11,17.2667622 14.1375849,17.2667622 L37.9024623,17.2667622 C37.924434,17.2667622 37.9420755,17.2484079 37.9420755,17.2259197 L37.9420755,12.4337858 C37.9420755,12.4111323 37.9598774,12.3929433 37.9818491,12.3929433 L39.0969528,12.3929433 C39.1187642,12.3929433 39.136566,12.4111323 39.136566,12.4337858 L39.136566,17.2269118 C39.136566,17.2494 39.1543679,17.2677543 39.1761792,17.2677543 L40.3684245,17.2677543 L40.3209528,15.8870457 Z M3.86990566,7.48902992 C3.96003774,7.48853386 4.06604717,7.4460378 4.13725472,7.38750236 C4.98372642,6.69152598 5.93524528,6.28888819 7.02645283,6.27747874 C7.77958491,6.26954173 8.53303774,6.27499843 9.28649057,6.27433701 L9.43451887,6.27433701 C9.45633019,6.27433701 9.47429245,6.25565197 9.47429245,6.23316378 C9.47461321,5.81663622 9.47766038,5.41565197 9.47333019,5.01483307 C9.46851887,4.57416378 9.52192453,4.14043937 9.64926415,3.72209291 C10.201283,1.90898268 11.3705943,0.750675591 13.1571981,0.281565354 C13.5223774,0.185494488 13.9117736,0.151100787 14.2901038,0.150274016 C18.5660849,0.141344882 22.8422264,0.145148031 27.1182075,0.142006299 C27.2306321,0.141840945 27.303283,0.184171654 27.3785,0.262053543 C29.2706321,2.21769921 31.1656509,4.17053386 33.0565,6.12750236 C33.1573774,6.23184094 33.2548868,6.2779748 33.4005094,6.27780945 C37.6553208,6.27351024 41.9102925,6.27764409 46.1651038,6.27185669 C47.0896792,6.27053386 47.9518679,6.48780945 48.7300189,7.00106929 C49.9751887,7.82205354 50.7312075,8.99028189 50.9372925,10.5224551 C50.9704906,10.7689984 50.983,11.0181874 50.9834811,11.267211 C50.9884528,13.6064787 50.9862075,15.9457465 50.9862075,18.2850142 L50.9862075,18.4516913 C50.9862075,18.4743449 50.9682453,18.4928646 50.9462736,18.4928646 L50.798566,18.4928646 C50.008066,18.4928646 49.2174057,18.4953449 48.4269057,18.4902189 C48.3125566,18.4893921 48.2484057,18.5218016 48.1908302,18.6282898 C47.4962358,19.9132583 46.4446415,20.682652 45.033,20.9073685 C43.355934,21.1742504 41.5933868,20.2535575 40.7769057,18.6893055 C40.6986415,18.5393291 40.6144434,18.4888961 40.4500566,18.4888961 C31.6591321,18.4933606 22.8682075,18.493526 14.0774434,18.4887307 C13.9167453,18.4885654 13.838,18.5396598 13.762783,18.6838488 C12.9745283,20.1963449 11.3425283,21.0930614 9.68310377,20.9209276 C8.1904717,20.7659906 7.09477358,19.9797307 6.35575472,18.6482976 C6.2935283,18.5361874 6.23033962,18.4887307 6.09995283,18.4893921 C4.92214151,18.4953449 3.74433019,18.4928646 2.56651887,18.4928646 L2.39619811,18.4928646 C2.37422642,18.4928646 2.35658491,18.4746756 2.35658491,18.452022 L2.35658491,13.6521165 C2.35658491,13.6296283 2.33862264,13.611274 2.3169717,13.611274 L0.0396132075,13.611274 C0.0178018868,13.611274 0,13.5929197 0,13.5704315 L0,7.53433701 L3.86990566,7.48902992 Z" id="Fill-1" fill="#FFFFFF" mask="url(#mask-2)"></path>
        </g>
        <path d="M10.9938502,31.9389348 C10.5967062,31.9396576 10.3274927,32.2058181 10.3285754,32.5970181 C10.329658,32.9896637 10.5995932,33.2646782 10.9887979,33.2693762 C11.383957,33.2740742 11.6607489,32.9938196 11.6576814,32.5925008 C11.6544336,32.1908206 11.3978508,31.938212 10.9938502,31.9389348 M10.9976394,30.6000008 C12.0642082,30.6007236 12.9925615,31.5285813 12.9999595,32.6011741 C13.007177,33.647747 12.0494123,34.6016245 10.9925871,34.5999983 C9.91194411,34.5981914 8.99640187,33.6607569 9.00001063,32.5599761 C9.00343895,31.5177398 9.93955112,30.599278 10.9976394,30.6000008" id="Fill-7" fill="#FFFFFF"></path>
        <path d="M44.8432917,32.5925893 C44.8427506,32.9983986 45.1151102,33.2749635 45.5103022,33.2697215 C45.8962952,33.2646601 46.1771322,32.9797802 46.172623,32.5978314 C46.1681137,32.202687 45.9013456,31.9394984 45.5056125,31.9391369 C45.097975,31.9387754 44.8438328,32.1896722 44.8432917,32.5925893 M45.527257,30.6004181 C46.6377987,30.6250017 47.5257632,31.5687568 47.4994291,32.6963464 C47.4756201,33.7096947 46.4971097,34.6223589 45.4587162,34.599583 C44.3963334,34.5762647 43.4825759,33.6220254 43.5002523,32.5546294 C43.5175678,31.5040443 44.4789431,30.5774614 45.527257,30.6004181" id="Fill-9" fill="#FFFFFF"></path>
    </g>
</svg>
