<svg id="Layer_1" data-name="Layer 1" xmlns="http://www.w3.org/2000/svg" viewBox="0 0 68 68"><defs><style>.cls-1{fill:none;stroke:#00b4d5;stroke-linecap:round;stroke-linejoin:round;stroke-width:2px;}.cls-2{fill:#00b4d5;}</style></defs><title>home-icons</title><circle class="cls-1" cx="33.92" cy="34" r="32"/><path class="cls-2" d="M48.64,20.08H41V17.72a1,1,0,0,0-2,0v2.36H29.78V17.72a1,1,0,0,0-2,0v2.36H20.13a3,3,0,0,0-3,3V48.23a3,3,0,0,0,3,3H48.64a3,3,0,0,0,3-3V23.08A3,3,0,0,0,48.64,20.08Zm1,28.15a1,1,0,0,1-1,1H20.13a1,1,0,0,1-1-1V23.08a1,1,0,0,1,1-1h7.65v1.24a1,1,0,0,0,2,0V22.08H39v1.24a1,1,0,0,0,2,0V22.08h7.65a1,1,0,0,1,1,1Z"/><path class="cls-2" d="M27.1,29.86H24.86a.75.75,0,0,0-.75.75v2.24a.74.74,0,0,0,.75.75H27.1a.75.75,0,0,0,.75-.75V30.61A.76.76,0,0,0,27.1,29.86Zm-.75,2.24h-.74v-.74h.74Z"/><path class="cls-2" d="M35.51,29.86H33.27a.75.75,0,0,0-.75.75v2.24a.74.74,0,0,0,.75.75h2.24a.75.75,0,0,0,.75-.75V30.61A.76.76,0,0,0,35.51,29.86Zm-.75,2.24H34v-.74h.74Z"/><path class="cls-2" d="M43.91,29.86H41.67a.76.76,0,0,0-.75.75v2.24a.75.75,0,0,0,.75.75h2.24a.74.74,0,0,0,.75-.75V30.61A.75.75,0,0,0,43.91,29.86Zm-.75,2.24h-.74v-.74h.74Z"/><path class="cls-2" d="M27.1,38.27H24.86a.74.74,0,0,0-.75.75v2.24a.75.75,0,0,0,.75.75H27.1a.76.76,0,0,0,.75-.75V39A.75.75,0,0,0,27.1,38.27Zm-.75,2.24h-.74v-.74h.74Z"/><path class="cls-2" d="M35.51,38.27H33.27a.74.74,0,0,0-.75.75v2.24a.75.75,0,0,0,.75.75h2.24a.76.76,0,0,0,.75-.75V39A.75.75,0,0,0,35.51,38.27Zm-.75,2.24H34v-.74h.74Z"/><path class="cls-2" d="M43.91,38.27H41.67a.75.75,0,0,0-.75.75v2.24a.76.76,0,0,0,.75.75h2.24a.75.75,0,0,0,.75-.75V39A.74.74,0,0,0,43.91,38.27Zm-.75,2.24h-.74v-.74h.74Z"/></svg>