<svg id="Layer_1" data-name="Layer 1" xmlns="http://www.w3.org/2000/svg" viewBox="0 0 68 68"><defs><style>.cls-1{fill:none;stroke:#00b4d5;stroke-linecap:round;stroke-linejoin:round;stroke-width:2px;}.cls-2{fill:#00b4d5;}</style></defs><title>home-icons</title><circle class="cls-1" cx="33.92" cy="34" r="32"/><path class="cls-2" d="M49,26.08H45a5.42,5.42,0,0,0,1.76-3.95,3.37,3.37,0,0,0-1.78-3.3,5.58,5.58,0,0,0-2.52-.45c-1.08,0-4.69.52-8.25,6.61C30.61,18.9,27,18.38,25.9,18.38a5.73,5.73,0,0,0-2.49.45,3.36,3.36,0,0,0-1.79,3.3,5.43,5.43,0,0,0,1.77,3.95H19.07A2.11,2.11,0,0,0,17,28.13v5a1,1,0,0,0,1,1h.66V48a2.15,2.15,0,0,0,2.15,2.1H47.25a2,2,0,0,0,2-2.11V34.13h.66a1,1,0,0,0,1-1V28A1.75,1.75,0,0,0,49,26.08Zm-.15,6.05H34.92V28.08H48.87ZM42.45,20.38a3.72,3.72,0,0,1,1.59.24c.19.09.68.34.68,1.51,0,2.59-2.93,3.95-4.5,3.95H35.85C39,20.69,41.84,20.38,42.45,20.38ZM23.62,22.13c0-1,.37-1.35.68-1.51a4,4,0,0,1,1.62-.24c.58,0,3.46.31,6.57,5.7H28.12C26.55,26.08,23.62,24.72,23.62,22.13Zm-4.55,5.95H32.92v4.05H19v-4A.15.15,0,0,1,19.07,28.08Zm1.7,20a.18.18,0,0,1-.15-.1V34.13h12.3V48.08ZM47.21,48v.11H34.92V34.13H47.21Z"/></svg>