<svg id="Layer_1" data-name="Layer 1" xmlns="http://www.w3.org/2000/svg" viewBox="0 0 68 68"><defs><style>.cls-1{fill:none;stroke:#00b4d5;stroke-linecap:round;stroke-linejoin:round;stroke-width:2px;}.cls-2{fill:#00b4d5;}</style></defs><title>home-icons</title><circle class="cls-1" cx="33.92" cy="34" r="32"/><path class="cls-2" d="M50.87,18.69H17a.81.81,0,0,0-.81.81V46.29a.81.81,0,0,0,.81.81H29.53v6.31a.81.81,0,0,0,.38.69.83.83,0,0,0,.43.13.81.81,0,0,0,.34-.08l3-1.4,3,1.4a.86.86,0,0,0,.78,0,.82.82,0,0,0,.37-.69V47.1h13a.81.81,0,0,0,.81-.81V19.5A.81.81,0,0,0,50.87,18.69Zm-18,26.52v6.13l-1.76.81V44.73A6.65,6.65,0,0,0,32.91,45.21Zm1-12a5.22,5.22,0,1,1-5.22,5.22A5.22,5.22,0,0,1,33.86,33.22ZM37.9,44a6.84,6.84,0,1,0-8.37-.23v1.75H17.77V20.31H50.06V45.48H37.9Zm-1.62.87v7.32l-1.75-.81v-6.1A6.2,6.2,0,0,0,36.28,44.83Z"/><path class="cls-2" d="M31.1,41.2a.68.68,0,0,0,.28.67.65.65,0,0,0,.72.05L33.86,41l1.76.92a.72.72,0,0,0,.32.08.67.67,0,0,0,.41-.13.69.69,0,0,0,.27-.67l-.34-2,1.43-1.39a.7.7,0,0,0,.17-.7.68.68,0,0,0-.55-.47l-2-.29-.89-1.78a.66.66,0,0,0-.61-.37h0a.66.66,0,0,0-.61.37l-.89,1.78-2,.29a.67.67,0,0,0-.55.47.7.7,0,0,0,.17.7l1.43,1.39ZM35,40.07l-.85-.45a.66.66,0,0,0-.64,0l-.85.45.16-1a.66.66,0,0,0-.2-.61L32,37.84l1-.14a.71.71,0,0,0,.51-.38l.43-.86.43.86a.71.71,0,0,0,.51.38l1,.14-.69.67h0a.68.68,0,0,0-.2.6Z"/><path class="cls-2" d="M42,23.34H25.69a.81.81,0,0,0,0,1.62H42a.81.81,0,1,0,0-1.62Z"/><path class="cls-2" d="M42,27.47H25.69a.81.81,0,1,0,0,1.62H42a.81.81,0,1,0,0-1.62Z"/></svg>