<svg id="Layer_1" data-name="Layer 1" xmlns="http://www.w3.org/2000/svg" viewBox="0 0 68 68"><defs><style>.cls-1{fill:none;stroke:#00b4d5;stroke-linecap:round;stroke-linejoin:round;stroke-width:2px;}.cls-2{fill:#00b4d5;}</style></defs><title>home-icons</title><circle class="cls-1" cx="33.92" cy="34" r="32"/><path class="cls-2" d="M49.59,28.55l-15-15a1,1,0,0,0-1.41,0l-15,15a1,1,0,0,0-.29.71V50.08a1,1,0,0,0,1,1H30.68a1,1,0,0,0,1-1v-9h4.47v9a1,1,0,0,0,1,1H48.88a1,1,0,0,0,1-1V29.26A1,1,0,0,0,49.59,28.55ZM38.15,44.2V41.11h9.73V44.2Zm-8.47,0H20V41.11h9.73ZM21.3,39.11H20v-3H21.3a1.51,1.51,0,0,0,0,3Zm-1.35-5v-3H47.88v3Zm3.57-8a1.57,1.57,0,0,0,.23,0H44.08a1.57,1.57,0,0,0,.23,0l3,3H20.48Zm4.93-4.94H39.38l3,3H25.47ZM46.51,36.12h1.37v3H46.51a1.51,1.51,0,0,0,0-3ZM33.92,15.71l3.46,3.46H30.45ZM20,46.2h1.16A1.5,1.5,0,0,0,21,49.08H20Zm2,2.88a1.5,1.5,0,0,0-.11-2.88h7.81v2.88Zm9-10H21.69a1.51,1.51,0,0,0,0-3H46.12a1.51,1.51,0,0,0,0,3H31Zm7.2,7.09h7.79a1.5,1.5,0,0,0-.11,2.88H38.15Zm8.66,2.88a1.5,1.5,0,0,0-.11-2.88h1.18v2.88Z"/></svg>