<svg id="Layer_1" data-name="Layer 1" xmlns="http://www.w3.org/2000/svg" viewBox="0 0 68 68"><defs><style>.cls-1{fill:#00b4d5;}.cls-2{fill:none;stroke:#00b4d5;stroke-linecap:round;stroke-linejoin:round;stroke-width:2px;}</style></defs><title>group-discount</title><path class="cls-1" d="M35.29,32.75V24.89a8.29,8.29,0,0,1,4.06,1.84,1,1,0,0,0,.7.27,1,1,0,0,0,1-1,1.07,1.07,0,0,0-.52-.89A10,10,0,0,0,35.35,23V22a1,1,0,1,0-1.93,0v.89c-3.64.19-6.26,2.53-6.26,5.64s1.89,4.79,6.32,5.81v8a9.41,9.41,0,0,1-5.39-2.61,1,1,0,0,0-.71-.28,1,1,0,0,0-.58,1.81,11.41,11.41,0,0,0,6.62,2.93v2.13a1,1,0,1,0,1.93,0V44.28c3.77-.21,6.38-2.55,6.38-5.75C41.73,35.51,39.74,33.73,35.29,32.75Zm0,2c3.69.87,4.42,2.08,4.42,3.86,0,2.12-1.8,3.65-4.42,3.79Zm-6.11-6.34c0-2,1.79-3.53,4.3-3.68v7.57C29.89,31.42,29.18,30.21,29.18,28.45Z"/><polyline class="cls-2" points="40.72 13.01 36.32 6.24 43.66 2"/><path class="cls-2" d="M38.71,6.52C52.2,8.19,62.6,19.18,62.6,33.89,62.6,47,54.34,58,43.06,61.45"/><polyline class="cls-2" points="26.89 54.55 31.55 61.72 23.77 66.22"/><path class="cls-2" d="M29.16,61.45A27,27,0,0,1,5.27,34.08C5.27,21,13.53,10,24.82,6.52"/></svg>