<svg id="Layer_1" data-name="Layer 1" xmlns="http://www.w3.org/2000/svg" viewBox="0 0 68 68"><defs><style>.cls-1{fill:none;stroke:#00b4d5;stroke-linecap:round;stroke-linejoin:round;stroke-width:2px;}.cls-2{fill:#00b4d5;}</style></defs><title>home-icons</title><circle class="cls-1" cx="33.92" cy="34" r="32"/><path class="cls-2" d="M49,22.2a.77.77,0,0,0-.65-.31H42.82a.82.82,0,0,0-.85.85V38.11l-.73.58V26.36a.83.83,0,0,0-.85-.85H34.81a.83.83,0,0,0-.86.85V37l-.72-.8V29.7a.83.83,0,0,0-.86-.85H26.8a.83.83,0,0,0-.86.85v5.54l-.72.56V34.33a.83.83,0,0,0-.86-.85H18.83a.83.83,0,0,0-.85.85V47.44a.83.83,0,0,0,.85.85h5.53a.83.83,0,0,0,.86-.85V38l.72-.57V47.44a.83.83,0,0,0,.86.85h5.53a.83.83,0,0,0,.85-.85V38.78l.73.8v7.86a.83.83,0,0,0,.85.85h5.53a.83.83,0,0,0,.85-.85V40.9l.73-.59v7.18a.83.83,0,0,0,.85.85h5.53a.83.83,0,0,0,.86-.85V22.79A.71.71,0,0,0,49,22.2ZM43.67,38.89l2-1.64a.82.82,0,0,0,.84.7.83.83,0,0,0,.85-.86V35.42a.83.83,0,0,0-.85-.85H44.63a.83.83,0,0,0-.85.85.81.81,0,0,0,.46.77l-.62.5V23.55h3.83l0,23H43.67Zm-4.18,1.17L37.9,41.35,35.66,38.9V27.22h3.83Zm-3.78,1.38,1.55,1.69a.9.9,0,0,0,.6.25,1,1,0,0,0,.52-.18l1.15-.93v4.32H35.71Zm-6.19-6.75,2,2.21v9.69H27.69V36.09Zm2-.28L30.16,33a.8.8,0,0,0-.6-.26.86.86,0,0,0-.51.18L27.65,34v-3.4h3.83ZM20.92,40.18a.82.82,0,0,0,.56.32.86.86,0,0,0,.63-.15l1.4-1.07v7.31H19.68V35.18h3.83V37.1L21.09,39A.88.88,0,0,0,20.92,40.18Z"/></svg>