<svg id="Layer_1" data-name="Layer 1" xmlns="http://www.w3.org/2000/svg" viewBox="0 0 68 68"><defs><style>.cls-1{fill:none;stroke:#00b4d5;stroke-linecap:round;stroke-linejoin:round;stroke-width:2px;}.cls-2{fill:#00b4d5;}</style></defs><title>home-icons</title><circle class="cls-1" cx="33.92" cy="34" r="32"/><path class="cls-2" d="M53.46,33.22,42,21.77a1,1,0,0,0-1.41,0l-5.45,5.44v-1.3a1,1,0,0,0-.29-.71L24.79,15.13a1,1,0,0,0-1.42,0L13.3,25.2a1,1,0,0,0-.3.71v14a1,1,0,0,0,1,1h7.9a1,1,0,0,0,1-1V34h2.35v5.89a1,1,0,0,0,1,1h2.6v8.94a1,1,0,0,0,1,1h9a1,1,0,0,0,1-1V43h3v6.83a1,1,0,0,0,1,1h9a1,1,0,0,0,1-1V33.93A1,1,0,0,0,53.46,33.22Zm-26.21,5.7V33a1,1,0,0,0-1-1H21.9a1,1,0,0,0-1,1v5.89H15V26.32l9.08-9.07,9.07,9.07v2.89l-.68.69-3.33,3.32a1.05,1.05,0,0,0-.29.71v5Zm24.51,9.94h-7V42a1,1,0,0,0-1-1h-5a1,1,0,0,0-1,1v6.83h-7V34.35L35.15,30l.5-.5,5.65-5.65L51.76,34.35Z"/></svg>