<svg id="Layer_1" data-name="Layer 1" xmlns="http://www.w3.org/2000/svg" viewBox="0 0 68 68"><defs><style>.cls-1{fill:none;stroke:#00b4d5;stroke-linecap:round;stroke-linejoin:round;stroke-width:2px;}.cls-2{fill:#00b4d5;}</style></defs><title>home-icons</title><circle class="cls-1" cx="33.92" cy="34" r="32"/><path class="cls-2" d="M48.88,51.08H19a1,1,0,0,1-1-1V29.26a1,1,0,0,1,.29-.71l15-15a1,1,0,0,1,1.41,0l15,15a1,1,0,0,1,.29.71V50.08A1,1,0,0,1,48.88,51.08ZM20,49.08H47.88V29.67l-14-14-14,14Z"/><path class="cls-2" d="M31.54,44.14a1,1,0,0,1-.71-.3l-5.5-5.5a1,1,0,0,1,1.41-1.41l4.8,4.79L41.26,32a1,1,0,0,1,1.41,0,1,1,0,0,1,0,1.42L32.24,43.84A1,1,0,0,1,31.54,44.14Z"/></svg>