<svg id="Layer_1" data-name="Layer 1" xmlns="http://www.w3.org/2000/svg" viewBox="0 0 68 68"><defs><style>.cls-1{fill:none;stroke:#00b4d5;stroke-linecap:round;stroke-linejoin:round;stroke-width:2px;}.cls-2{fill:#00b4d5;}</style></defs><title>home-icons</title><circle class="cls-1" cx="33.92" cy="34" r="32"/><path class="cls-2" d="M49.59,28.55l-15-15a1,1,0,0,0-1.41,0l-15,15a1,1,0,0,0-.29.71V50.08a1,1,0,0,0,1,1H48.88a1,1,0,0,0,1-1V29.26A1,1,0,0,0,49.59,28.55ZM33.92,15.71l14,14v7.9h-5a16.11,16.11,0,0,0,.5-1.85,1.72,1.72,0,0,0-.56-1.83c-1.3-1-4.4.12-6.91,1.31a1.6,1.6,0,0,0-1-.38h-1.7a1.6,1.6,0,0,0-1,.38c-2.51-1.19-5.61-2.31-6.91-1.31a1.72,1.72,0,0,0-.56,1.83,16.11,16.11,0,0,0,.5,1.85H20v-7.9Zm7.59,24.52h0c.2.26.3.89.11,1.08,0,0-1,.81-5.2-2.16v-.46a5.66,5.66,0,0,1,1.88.92A.82.82,0,0,0,39.67,39a.76.76,0,0,0-.3-.62s-.11-.1-.27-.22a5.39,5.39,0,0,1,.78.17l.13,0a.74.74,0,0,0,.61-.16.83.83,0,0,0,.31-.65.8.8,0,0,0-.57-.76,8.19,8.19,0,0,0-3.45-.27c2.43-1.11,4.51-1.63,4.85-1.39a.53.53,0,0,1,0,.24,13.57,13.57,0,0,1-.63,2.21A2.18,2.18,0,0,0,41.51,40.23Zm-6.72-3.52V39.6a.27.27,0,0,1-.27.26h-1a.27.27,0,0,1-.27-.26V36.71a.27.27,0,0,1,.27-.26h1A.27.27,0,0,1,34.79,36.71Zm-7.9.88a13.89,13.89,0,0,1-.63-2.21c0-.12,0-.19,0-.21.43-.25,2.49.27,4.87,1.36a8,8,0,0,0-3.43.27.79.79,0,0,0-.62.77.82.82,0,0,0,.82.82,1,1,0,0,0,.26,0c.07,0,.36-.1.76-.17a2.79,2.79,0,0,0-.26.21.8.8,0,0,0-.28.61.82.82,0,0,0,.82.81.76.76,0,0,0,.49-.17,5.76,5.76,0,0,1,1.93-.94v.46c-4.23,3-5.19,2.17-5.2,2.16-.19-.19-.09-.82.11-1.08A2.18,2.18,0,0,0,26.89,37.59ZM20,49.08V39.57h5a2.56,2.56,0,0,0,.21,2.88c1.12,1.16,3.39.68,6.72-1.55a1.55,1.55,0,0,0,1.23.6h1.7a1.55,1.55,0,0,0,1.23-.6c2.18,1.46,3.85,2.17,5.1,2.17a2.16,2.16,0,0,0,1.62-.62A2.56,2.56,0,0,0,43,39.57h4.87v9.51Z"/></svg>