<svg id="Layer_1" data-name="Layer 1" xmlns="http://www.w3.org/2000/svg" viewBox="0 0 68 68"><defs><style>.cls-1{fill:none;stroke:#00b4d5;stroke-linecap:round;stroke-linejoin:round;stroke-width:2px;}.cls-2{fill:#00b4d5;}</style></defs><title>home-icons</title><circle class="cls-1" cx="33.92" cy="34" r="32"/><line class="cls-1" x1="11.65" y1="11.74" x2="56.18" y2="56.26"/><path class="cls-2" d="M49.48,39.25H12.67a1,1,0,0,1-1-1V30.49a1,1,0,0,1,1-1H49.48a1,1,0,0,1,1,1v7.76A1,1,0,0,1,49.48,39.25Zm-35.81-2H48.48V31.49H13.67Z"/><path class="cls-2" d="M52.42,39.49a1,1,0,0,1-1-1v-8a1,1,0,1,1,2,0v8A1,1,0,0,1,52.42,39.49Z"/><path class="cls-2" d="M55.33,39.49a1,1,0,0,1-1-1v-8a1,1,0,1,1,2,0v8A1,1,0,0,1,55.33,39.49Z"/></svg>