<svg id="Layer_1" data-name="Layer 1" xmlns="http://www.w3.org/2000/svg" viewBox="0 0 68 68"><defs><style>.cls-1{fill:none;stroke:#00b4d5;stroke-linecap:round;stroke-linejoin:round;stroke-width:2px;}.cls-2{fill:#00b4d5;}</style></defs><title>home-icons</title><circle class="cls-1" cx="33.92" cy="34" r="32"/><path class="cls-2" d="M48.93,23.55H40.55v-2.3a3.21,3.21,0,0,0-3.2-3.2h-6.6a3.2,3.2,0,0,0-3.2,3.2v2.3H19.16a2.06,2.06,0,0,0-2.06,2.06v21a2.06,2.06,0,0,0,2.06,2.06H48.93A2.07,2.07,0,0,0,51,46.59v-21A2.07,2.07,0,0,0,48.93,23.55Zm-19.38-2.3a1.2,1.2,0,0,1,1.2-1.2h6.6a1.2,1.2,0,0,1,1.2,1.2v2.3h-9Zm19.38,4.3.07.06,0,6.74H37.25v-.1a3.2,3.2,0,0,0-6.4,0v.1H19.14l0-6.8Zm-16.08,6.7a1.2,1.2,0,0,1,1.2-1.2,1.21,1.21,0,0,1,1.2,1.2v3.3a1.2,1.2,0,0,1-1.2,1.2,1.23,1.23,0,0,1-.85-.35,1.25,1.25,0,0,1-.35-.85ZM19.1,46.59l0-12.24H30.85v1.2a3.21,3.21,0,0,0,3.2,3.2,3.21,3.21,0,0,0,3.2-3.2v-1.2H49l0,12.3Z"/></svg>